SplineFontDB: 3.0
FontName: Expressway
FullName: Expressway
FamilyName: Expressway
Weight: Book
Copyright: (c) 2005 Ray Larabie. This font is freeware. Read attached text file for details. Don't forget to have a look at the rest of the Expressway family at Typodermic.\nTry the OpenType version with optional old-style (lowercase) numerals.\nhttp://www.typodermic.com
Version: 1.000 2005 initial release
ItalicAngle: 0
UnderlinePosition: -183
UnderlineWidth: 20
Ascent: 800
Descent: 200
InvalidEm: 0
sfntRevision: 0x00010000
LayerCount: 2
Layer: 0 1 "Back" 1
Layer: 1 1 "Fore" 0
XUID: [1021 233 725729505 32524]
StyleMap: 0x0040
FSType: 0
OS2Version: 2
OS2_WeightWidthSlopeOnly: 0
OS2_UseTypoMetrics: 0
CreationTime: 1109302299
ModificationTime: 1527314147
PfmFamily: 17
TTFWeight: 400
TTFWidth: 5
LineGap: 26
VLineGap: 0
Panose: 2 0 5 6 3 0 0 2 0 4
OS2TypoAscent: 729
OS2TypoAOffset: 0
OS2TypoDescent: -192
OS2TypoDOffset: 0
OS2TypoLinegap: 54
OS2WinAscent: 919
OS2WinAOffset: 0
OS2WinDescent: 198
OS2WinDOffset: 0
HheadAscent: 919
HheadAOffset: 0
HheadDescent: -198
HheadDOffset: 0
OS2SubXSize: 700
OS2SubYSize: 650
OS2SubXOff: 0
OS2SubYOff: 143
OS2SupXSize: 700
OS2SupYSize: 650
OS2SupXOff: 0
OS2SupYOff: 453
OS2StrikeYSize: 50
OS2StrikeYPos: 250
OS2CapHeight: 692
OS2XHeight: 531
OS2FamilyClass: 2052
OS2Vendor: 'TYPO'
OS2CodePages: 00000093.41000000
OS2UnicodeRanges: a0000027.1000004a.00000000.00000000
Lookup: 1 0 0 "'onum' Oldstyle Figures in Latin lookup 0" { "'onum' Oldstyle Figures in Latin lookup 0 subtable" ("oldstyle") } ['onum' ('latn' <'dflt' > ) ]
Lookup: 258 0 0 "'kern' Horizontal Kerning in Latin lookup 0" { "'kern' Horizontal Kerning in Latin lookup 0 subtable"  } ['kern' ('latn' <'dflt' > ) ]
Lookup: 258 0 0 "'kern' Horizontal Kerning in Latin lookup 1" { "'kern' Horizontal Kerning in Latin lookup 1 subtable"  } ['kern' ('latn' <'dflt' > ) ]
MarkAttachClasses: 1
DEI: 91125
TtTable: prep
PUSHW_1
 0
CALL
SVTCA[y-axis]
PUSHW_3
 1
 4
 2
CALL
SVTCA[x-axis]
PUSHW_3
 5
 4
 2

StartChar: exclam
Encoding: 33 33 4
Width: 170
GlyphClass: 2
Flags: W
LayerCount: 2
Fore
SplineSet
33 692 m 1,0,-1
 133 692 l 1,1,-1
 115 179 l 1,2,-1
 47 179 l 1,3,-1
 33 692 l 1,0,-1
27 39 m 256,4,5
 27 62 27 62 42.5 78.5 c 128,-1,6
 58 95 58 95 82 95 c 0,7,8
 105 95 105 95 122 78.5 c 128,-1,9
 139 62 139 62 139 39 c 256,10,11
 139 16 139 16 122 0.5 c 128,-1,12
 105 -15 105 -15 82 -15 c 0,13,14
 58 -15 58 -15 42.5 0.5 c 128,-1,15
 27 16 27 16 27 39 c 256,4,5
EndSplineSet
Validated: 1
EndChar

StartChar: quotedbl
Encoding: 34 34 5
Width: 281
GlyphClass: 2
Flags: W
LayerCount: 2
Fore
SplineSet
188 426 m 1,0,-1
 177 733 l 1,1,-1
 250 733 l 1,2,-1
 236 426 l 1,3,-1
 188 426 l 1,0,-1
41 426 m 1,4,-1
 30 733 l 1,5,-1
 103 733 l 1,6,-1
 89 426 l 1,7,-1
 41 426 l 1,4,-1
EndSplineSet
Validated: 1
EndChar

StartChar: numbersign
Encoding: 35 35 6
Width: 561
GlyphClass: 2
Flags: W
LayerCount: 2
Fore
SplineSet
347 0 m 1,0,-1
 283 0 l 1,1,-1
 319 182 l 1,2,-1
 183 182 l 1,3,-1
 147 0 l 1,4,-1
 84 0 l 1,5,-1
 120 182 l 1,6,-1
 12 182 l 1,7,-1
 12 244 l 1,8,-1
 132 244 l 1,9,-1
 170 435 l 1,10,-1
 51 435 l 1,11,-1
 51 498 l 1,12,-1
 182 498 l 1,13,-1
 219 692 l 1,14,-1
 284 692 l 1,15,-1
 246 498 l 1,16,-1
 382 498 l 1,17,-1
 420 692 l 1,18,-1
 485 692 l 1,19,-1
 446 498 l 1,20,-1
 545 498 l 1,21,-1
 545 435 l 1,22,-1
 434 435 l 1,23,-1
 395 244 l 1,24,-1
 506 244 l 1,25,-1
 506 182 l 1,26,-1
 383 182 l 1,27,-1
 347 0 l 1,0,-1
195 244 m 1,28,-1
 332 244 l 1,29,-1
 370 435 l 1,30,-1
 233 435 l 1,31,-1
 195 244 l 1,28,-1
EndSplineSet
Validated: 1
EndChar

StartChar: dollar
Encoding: 36 36 7
Width: 458
GlyphClass: 2
Flags: W
LayerCount: 2
Fore
SplineSet
194 71 m 1,0,1
 146 76 146 76 100.5 93.5 c 128,-1,2
 55 111 55 111 13 148 c 1,3,-1
 68 213 l 1,4,5
 100 181 100 181 143.5 166 c 128,-1,6
 187 151 187 151 228 151 c 0,7,8
 249 151 249 151 271 154.5 c 128,-1,9
 293 158 293 158 312 166.5 c 128,-1,10
 331 175 331 175 343 189 c 128,-1,11
 355 203 355 203 355 225 c 0,12,13
 355 266 355 266 327 287 c 0,14,15
 306 303 306 303 278 313 c 128,-1,16
 250 323 250 323 220 332.5 c 128,-1,17
 190 342 190 342 160.5 353.5 c 128,-1,18
 131 365 131 365 108 382 c 128,-1,19
 85 399 85 399 70.5 424 c 128,-1,20
 56 449 56 449 56 487 c 0,21,22
 56 516 56 516 67 539.5 c 128,-1,23
 78 563 78 563 97 580 c 128,-1,24
 116 597 116 597 141 607.5 c 128,-1,25
 166 618 166 618 194 622 c 1,26,-1
 194 692 l 1,27,-1
 276 692 l 1,28,-1
 276 621 l 1,29,30
 313 614 313 614 347.5 595.5 c 128,-1,31
 382 577 382 577 408 545 c 1,32,-1
 345 493 l 1,33,34
 325 517 325 517 294 529.5 c 128,-1,35
 263 542 263 542 232 542 c 0,36,37
 214 542 214 542 197.5 539 c 128,-1,38
 181 536 181 536 167.5 529.5 c 128,-1,39
 154 523 154 523 146 513 c 128,-1,40
 138 503 138 503 138 488 c 256,41,42
 138 473 138 473 143.5 463 c 128,-1,43
 149 453 149 453 161 445 c 0,44,45
 185 428 185 428 215 416.5 c 128,-1,46
 245 405 245 405 276 394.5 c 128,-1,47
 307 384 307 384 336.5 371.5 c 128,-1,48
 366 359 366 359 389 341.5 c 128,-1,49
 412 324 412 324 426 297.5 c 128,-1,50
 440 271 440 271 440 233 c 0,51,52
 440 194 440 194 426 165.5 c 128,-1,53
 412 137 412 137 389.5 117.5 c 128,-1,54
 367 98 367 98 337 87 c 128,-1,55
 307 76 307 76 276 72 c 1,56,-1
 276 0 l 1,57,-1
 194 0 l 1,58,-1
 194 71 l 1,0,1
EndSplineSet
Validated: 1
EndChar

StartChar: percent
Encoding: 37 37 8
Width: 676
GlyphClass: 2
Flags: W
LayerCount: 2
Fore
SplineSet
502 291 m 256,0,1
 533 291 533 291 560 279 c 128,-1,2
 587 267 587 267 607 247 c 128,-1,3
 627 227 627 227 639 200 c 128,-1,4
 651 173 651 173 651 142 c 256,5,6
 651 111 651 111 639 84 c 128,-1,7
 627 57 627 57 607 36.5 c 128,-1,8
 587 16 587 16 560 4.5 c 128,-1,9
 533 -7 533 -7 502 -7 c 256,10,11
 471 -7 471 -7 444 4.5 c 128,-1,12
 417 16 417 16 396.5 36.5 c 128,-1,13
 376 57 376 57 364.5 84 c 128,-1,14
 353 111 353 111 353 142 c 256,15,16
 353 173 353 173 364.5 200 c 128,-1,17
 376 227 376 227 396.5 247 c 128,-1,18
 417 267 417 267 444 279 c 128,-1,19
 471 291 471 291 502 291 c 256,0,1
170 698 m 256,20,21
 201 698 201 698 228 686 c 128,-1,22
 255 674 255 674 275 654 c 128,-1,23
 295 634 295 634 307 607 c 128,-1,24
 319 580 319 580 319 549 c 256,25,26
 319 518 319 518 307 491 c 128,-1,27
 295 464 295 464 275 443.5 c 128,-1,28
 255 423 255 423 228 411.5 c 128,-1,29
 201 400 201 400 170 400 c 256,30,31
 139 400 139 400 112 411.5 c 128,-1,32
 85 423 85 423 65 443.5 c 128,-1,33
 45 464 45 464 33.5 491 c 128,-1,34
 22 518 22 518 22 549 c 256,35,36
 22 580 22 580 33.5 607 c 128,-1,37
 45 634 45 634 65 654 c 128,-1,38
 85 674 85 674 112 686 c 128,-1,39
 139 698 139 698 170 698 c 256,20,21
588 691 m 1,40,-1
 154 0 l 1,41,-1
 81 0 l 1,42,-1
 512 691 l 1,43,-1
 588 691 l 1,40,-1
502 226 m 0,44,45
 466 226 466 226 441.5 201 c 128,-1,46
 417 176 417 176 417 141 c 0,47,48
 417 105 417 105 441.5 80.5 c 128,-1,49
 466 56 466 56 502 56 c 0,50,51
 537 56 537 56 562.5 80.5 c 128,-1,52
 588 105 588 105 588 141 c 0,53,54
 588 159 588 159 581 174.5 c 128,-1,55
 574 190 574 190 562.5 201.5 c 128,-1,56
 551 213 551 213 535.5 219.5 c 128,-1,57
 520 226 520 226 502 226 c 0,44,45
170 634 m 256,58,59
 152 634 152 634 136.5 627 c 128,-1,60
 121 620 121 620 109.5 608.5 c 128,-1,61
 98 597 98 597 91.5 581.5 c 128,-1,62
 85 566 85 566 85 548 c 0,63,64
 85 512 85 512 110 487.5 c 128,-1,65
 135 463 135 463 170 463 c 0,66,67
 206 463 206 463 231 487.5 c 128,-1,68
 256 512 256 512 256 548 c 0,69,70
 256 566 256 566 249.5 581.5 c 128,-1,71
 243 597 243 597 231 608.5 c 128,-1,72
 219 620 219 620 203.5 627 c 128,-1,73
 188 634 188 634 170 634 c 256,58,59
EndSplineSet
Validated: 1
EndChar

StartChar: ampersand
Encoding: 38 38 9
Width: 650
GlyphClass: 2
Flags: W
LayerCount: 2
Fore
SplineSet
247 705 m 0,0,1
 304 705 304 705 346 687 c 128,-1,2
 388 669 388 669 417 627 c 1,3,-1
 350 554 l 1,4,5
 309 604 309 604 248 604 c 0,6,7
 216 604 216 604 192.5 585.5 c 128,-1,8
 169 567 169 567 169 529 c 0,9,10
 169 493 169 493 194.5 450 c 128,-1,11
 220 407 220 407 261.5 362.5 c 128,-1,12
 303 318 303 318 355 274.5 c 128,-1,13
 407 231 407 231 460 193 c 1,14,15
 480 221 480 221 488.5 254.5 c 128,-1,16
 497 288 497 288 499 328 c 1,17,-1
 599 328 l 1,18,19
 597 263 597 263 583.5 217.5 c 128,-1,20
 570 172 570 172 544 137 c 1,21,-1
 634 77 l 1,22,-1
 583 -9 l 1,23,-1
 481 60 l 1,24,25
 404 -14 404 -14 277 -14 c 0,26,27
 216 -14 216 -14 168.5 5 c 128,-1,28
 121 24 121 24 88.5 56 c 128,-1,29
 56 88 56 88 39 129.5 c 128,-1,30
 22 171 22 171 22 217 c 0,31,32
 22 265 22 265 44 311 c 128,-1,33
 66 357 66 357 114 394 c 1,34,35
 92 424 92 424 81 458 c 128,-1,36
 70 492 70 492 70 527 c 0,37,38
 70 561 70 561 82.5 593.5 c 128,-1,39
 95 626 95 626 118 650.5 c 128,-1,40
 141 675 141 675 173.5 690 c 128,-1,41
 206 705 206 705 247 705 c 0,0,1
269 85 m 0,42,43
 309 85 309 85 336.5 95 c 128,-1,44
 364 105 364 105 390 124 c 1,45,46
 330 168 330 168 275.5 214 c 128,-1,47
 221 260 221 260 172 314 c 1,48,49
 150 296 150 296 135 271.5 c 128,-1,50
 120 247 120 247 120 218 c 0,51,52
 120 191 120 191 130.5 167 c 128,-1,53
 141 143 141 143 160.5 124.5 c 128,-1,54
 180 106 180 106 207.5 95.5 c 128,-1,55
 235 85 235 85 269 85 c 0,42,43
EndSplineSet
Validated: 1
EndChar

StartChar: quotesingle
Encoding: 39 39 10
Width: 127
GlyphClass: 2
Flags: W
LayerCount: 2
Fore
SplineSet
37 426 m 1,0,-1
 26 733 l 1,1,-1
 99 733 l 1,2,-1
 85 426 l 1,3,-1
 37 426 l 1,0,-1
EndSplineSet
Validated: 1
EndChar

StartChar: parenleft
Encoding: 40 40 11
Width: 249
GlyphClass: 2
Flags: W
LayerCount: 2
Fore
SplineSet
153 -169 m 1,0,1
 83 -65 83 -65 50 40 c 128,-1,2
 17 145 17 145 17 260 c 0,3,4
 17 373 17 373 50 480 c 128,-1,5
 83 587 83 587 153 691 c 1,6,-1
 228 691 l 1,7,8
 154 595 154 595 117.5 486.5 c 128,-1,9
 81 378 81 378 81 260 c 0,10,11
 81 151 81 151 117.5 45.5 c 128,-1,12
 154 -60 154 -60 229 -169 c 1,13,-1
 153 -169 l 1,0,1
EndSplineSet
Validated: 1
EndChar

StartChar: parenright
Encoding: 41 41 12
Width: 250
GlyphClass: 2
Flags: W
LayerCount: 2
Fore
SplineSet
18 -170 m 1,0,1
 93 -60 93 -60 129.5 45.5 c 128,-1,2
 166 151 166 151 166 260 c 0,3,4
 166 378 166 378 129.5 486.5 c 128,-1,5
 93 595 93 595 19 691 c 1,6,-1
 94 691 l 1,7,8
 165 587 165 587 197.5 480 c 128,-1,9
 230 373 230 373 230 260 c 0,10,11
 230 145 230 145 197.5 39.5 c 128,-1,12
 165 -66 165 -66 94 -170 c 1,13,-1
 18 -170 l 1,0,1
EndSplineSet
Validated: 1
EndChar

StartChar: asterisk
Encoding: 42 42 13
Width: 412
GlyphClass: 2
Flags: W
LayerCount: 2
Fore
SplineSet
395 524 m 1,0,-1
 269 483 l 1,1,-1
 348 377 l 1,2,-1
 280 326 l 1,3,-1
 204 430 l 1,4,-1
 129 326 l 1,5,-1
 61 377 l 1,6,-1
 140 483 l 1,7,-1
 14 524 l 1,8,-1
 39 601 l 1,9,-1
 164 560 l 1,10,-1
 164 692 l 1,11,-1
 245 692 l 1,12,-1
 245 560 l 1,13,-1
 370 601 l 1,14,-1
 395 524 l 1,0,-1
EndSplineSet
Validated: 1
EndChar

StartChar: plus
Encoding: 43 43 14
Width: 370
GlyphClass: 2
Flags: W
LayerCount: 2
Fore
SplineSet
159 309 m 1,0,-1
 5 309 l 1,1,-1
 5 370 l 1,2,-1
 159 370 l 1,3,-1
 159 516 l 1,4,-1
 220 516 l 1,5,-1
 220 370 l 1,6,-1
 361 370 l 1,7,-1
 361 309 l 1,8,-1
 220 309 l 1,9,-1
 220 160 l 1,10,-1
 159 160 l 1,11,-1
 159 309 l 1,0,-1
EndSplineSet
Validated: 1
EndChar

StartChar: comma
Encoding: 44 44 15
Width: 178
GlyphClass: 2
Flags: W
LayerCount: 2
Fore
SplineSet
14 -128 m 1,0,-1
 82 75 l 1,1,-1
 167 41 l 1,2,-1
 75 -156 l 1,3,-1
 14 -128 l 1,0,-1
EndSplineSet
Validated: 1
EndChar

StartChar: hyphen
Encoding: 45 45 16
Width: 375
GlyphClass: 2
Flags: W
LayerCount: 2
Fore
SplineSet
32 304 m 1,0,-1
 340 304 l 1,1,-1
 340 223 l 1,2,-1
 32 223 l 1,3,-1
 32 304 l 1,0,-1
EndSplineSet
Validated: 1
EndChar

StartChar: period
Encoding: 46 46 17
Width: 151
GlyphClass: 2
Flags: W
LayerCount: 2
Fore
SplineSet
22 37 m 256,0,1
 22 58 22 58 36 74 c 128,-1,2
 50 90 50 90 73 90 c 0,3,4
 94 90 94 90 110 74 c 128,-1,5
 126 58 126 58 126 37 c 256,6,7
 126 16 126 16 110 1 c 128,-1,8
 94 -14 94 -14 73 -14 c 0,9,10
 50 -14 50 -14 36 1 c 128,-1,11
 22 16 22 16 22 37 c 256,0,1
EndSplineSet
Validated: 1
EndChar

StartChar: slash
Encoding: 47 47 18
Width: 360
GlyphClass: 2
Flags: W
LayerCount: 2
Fore
SplineSet
72 -74 m 1,0,-1
 5 -74 l 1,1,-1
 287 691 l 1,2,-1
 354 691 l 1,3,-1
 72 -74 l 1,0,-1
EndSplineSet
Validated: 1
EndChar

StartChar: zero
Encoding: 48 48 19
Width: 567
GlyphClass: 2
Flags: W
LayerCount: 2
Fore
SplineSet
282 706 m 256,0,1
 339 706 339 706 386.5 683 c 128,-1,2
 434 660 434 660 468.5 614 c 128,-1,3
 503 568 503 568 522.5 500.5 c 128,-1,4
 542 433 542 433 542 345 c 0,5,6
 542 256 542 256 522.5 189 c 128,-1,7
 503 122 503 122 468.5 77 c 128,-1,8
 434 32 434 32 386.5 9 c 128,-1,9
 339 -14 339 -14 282 -14 c 256,10,11
 225 -14 225 -14 177.5 9 c 128,-1,12
 130 32 130 32 95.5 77 c 128,-1,13
 61 122 61 122 42 189 c 128,-1,14
 23 256 23 256 23 345 c 0,15,16
 23 433 23 433 42 500.5 c 128,-1,17
 61 568 61 568 95.5 614 c 128,-1,18
 130 660 130 660 177.5 683 c 128,-1,19
 225 706 225 706 282 706 c 256,0,1
282 606 m 256,20,21
 207 606 207 606 164 541 c 128,-1,22
 121 476 121 476 121 345 c 256,23,24
 121 214 121 214 164 149 c 128,-1,25
 207 84 207 84 282 84 c 256,26,27
 357 84 357 84 400.5 149 c 128,-1,28
 444 214 444 214 444 345 c 256,29,30
 444 476 444 476 400.5 541 c 128,-1,31
 357 606 357 606 282 606 c 256,20,21
EndSplineSet
Validated: 1
Substitution2: "'onum' Oldstyle Figures in Latin lookup 0 subtable" zerooldstyle
EndChar

StartChar: one
Encoding: 49 49 20
Width: 224
GlyphClass: 2
Flags: W
LayerCount: 2
Fore
SplineSet
89 538 m 1,0,-1
 16 538 l 1,1,-1
 16 625 l 1,2,3
 91 635 91 635 101 692 c 1,4,-1
 189 692 l 1,5,-1
 189 0 l 1,6,-1
 89 0 l 1,7,-1
 89 538 l 1,0,-1
EndSplineSet
Validated: 1
Substitution2: "'onum' Oldstyle Figures in Latin lookup 0 subtable" oneoldstyle
EndChar

StartChar: two
Encoding: 50 50 21
Width: 541
GlyphClass: 2
Flags: W
LayerCount: 2
Fore
SplineSet
273 706 m 0,0,1
 317 706 317 706 359 694.5 c 128,-1,2
 401 683 401 683 434 659.5 c 128,-1,3
 467 636 467 636 487 601 c 128,-1,4
 507 566 507 566 507 518 c 0,5,6
 507 468 507 468 486.5 433 c 128,-1,7
 466 398 466 398 435 372 c 128,-1,8
 404 346 404 346 366 325.5 c 128,-1,9
 328 305 328 305 294 286 c 0,10,11
 240 254 240 254 200.5 207 c 128,-1,12
 161 160 161 160 146 99 c 1,13,-1
 511 99 l 1,14,-1
 511 0 l 1,15,-1
 26 0 l 1,16,17
 30 61 30 61 41.5 112.5 c 128,-1,18
 53 164 53 164 75 207.5 c 128,-1,19
 97 251 97 251 131 287.5 c 128,-1,20
 165 324 165 324 214 355 c 0,21,22
 239 371 239 371 272.5 386.5 c 128,-1,23
 306 402 306 402 335 420.5 c 128,-1,24
 364 439 364 439 384.5 463 c 128,-1,25
 405 487 405 487 405 521 c 0,26,27
 405 543 405 543 394 559.5 c 128,-1,28
 383 576 383 576 365 586.5 c 128,-1,29
 347 597 347 597 323.5 602.5 c 128,-1,30
 300 608 300 608 276 608 c 0,31,32
 234 608 234 608 190 590 c 128,-1,33
 146 572 146 572 117 537 c 1,34,-1
 46 608 l 1,35,36
 67 632 67 632 94 650.5 c 128,-1,37
 121 669 121 669 151 681 c 128,-1,38
 181 693 181 693 212 699.5 c 128,-1,39
 243 706 243 706 273 706 c 0,0,1
EndSplineSet
Validated: 1
Substitution2: "'onum' Oldstyle Figures in Latin lookup 0 subtable" twooldstyle
EndChar

StartChar: three
Encoding: 51 51 22
Width: 534
GlyphClass: 2
Flags: W
LayerCount: 2
Fore
SplineSet
254 698 m 0,0,1
 295 698 295 698 333 687.5 c 128,-1,2
 371 677 371 677 400 656 c 128,-1,3
 429 635 429 635 446.5 603 c 128,-1,4
 464 571 464 571 464 528 c 0,5,6
 464 474 464 474 445.5 440 c 128,-1,7
 427 406 427 406 388 385 c 1,8,9
 415 379 415 379 437.5 363 c 128,-1,10
 460 347 460 347 476 324.5 c 128,-1,11
 492 302 492 302 501 274 c 128,-1,12
 510 246 510 246 510 215 c 0,13,14
 510 165 510 165 491 124 c 128,-1,15
 472 83 472 83 437 54 c 128,-1,16
 402 25 402 25 353.5 9 c 128,-1,17
 305 -7 305 -7 247 -7 c 0,18,19
 213 -7 213 -7 180.5 -1 c 128,-1,20
 148 5 148 5 118 16 c 128,-1,21
 88 27 88 27 62.5 43.5 c 128,-1,22
 37 60 37 60 18 81 c 1,23,-1
 81 157 l 1,24,25
 97 140 97 140 118.5 128 c 128,-1,26
 140 116 140 116 162.5 108.5 c 128,-1,27
 185 101 185 101 207.5 97 c 128,-1,28
 230 93 230 93 248 93 c 0,29,30
 325 93 325 93 369 126.5 c 128,-1,31
 413 160 413 160 413 213 c 0,32,33
 413 262 413 262 381 295.5 c 128,-1,34
 349 329 349 329 286 329 c 2,35,-1
 217 329 l 1,36,-1
 217 422 l 1,37,-1
 278 422 l 2,38,39
 320 422 320 422 345 448.5 c 128,-1,40
 370 475 370 475 370 514 c 0,41,42
 370 536 370 536 359.5 552.5 c 128,-1,43
 349 569 349 569 332.5 579.5 c 128,-1,44
 316 590 316 590 295.5 595 c 128,-1,45
 275 600 275 600 254 600 c 0,46,47
 217 600 217 600 180 584.5 c 128,-1,48
 143 569 143 569 123 543 c 1,49,-1
 59 615 l 1,50,51
 88 657 88 657 141 677.5 c 128,-1,52
 194 698 194 698 254 698 c 0,0,1
EndSplineSet
Validated: 1
Substitution2: "'onum' Oldstyle Figures in Latin lookup 0 subtable" threeoldstyle
EndChar

StartChar: four
Encoding: 52 52 23
Width: 567
GlyphClass: 2
Flags: W
LayerCount: 2
Fore
SplineSet
471 692 m 1,0,-1
 471 220 l 1,1,-1
 541 220 l 1,2,-1
 541 123 l 1,3,-1
 471 123 l 1,4,-1
 471 0 l 1,5,-1
 371 0 l 1,6,-1
 371 123 l 1,7,-1
 8 123 l 1,8,-1
 8 217 l 1,9,-1
 380 692 l 1,10,-1
 471 692 l 1,0,-1
121 217 m 1,11,-1
 371 217 l 1,12,-1
 371 535 l 1,13,-1
 121 217 l 1,11,-1
EndSplineSet
Validated: 1
Substitution2: "'onum' Oldstyle Figures in Latin lookup 0 subtable" fouroldstyle
EndChar

StartChar: five
Encoding: 53 53 24
Width: 564
GlyphClass: 2
Flags: W
LayerCount: 2
Fore
SplineSet
478 592 m 1,0,-1
 174 592 l 1,1,-1
 158 442 l 1,2,3
 198 465 198 465 233 473 c 128,-1,4
 268 481 268 481 303 481 c 0,5,6
 352 481 352 481 395 466 c 128,-1,7
 438 451 438 451 470 421.5 c 128,-1,8
 502 392 502 392 520 348 c 128,-1,9
 538 304 538 304 538 246 c 0,10,11
 538 177 538 177 513.5 129 c 128,-1,12
 489 81 489 81 449 51 c 128,-1,13
 409 21 409 21 358 7 c 128,-1,14
 307 -7 307 -7 254 -7 c 0,15,16
 122 -7 122 -7 21 79 c 1,17,-1
 85 157 l 1,18,19
 130 120 130 120 175 106.5 c 128,-1,20
 220 93 220 93 261 93 c 0,21,22
 345 93 345 93 392 135.5 c 128,-1,23
 439 178 439 178 439 247 c 0,24,25
 439 283 439 283 427 309 c 128,-1,26
 415 335 415 335 394.5 352.5 c 128,-1,27
 374 370 374 370 347.5 378.5 c 128,-1,28
 321 387 321 387 292 387 c 0,29,30
 245 387 245 387 211.5 374 c 128,-1,31
 178 361 178 361 143 335 c 1,32,-1
 60 369 l 1,33,-1
 92 692 l 1,34,-1
 478 692 l 1,35,-1
 478 592 l 1,0,-1
EndSplineSet
Validated: 1
Substitution2: "'onum' Oldstyle Figures in Latin lookup 0 subtable" fiveoldstyle
EndChar

StartChar: six
Encoding: 54 54 25
Width: 572
GlyphClass: 2
Flags: W
LayerCount: 2
Fore
SplineSet
308 443 m 0,0,1
 361 443 361 443 405.5 427 c 128,-1,2
 450 411 450 411 482 382.5 c 128,-1,3
 514 354 514 354 532 314.5 c 128,-1,4
 550 275 550 275 550 227 c 0,5,6
 550 178 550 178 529.5 135.5 c 128,-1,7
 509 93 509 93 474 61.5 c 128,-1,8
 439 30 439 30 391 12 c 128,-1,9
 343 -6 343 -6 288 -6 c 0,10,11
 216 -6 216 -6 165 18.5 c 128,-1,12
 114 43 114 43 82 83 c 128,-1,13
 50 123 50 123 35 175 c 128,-1,14
 20 227 20 227 20 282 c 0,15,16
 20 367 20 367 47 445 c 128,-1,17
 74 523 74 523 122 579 c 0,18,19
 155 618 155 618 192.5 641 c 128,-1,20
 230 664 230 664 271.5 676.5 c 128,-1,21
 313 689 313 689 358.5 693 c 128,-1,22
 404 697 404 697 454 697 c 1,23,24
 454 673 454 673 454 648.5 c 128,-1,25
 454 624 454 624 453 599 c 1,26,27
 397 599 397 599 345 591.5 c 128,-1,28
 293 584 293 584 250 560 c 128,-1,29
 207 536 207 536 175.5 490.5 c 128,-1,30
 144 445 144 445 128 369 c 1,31,32
 159 413 159 413 204.5 428 c 128,-1,33
 250 443 250 443 308 443 c 0,0,1
291 355 m 0,34,35
 222 355 222 355 175.5 321 c 128,-1,36
 129 287 129 287 122 228 c 1,37,38
 125 201 125 201 136.5 176 c 128,-1,39
 148 151 148 151 168 132 c 128,-1,40
 188 113 188 113 218 102 c 128,-1,41
 248 91 248 91 287 91 c 0,42,43
 327 91 327 91 358 102 c 128,-1,44
 389 113 389 113 410 132 c 128,-1,45
 431 151 431 151 442 175.5 c 128,-1,46
 453 200 453 200 453 227 c 0,47,48
 453 255 453 255 441 278.5 c 128,-1,49
 429 302 429 302 407.5 319 c 128,-1,50
 386 336 386 336 356.5 345.5 c 128,-1,51
 327 355 327 355 291 355 c 0,34,35
EndSplineSet
Validated: 1
Substitution2: "'onum' Oldstyle Figures in Latin lookup 0 subtable" sixoldstyle
EndChar

StartChar: seven
Encoding: 55 55 26
Width: 523
GlyphClass: 2
Flags: W
LayerCount: 2
Fore
SplineSet
20 692 m 1,0,-1
 507 692 l 1,1,-1
 507 610 l 1,2,3
 445 538 445 538 402.5 465 c 128,-1,4
 360 392 360 392 331 311 c 0,5,6
 306 239 306 239 290.5 162.5 c 128,-1,7
 275 86 275 86 265 0 c 1,8,-1
 165 0 l 1,9,10
 175 85 175 85 190.5 167.5 c 128,-1,11
 206 250 206 250 232 329 c 0,12,13
 256 402 256 402 292 470.5 c 128,-1,14
 328 539 328 539 377 592 c 1,15,-1
 20 592 l 1,16,-1
 20 692 l 1,0,-1
EndSplineSet
Validated: 1
Substitution2: "'onum' Oldstyle Figures in Latin lookup 0 subtable" sevenoldstyle
EndChar

StartChar: eight
Encoding: 56 56 27
Width: 571
GlyphClass: 2
Flags: W
LayerCount: 2
Fore
SplineSet
283 698 m 256,0,1
 324 698 324 698 363 687.5 c 128,-1,2
 402 677 402 677 432.5 656 c 128,-1,3
 463 635 463 635 481.5 603.5 c 128,-1,4
 500 572 500 572 500 529 c 0,5,6
 500 425 500 425 425 385 c 1,7,8
 451 378 451 378 473.5 362 c 128,-1,9
 496 346 496 346 512 323 c 128,-1,10
 528 300 528 300 537 271.5 c 128,-1,11
 546 243 546 243 546 210 c 0,12,13
 546 162 546 162 527 122 c 128,-1,14
 508 82 508 82 473 53.5 c 128,-1,15
 438 25 438 25 389.5 9 c 128,-1,16
 341 -7 341 -7 283 -7 c 256,17,18
 225 -7 225 -7 176.5 9 c 128,-1,19
 128 25 128 25 93.5 53.5 c 128,-1,20
 59 82 59 82 40 122 c 128,-1,21
 21 162 21 162 21 210 c 0,22,23
 21 275 21 275 54.5 323 c 128,-1,24
 88 371 88 371 142 385 c 1,25,26
 67 426 67 426 67 525 c 0,27,28
 67 569 67 569 85.5 601.5 c 128,-1,29
 104 634 104 634 134 655.5 c 128,-1,30
 164 677 164 677 203 687.5 c 128,-1,31
 242 698 242 698 283 698 c 256,0,1
283 601 m 256,32,33
 261 601 261 601 239.5 596 c 128,-1,34
 218 591 218 591 201 580.5 c 128,-1,35
 184 570 184 570 173.5 554.5 c 128,-1,36
 163 539 163 539 163 519 c 0,37,38
 163 467 163 467 190 441.5 c 128,-1,39
 217 416 217 416 283 416 c 0,40,41
 350 416 350 416 377 444.5 c 128,-1,42
 404 473 404 473 404 519 c 0,43,44
 404 539 404 539 393.5 554.5 c 128,-1,45
 383 570 383 570 365.5 580.5 c 128,-1,46
 348 591 348 591 326.5 596 c 128,-1,47
 305 601 305 601 283 601 c 256,32,33
283 91 m 256,48,49
 322 91 322 91 353 100.5 c 128,-1,50
 384 110 384 110 405.5 126.5 c 128,-1,51
 427 143 427 143 438.5 165 c 128,-1,52
 450 187 450 187 450 211 c 0,53,54
 450 277 450 277 409 305.5 c 128,-1,55
 368 334 368 334 283 334 c 0,56,57
 236 334 236 334 204.5 324.5 c 128,-1,58
 173 315 173 315 153.5 298.5 c 128,-1,59
 134 282 134 282 125.5 259.5 c 128,-1,60
 117 237 117 237 117 211 c 0,61,62
 117 187 117 187 128.5 165 c 128,-1,63
 140 143 140 143 161.5 126.5 c 128,-1,64
 183 110 183 110 213.5 100.5 c 128,-1,65
 244 91 244 91 283 91 c 256,48,49
EndSplineSet
Validated: 1
Substitution2: "'onum' Oldstyle Figures in Latin lookup 0 subtable" eightoldstyle
EndChar

StartChar: nine
Encoding: 57 57 28
Width: 571
GlyphClass: 2
Flags: W
LayerCount: 2
Fore
SplineSet
260 248 m 0,0,1
 207 248 207 248 162.5 264 c 128,-1,2
 118 280 118 280 86 309 c 128,-1,3
 54 338 54 338 36 377.5 c 128,-1,4
 18 417 18 417 18 465 c 256,5,6
 18 513 18 513 38.5 555.5 c 128,-1,7
 59 598 59 598 94 629.5 c 128,-1,8
 129 661 129 661 177 679.5 c 128,-1,9
 225 698 225 698 280 698 c 0,10,11
 352 698 352 698 403 673.5 c 128,-1,12
 454 649 454 649 486 608.5 c 128,-1,13
 518 568 518 568 533 516 c 128,-1,14
 548 464 548 464 548 409 c 0,15,16
 548 324 548 324 521 246 c 128,-1,17
 494 168 494 168 446 113 c 0,18,19
 413 74 413 74 375.5 50.5 c 128,-1,20
 338 27 338 27 296.5 15 c 128,-1,21
 255 3 255 3 209 -1 c 128,-1,22
 163 -5 163 -5 114 -5 c 1,23,24
 114 19 114 19 114 43.5 c 128,-1,25
 114 68 114 68 115 92 c 1,26,27
 171 92 171 92 223 99 c 128,-1,28
 275 106 275 106 318 130 c 128,-1,29
 361 154 361 154 392.5 199.5 c 128,-1,30
 424 245 424 245 440 322 c 1,31,32
 409 279 409 279 363.5 263.5 c 128,-1,33
 318 248 318 248 260 248 c 0,0,1
277 337 m 0,34,35
 346 337 346 337 392.5 371 c 128,-1,36
 439 405 439 405 446 463 c 1,37,38
 443 490 443 490 431.5 515 c 128,-1,39
 420 540 420 540 400 559 c 128,-1,40
 380 578 380 578 350 589 c 128,-1,41
 320 600 320 600 281 600 c 0,42,43
 241 600 241 600 210 589 c 128,-1,44
 179 578 179 578 158 559.5 c 128,-1,45
 137 541 137 541 126 516 c 128,-1,46
 115 491 115 491 115 464 c 0,47,48
 115 436 115 436 127 413 c 128,-1,49
 139 390 139 390 160.5 373 c 128,-1,50
 182 356 182 356 211.5 346.5 c 128,-1,51
 241 337 241 337 277 337 c 0,34,35
EndSplineSet
Validated: 1
Substitution2: "'onum' Oldstyle Figures in Latin lookup 0 subtable" nineoldstyle
EndChar

StartChar: colon
Encoding: 58 58 29
Width: 159
GlyphClass: 2
Flags: W
LayerCount: 2
Fore
SplineSet
25 37 m 256,0,1
 25 58 25 58 39 74 c 128,-1,2
 53 90 53 90 76 90 c 0,3,4
 97 90 97 90 113 74 c 128,-1,5
 129 58 129 58 129 37 c 256,6,7
 129 16 129 16 113 1 c 128,-1,8
 97 -14 97 -14 76 -14 c 0,9,10
 53 -14 53 -14 39 1 c 128,-1,11
 25 16 25 16 25 37 c 256,0,1
28 439 m 256,12,13
 28 460 28 460 42 476 c 128,-1,14
 56 492 56 492 79 492 c 0,15,16
 100 492 100 492 116 476 c 128,-1,17
 132 460 132 460 132 439 c 256,18,19
 132 418 132 418 116 403 c 128,-1,20
 100 388 100 388 79 388 c 0,21,22
 56 388 56 388 42 403 c 128,-1,23
 28 418 28 418 28 439 c 256,12,13
EndSplineSet
Validated: 1
EndChar

StartChar: semicolon
Encoding: 59 59 30
Width: 182
GlyphClass: 2
Flags: W
LayerCount: 2
Fore
SplineSet
5 -128 m 1,0,-1
 73 75 l 1,1,-1
 158 41 l 1,2,-1
 66 -156 l 1,3,-1
 5 -128 l 1,0,-1
57 439 m 256,4,5
 57 460 57 460 71.5 476 c 128,-1,6
 86 492 86 492 108 492 c 256,7,8
 130 492 130 492 145.5 476 c 128,-1,9
 161 460 161 460 161 439 c 256,10,11
 161 418 161 418 145.5 403 c 128,-1,12
 130 388 130 388 108 388 c 256,13,14
 86 388 86 388 71.5 403 c 128,-1,15
 57 418 57 418 57 439 c 256,4,5
EndSplineSet
Validated: 1
EndChar

StartChar: less
Encoding: 60 60 31
Width: 460
GlyphClass: 2
Flags: W
LayerCount: 2
Fore
SplineSet
1 369 m 1,0,-1
 436 526 l 1,1,-1
 436 456 l 1,2,-1
 92 338 l 1,3,-1
 436 220 l 1,4,-1
 436 153 l 1,5,-1
 1 309 l 1,6,-1
 1 369 l 1,0,-1
EndSplineSet
Validated: 1
EndChar

StartChar: equal
Encoding: 61 61 32
Width: 402
GlyphClass: 2
Flags: W
LayerCount: 2
Fore
SplineSet
32 406 m 1,0,-1
 32 468 l 1,1,-1
 388 468 l 1,2,-1
 388 406 l 1,3,-1
 32 406 l 1,0,-1
32 212 m 1,4,-1
 32 273 l 1,5,-1
 388 273 l 1,6,-1
 388 212 l 1,7,-1
 32 212 l 1,4,-1
EndSplineSet
Validated: 1
EndChar

StartChar: greater
Encoding: 62 62 33
Width: 470
GlyphClass: 2
Flags: W
LayerCount: 2
Fore
SplineSet
467 309 m 1,0,-1
 32 153 l 1,1,-1
 32 220 l 1,2,-1
 376 338 l 1,3,-1
 32 456 l 1,4,-1
 32 526 l 1,5,-1
 467 369 l 1,6,-1
 467 309 l 1,0,-1
EndSplineSet
Validated: 1
EndChar

StartChar: question
Encoding: 63 63 34
Width: 442
GlyphClass: 2
Flags: W
LayerCount: 2
Fore
SplineSet
154 39 m 256,0,1
 154 62 154 62 169.5 78.5 c 128,-1,2
 185 95 185 95 209 95 c 0,3,4
 232 95 232 95 249 78.5 c 128,-1,5
 266 62 266 62 266 39 c 256,6,7
 266 16 266 16 249 1 c 128,-1,8
 232 -14 232 -14 209 -14 c 0,9,10
 185 -14 185 -14 169.5 1 c 128,-1,11
 154 16 154 16 154 39 c 256,0,1
213 698 m 0,12,13
 256 698 256 698 294.5 687.5 c 128,-1,14
 333 677 333 677 362 655.5 c 128,-1,15
 391 634 391 634 407.5 600.5 c 128,-1,16
 424 567 424 567 424 522 c 0,17,18
 424 490 424 490 416.5 464.5 c 128,-1,19
 409 439 409 439 397 417.5 c 128,-1,20
 385 396 385 396 369 378 c 128,-1,21
 353 360 353 360 337 343 c 0,22,23
 302 308 302 308 282 275.5 c 128,-1,24
 262 243 262 243 260 196 c 1,25,-1
 167 196 l 1,26,27
 169 234 169 234 178.5 269.5 c 128,-1,28
 188 305 188 305 209 336 c 0,29,30
 226 361 226 361 246.5 382.5 c 128,-1,31
 267 404 267 404 284.5 425 c 128,-1,32
 302 446 302 446 314 468.5 c 128,-1,33
 326 491 326 491 326 518 c 0,34,35
 326 540 326 540 317 556 c 128,-1,36
 308 572 308 572 292.5 581.5 c 128,-1,37
 277 591 277 591 257 595.5 c 128,-1,38
 237 600 237 600 215 600 c 0,39,40
 178 600 178 600 142 586.5 c 128,-1,41
 106 573 106 573 72 544 c 1,42,-1
 12 625 l 1,43,44
 57 663 57 663 106.5 680.5 c 128,-1,45
 156 698 156 698 213 698 c 0,12,13
EndSplineSet
Validated: 1
EndChar

StartChar: at
Encoding: 64 64 35
Width: 709
GlyphClass: 2
Flags: W
LayerCount: 2
Fore
SplineSet
482 231 m 1,0,1
 501 200 501 200 537 200 c 0,2,3
 560 200 560 200 577.5 213 c 128,-1,4
 595 226 595 226 607 246 c 128,-1,5
 619 266 619 266 625 289.5 c 128,-1,6
 631 313 631 313 631 335 c 0,7,8
 631 398 631 398 610.5 445.5 c 128,-1,9
 590 493 590 493 555 524.5 c 128,-1,10
 520 556 520 556 474 572 c 128,-1,11
 428 588 428 588 377 588 c 0,12,13
 307 588 307 588 252.5 563.5 c 128,-1,14
 198 539 198 539 161 498 c 128,-1,15
 124 457 124 457 104.5 403.5 c 128,-1,16
 85 350 85 350 85 292 c 0,17,18
 85 240 85 240 100 190.5 c 128,-1,19
 115 141 115 141 148 100 c 0,20,21
 170 73 170 73 194 54.5 c 128,-1,22
 218 36 218 36 246 24 c 128,-1,23
 274 12 274 12 305 5 c 128,-1,24
 336 -2 336 -2 372 -7 c 1,25,-1
 359 -69 l 1,26,27
 319 -63 319 -63 283 -54 c 128,-1,28
 247 -45 247 -45 214.5 -30 c 128,-1,29
 182 -15 182 -15 153.5 7 c 128,-1,30
 125 29 125 29 100 61 c 0,31,32
 62 109 62 109 42 170 c 128,-1,33
 22 231 22 231 22 297 c 0,34,35
 22 375 22 375 48.5 439.5 c 128,-1,36
 75 504 75 504 121.5 550.5 c 128,-1,37
 168 597 168 597 231.5 622.5 c 128,-1,38
 295 648 295 648 368 648 c 0,39,40
 433 648 433 648 492 630 c 128,-1,41
 551 612 551 612 596 574.5 c 128,-1,42
 641 537 641 537 667.5 480 c 128,-1,43
 694 423 694 423 694 346 c 0,44,45
 694 301 694 301 683 263.5 c 128,-1,46
 672 226 672 226 650.5 199 c 128,-1,47
 629 172 629 172 597.5 157 c 128,-1,48
 566 142 566 142 526 142 c 0,49,50
 499 142 499 142 478 153.5 c 128,-1,51
 457 165 457 165 445 184 c 1,52,53
 429 171 429 171 404.5 163 c 128,-1,54
 380 155 380 155 357 155 c 0,55,56
 328 155 328 155 305 165.5 c 128,-1,57
 282 176 282 176 266 194.5 c 128,-1,58
 250 213 250 213 241.5 237.5 c 128,-1,59
 233 262 233 262 233 290 c 0,60,61
 233 352 233 352 269.5 386.5 c 128,-1,62
 306 421 306 421 365 421 c 0,63,64
 382 421 382 421 397 417 c 128,-1,65
 412 413 412 413 423 405 c 1,66,-1
 423 424 l 1,67,-1
 482 424 l 1,68,-1
 482 231 l 1,0,1
365 366 m 0,69,70
 327 366 327 366 309.5 343.5 c 128,-1,71
 292 321 292 321 292 290 c 0,72,73
 292 257 292 257 310 234 c 128,-1,74
 328 211 328 211 357 211 c 0,75,76
 374 211 374 211 391 215.5 c 128,-1,77
 408 220 408 220 422 229 c 1,78,-1
 422 351 l 1,79,80
 408 358 408 358 393.5 362 c 128,-1,81
 379 366 379 366 365 366 c 0,69,70
EndSplineSet
Validated: 1
EndChar

StartChar: A
Encoding: 65 65 36
Width: 591
GlyphClass: 2
Flags: W
LayerCount: 2
Fore
SplineSet
252 692 m 1,0,-1
 338 692 l 1,1,-1
 586 0 l 1,2,-1
 475 0 l 1,3,-1
 429 134 l 1,4,-1
 160 134 l 1,5,-1
 115 0 l 1,6,-1
 5 0 l 1,7,-1
 252 692 l 1,0,-1
188 229 m 1,8,-1
 401 229 l 1,9,-1
 294 545 l 1,10,-1
 188 229 l 1,8,-1
EndSplineSet
Validated: 1
EndChar

StartChar: B
Encoding: 66 66 37
Width: 567
GlyphClass: 2
Flags: W
LayerCount: 2
Fore
SplineSet
302 692 m 2,0,1
 344 692 344 692 378 679 c 128,-1,2
 412 666 412 666 436.5 642 c 128,-1,3
 461 618 461 618 474.5 584.5 c 128,-1,4
 488 551 488 551 488 511 c 0,5,6
 488 482 488 482 482 459.5 c 128,-1,7
 476 437 476 437 466 420 c 128,-1,8
 456 403 456 403 442 390 c 128,-1,9
 428 377 428 377 413 367 c 1,10,11
 434 362 434 362 456.5 348 c 128,-1,12
 479 334 479 334 498 311.5 c 128,-1,13
 517 289 517 289 529 259 c 128,-1,14
 541 229 541 229 541 192 c 0,15,16
 541 96 541 96 480 48 c 128,-1,17
 419 0 419 0 315 0 c 2,18,-1
 35 0 l 1,19,-1
 35 692 l 1,20,-1
 302 692 l 2,0,1
304 398 m 2,21,22
 322 398 322 398 338 406.5 c 128,-1,23
 354 415 354 415 366.5 429.5 c 128,-1,24
 379 444 379 444 386.5 462 c 128,-1,25
 394 480 394 480 394 498 c 0,26,27
 394 540 394 540 369 567 c 128,-1,28
 344 594 344 594 304 594 c 2,29,-1
 133 594 l 1,30,-1
 133 398 l 1,31,-1
 304 398 l 2,21,22
133 96 m 1,32,-1
 326 96 l 2,33,34
 379 96 379 96 412.5 122.5 c 128,-1,35
 446 149 446 149 446 199 c 0,36,37
 446 224 446 224 434.5 244.5 c 128,-1,38
 423 265 423 265 404 279.5 c 128,-1,39
 385 294 385 294 362 301.5 c 128,-1,40
 339 309 339 309 315 309 c 2,41,-1
 133 309 l 1,42,-1
 133 96 l 1,32,-1
EndSplineSet
Validated: 1
EndChar

StartChar: C
Encoding: 67 67 38
Width: 578
GlyphClass: 2
Flags: W
LayerCount: 2
Fore
SplineSet
320 606 m 0,0,1
 230 606 230 606 177 541 c 128,-1,2
 124 476 124 476 124 345 c 0,3,4
 124 215 124 215 177.5 149.5 c 128,-1,5
 231 84 231 84 320 84 c 0,6,7
 363 84 363 84 404.5 102 c 128,-1,8
 446 120 446 120 478 161 c 1,9,-1
 551 104 l 1,10,11
 508 46 508 46 450.5 16 c 128,-1,12
 393 -14 393 -14 323 -14 c 0,13,14
 258 -14 258 -14 203.5 9 c 128,-1,15
 149 32 149 32 109 77 c 128,-1,16
 69 122 69 122 46.5 189 c 128,-1,17
 24 256 24 256 24 345 c 0,18,19
 24 433 24 433 46.5 500.5 c 128,-1,20
 69 568 69 568 109 614 c 128,-1,21
 149 660 149 660 203.5 683 c 128,-1,22
 258 706 258 706 323 706 c 0,23,24
 403 706 403 706 460.5 672.5 c 128,-1,25
 518 639 518 639 556 580 c 1,26,-1
 483 522 l 1,27,28
 449 564 449 564 407 585 c 128,-1,29
 365 606 365 606 320 606 c 0,0,1
EndSplineSet
Validated: 1
EndChar

StartChar: D
Encoding: 68 68 39
Width: 600
GlyphClass: 2
Flags: W
LayerCount: 2
Fore
SplineSet
220 692 m 2,0,1
 294 692 294 692 358.5 665.5 c 128,-1,2
 423 639 423 639 471 592.5 c 128,-1,3
 519 546 519 546 546.5 483 c 128,-1,4
 574 420 574 420 574 347 c 256,5,6
 574 274 574 274 546.5 211 c 128,-1,7
 519 148 519 148 471 101 c 128,-1,8
 423 54 423 54 358.5 27 c 128,-1,9
 294 0 294 0 220 0 c 2,10,-1
 35 0 l 1,11,-1
 35 692 l 1,12,-1
 220 692 l 2,0,1
135 98 m 1,13,-1
 221 98 l 2,14,15
 273 98 273 98 319 116.5 c 128,-1,16
 365 135 365 135 399 168 c 128,-1,17
 433 201 433 201 452.5 246.5 c 128,-1,18
 472 292 472 292 472 346 c 0,19,20
 472 401 472 401 452.5 446.5 c 128,-1,21
 433 492 433 492 399 524.5 c 128,-1,22
 365 557 365 557 319 574.5 c 128,-1,23
 273 592 273 592 221 592 c 2,24,-1
 135 592 l 1,25,-1
 135 98 l 1,13,-1
EndSplineSet
Validated: 1
EndChar

StartChar: E
Encoding: 69 69 40
Width: 456
GlyphClass: 2
Flags: W
LayerCount: 2
Fore
SplineSet
35 692 m 1,0,-1
 416 692 l 1,1,-1
 416 592 l 1,2,-1
 134 592 l 1,3,-1
 134 403 l 1,4,-1
 309 403 l 1,5,-1
 309 304 l 1,6,-1
 134 304 l 1,7,-1
 134 97 l 1,8,-1
 424 97 l 1,9,-1
 424 0 l 1,10,-1
 35 0 l 1,11,-1
 35 692 l 1,0,-1
EndSplineSet
Validated: 1
EndChar

StartChar: F
Encoding: 70 70 41
Width: 428
GlyphClass: 2
Flags: W
LayerCount: 2
Fore
SplineSet
134 392 m 1,0,-1
 314 392 l 1,1,-1
 314 293 l 1,2,-1
 134 293 l 1,3,-1
 134 0 l 1,4,-1
 35 0 l 1,5,-1
 35 692 l 1,6,-1
 416 692 l 1,7,-1
 416 592 l 1,8,-1
 134 592 l 1,9,-1
 134 392 l 1,0,-1
EndSplineSet
Validated: 1
EndChar

StartChar: G
Encoding: 71 71 42
Width: 615
GlyphClass: 2
Flags: W
LayerCount: 2
Fore
SplineSet
342 349 m 1,0,-1
 589 349 l 1,1,-1
 589 257 l 2,2,3
 589 201 589 201 571.5 152 c 128,-1,4
 554 103 554 103 520.5 66 c 128,-1,5
 487 29 487 29 437 7.5 c 128,-1,6
 387 -14 387 -14 322 -14 c 0,7,8
 258 -14 258 -14 203.5 9 c 128,-1,9
 149 32 149 32 109 77 c 128,-1,10
 69 122 69 122 46.5 189 c 128,-1,11
 24 256 24 256 24 345 c 0,12,13
 24 433 24 433 46.5 500.5 c 128,-1,14
 69 568 69 568 109.5 614 c 128,-1,15
 150 660 150 660 204.5 683 c 128,-1,16
 259 706 259 706 324 706 c 0,17,18
 398 706 398 706 457 675.5 c 128,-1,19
 516 645 516 645 558 576 c 1,20,-1
 484 521 l 1,21,22
 451 563 451 563 409.5 584.5 c 128,-1,23
 368 606 368 606 322 606 c 0,24,25
 277 606 277 606 240.5 589.5 c 128,-1,26
 204 573 204 573 178 540.5 c 128,-1,27
 152 508 152 508 137.5 459 c 128,-1,28
 123 410 123 410 123 345 c 256,29,30
 123 280 123 280 137.5 231 c 128,-1,31
 152 182 152 182 178 149.5 c 128,-1,32
 204 117 204 117 240.5 100.5 c 128,-1,33
 277 84 277 84 322 84 c 0,34,35
 355 84 355 84 385 96 c 128,-1,36
 415 108 415 108 437.5 128.5 c 128,-1,37
 460 149 460 149 473.5 176.5 c 128,-1,38
 487 204 487 204 487 235 c 2,39,-1
 487 256 l 1,40,-1
 342 256 l 1,41,-1
 342 349 l 1,0,-1
EndSplineSet
Validated: 1
EndChar

StartChar: H
Encoding: 72 72 43
Width: 565
GlyphClass: 2
Flags: W
LayerCount: 2
Fore
SplineSet
429 304 m 1,0,-1
 134 304 l 1,1,-1
 134 0 l 1,2,-1
 35 0 l 1,3,-1
 35 692 l 1,4,-1
 134 692 l 1,5,-1
 134 403 l 1,6,-1
 429 403 l 1,7,-1
 429 692 l 1,8,-1
 529 692 l 1,9,-1
 529 0 l 1,10,-1
 429 0 l 1,11,-1
 429 304 l 1,0,-1
EndSplineSet
Validated: 1
EndChar

StartChar: I
Encoding: 73 73 44
Width: 170
GlyphClass: 2
Flags: W
LayerCount: 2
Fore
SplineSet
35 692 m 1,0,-1
 134 692 l 1,1,-1
 134 0 l 1,2,-1
 35 0 l 1,3,-1
 35 692 l 1,0,-1
EndSplineSet
Validated: 1
EndChar

StartChar: J
Encoding: 74 74 45
Width: 492
GlyphClass: 2
Flags: W
LayerCount: 2
Fore
SplineSet
209 -7 m 0,0,1
 177 -7 177 -7 146 1 c 128,-1,2
 115 9 115 9 88 25 c 128,-1,3
 61 41 61 41 39 64 c 128,-1,4
 17 87 17 87 4 116 c 1,5,-1
 78 177 l 1,6,7
 98 138 98 138 133 114.5 c 128,-1,8
 168 91 168 91 211 91 c 0,9,10
 241 91 241 91 267 103.5 c 128,-1,11
 293 116 293 116 313 138 c 128,-1,12
 333 160 333 160 344.5 189 c 128,-1,13
 356 218 356 218 356 250 c 2,14,-1
 356 692 l 1,15,-1
 456 692 l 1,16,-1
 456 250 l 2,17,18
 456 195 456 195 436.5 148 c 128,-1,19
 417 101 417 101 383.5 66.5 c 128,-1,20
 350 32 350 32 305 12.5 c 128,-1,21
 260 -7 260 -7 209 -7 c 0,0,1
EndSplineSet
Validated: 1
EndChar

StartChar: K
Encoding: 75 75 46
Width: 556
GlyphClass: 2
Flags: W
LayerCount: 2
Fore
SplineSet
249 331 m 1,0,-1
 134 182 l 1,1,-1
 134 0 l 1,2,-1
 35 0 l 1,3,-1
 35 692 l 1,4,-1
 134 692 l 1,5,-1
 134 330 l 1,6,-1
 400 692 l 1,7,-1
 527 692 l 1,8,-1
 310 410 l 1,9,-1
 536 0 l 1,10,-1
 418 0 l 1,11,-1
 249 331 l 1,0,-1
EndSplineSet
Validated: 1
EndChar

StartChar: L
Encoding: 76 76 47
Width: 469
GlyphClass: 2
Flags: W
LayerCount: 2
Fore
SplineSet
35 692 m 1,0,-1
 134 692 l 1,1,-1
 134 97 l 1,2,-1
 459 97 l 1,3,-1
 459 0 l 1,4,-1
 35 0 l 1,5,-1
 35 692 l 1,0,-1
EndSplineSet
Validated: 1
EndChar

StartChar: M
Encoding: 77 77 48
Width: 720
GlyphClass: 2
Flags: W
LayerCount: 2
Fore
SplineSet
684 692 m 1,0,-1
 684 0 l 1,1,-1
 584 0 l 1,2,-1
 584 471 l 1,3,-1
 383 0 l 1,4,-1
 335 0 l 1,5,-1
 134 471 l 1,6,-1
 134 0 l 1,7,-1
 35 0 l 1,8,-1
 35 692 l 1,9,-1
 146 692 l 1,10,-1
 359 192 l 1,11,-1
 572 692 l 1,12,-1
 684 692 l 1,0,-1
EndSplineSet
Validated: 1
EndChar

StartChar: N
Encoding: 78 78 49
Width: 580
GlyphClass: 2
Flags: W
LayerCount: 2
Fore
SplineSet
445 182 m 1,0,-1
 445 692 l 1,1,-1
 544 692 l 1,2,-1
 544 0 l 1,3,-1
 440 0 l 1,4,-1
 134 509 l 1,5,-1
 134 0 l 1,6,-1
 35 0 l 1,7,-1
 35 692 l 1,8,-1
 139 692 l 1,9,-1
 445 182 l 1,0,-1
EndSplineSet
Validated: 1
EndChar

StartChar: O
Encoding: 79 79 50
Width: 635
GlyphClass: 2
Flags: W
LayerCount: 2
Fore
SplineSet
316 706 m 256,0,1
 380 706 380 706 434 683 c 128,-1,2
 488 660 488 660 527 614 c 128,-1,3
 566 568 566 568 587.5 500.5 c 128,-1,4
 609 433 609 433 609 345 c 0,5,6
 609 256 609 256 587.5 189 c 128,-1,7
 566 122 566 122 527 77 c 128,-1,8
 488 32 488 32 434 9 c 128,-1,9
 380 -14 380 -14 316 -14 c 256,10,11
 252 -14 252 -14 198.5 9 c 128,-1,12
 145 32 145 32 106 77 c 128,-1,13
 67 122 67 122 45.5 189 c 128,-1,14
 24 256 24 256 24 345 c 0,15,16
 24 433 24 433 45.5 500.5 c 128,-1,17
 67 568 67 568 106 614 c 128,-1,18
 145 660 145 660 198.5 683 c 128,-1,19
 252 706 252 706 316 706 c 256,0,1
316 606 m 0,20,21
 227 606 227 606 175 541 c 128,-1,22
 123 476 123 476 123 345 c 256,23,24
 123 214 123 214 175 149 c 128,-1,25
 227 84 227 84 316 84 c 256,26,27
 405 84 405 84 457.5 149.5 c 128,-1,28
 510 215 510 215 510 345 c 0,29,30
 510 476 510 476 458 541 c 128,-1,31
 406 606 406 606 316 606 c 0,20,21
EndSplineSet
Validated: 1
EndChar

StartChar: P
Encoding: 80 80 51
Width: 536
GlyphClass: 2
Flags: W
LayerCount: 2
Fore
SplineSet
301 692 m 2,0,1
 352 692 352 692 393.5 678.5 c 128,-1,2
 435 665 435 665 464.5 639 c 128,-1,3
 494 613 494 613 510 574 c 128,-1,4
 526 535 526 535 526 483 c 256,5,6
 526 431 526 431 510 392 c 128,-1,7
 494 353 494 353 464.5 326.5 c 128,-1,8
 435 300 435 300 393.5 286.5 c 128,-1,9
 352 273 352 273 301 273 c 2,10,-1
 134 273 l 1,11,-1
 134 0 l 1,12,-1
 35 0 l 1,13,-1
 35 692 l 1,14,-1
 301 692 l 2,0,1
134 367 m 1,15,-1
 303 367 l 2,16,17
 360 367 360 367 395.5 394.5 c 128,-1,18
 431 422 431 422 431 482 c 0,19,20
 431 541 431 541 395 567.5 c 128,-1,21
 359 594 359 594 303 594 c 2,22,-1
 134 594 l 1,23,-1
 134 367 l 1,15,-1
EndSplineSet
Validated: 1
EndChar

StartChar: Q
Encoding: 81 81 52
Width: 634
GlyphClass: 2
Flags: W
LayerCount: 2
Fore
SplineSet
316 706 m 256,0,1
 380 706 380 706 434 683 c 128,-1,2
 488 660 488 660 527 614 c 128,-1,3
 566 568 566 568 587.5 500.5 c 128,-1,4
 609 433 609 433 609 345 c 0,5,6
 609 251 609 251 585 182 c 128,-1,7
 561 113 561 113 518 68 c 1,8,-1
 563 11 l 1,9,-1
 494 -45 l 1,10,-1
 446 16 l 1,11,12
 389 -14 389 -14 316 -14 c 0,13,14
 252 -14 252 -14 198.5 9 c 128,-1,15
 145 32 145 32 106 77 c 128,-1,16
 67 122 67 122 45.5 189 c 128,-1,17
 24 256 24 256 24 345 c 0,18,19
 24 433 24 433 45.5 500.5 c 128,-1,20
 67 568 67 568 106 614 c 128,-1,21
 145 660 145 660 198.5 683 c 128,-1,22
 252 706 252 706 316 706 c 256,0,1
316 606 m 0,23,24
 227 606 227 606 175 541 c 128,-1,25
 123 476 123 476 123 345 c 256,26,27
 123 214 123 214 175 149 c 128,-1,28
 227 84 227 84 316 84 c 0,29,30
 333 84 333 84 351 87.5 c 128,-1,31
 369 91 369 91 382 99 c 1,32,-1
 308 195 l 1,33,-1
 379 249 l 1,34,-1
 454 151 l 1,35,36
 480 183 480 183 495 231 c 128,-1,37
 510 279 510 279 510 345 c 0,38,39
 510 476 510 476 458 541 c 128,-1,40
 406 606 406 606 316 606 c 0,23,24
EndSplineSet
Validated: 1
EndChar

StartChar: R
Encoding: 82 82 53
Width: 563
GlyphClass: 2
Flags: W
LayerCount: 2
Fore
SplineSet
278 273 m 1,0,-1
 134 273 l 1,1,-1
 134 0 l 1,2,-1
 35 0 l 1,3,-1
 35 692 l 1,4,-1
 301 692 l 2,5,6
 352 692 352 692 393.5 679 c 128,-1,7
 435 666 435 666 464.5 640 c 128,-1,8
 494 614 494 614 510 575.5 c 128,-1,9
 526 537 526 537 526 487 c 0,10,11
 526 400 526 400 483.5 351 c 128,-1,12
 441 302 441 302 378 287 c 1,13,-1
 538 0 l 1,14,-1
 420 0 l 1,15,-1
 278 273 l 1,0,-1
134 367 m 1,16,-1
 304 367 l 2,17,18
 360 367 360 367 395.5 394.5 c 128,-1,19
 431 422 431 422 431 482 c 0,20,21
 431 512 431 512 421.5 533 c 128,-1,22
 412 554 412 554 395 567.5 c 128,-1,23
 378 581 378 581 355 587.5 c 128,-1,24
 332 594 332 594 304 594 c 2,25,-1
 134 594 l 1,26,-1
 134 367 l 1,16,-1
EndSplineSet
Validated: 1
EndChar

StartChar: S
Encoding: 83 83 54
Width: 580
GlyphClass: 2
Flags: W
LayerCount: 2
Fore
SplineSet
293 699 m 0,0,1
 371 699 371 699 428.5 672 c 128,-1,2
 486 645 486 645 520 605 c 1,3,-1
 447 538 l 1,4,5
 387 603 387 603 292 603 c 0,6,7
 266 603 266 603 242.5 597.5 c 128,-1,8
 219 592 219 592 201 581.5 c 128,-1,9
 183 571 183 571 172.5 556.5 c 128,-1,10
 162 542 162 542 162 524 c 0,11,12
 162 500 162 500 174.5 483.5 c 128,-1,13
 187 467 187 467 208.5 455 c 128,-1,14
 230 443 230 443 258 434 c 128,-1,15
 286 425 286 425 317 416 c 0,16,17
 362 402 362 402 405 386 c 128,-1,18
 448 370 448 370 481.5 345 c 128,-1,19
 515 320 515 320 535 284 c 128,-1,20
 555 248 555 248 555 194 c 0,21,22
 555 136 555 136 531 97.5 c 128,-1,23
 507 59 507 59 469.5 35.5 c 128,-1,24
 432 12 432 12 386 2 c 128,-1,25
 340 -8 340 -8 296 -8 c 0,26,27
 203 -8 203 -8 131.5 17.5 c 128,-1,28
 60 43 60 43 18 95 c 1,29,-1
 90 162 l 1,30,31
 124 127 124 127 176 106.5 c 128,-1,32
 228 86 228 86 293 86 c 0,33,34
 368 86 368 86 413 114 c 128,-1,35
 458 142 458 142 458 190 c 0,36,37
 458 219 458 219 444 240 c 128,-1,38
 430 261 430 261 408.5 275.5 c 128,-1,39
 387 290 387 290 360.5 300 c 128,-1,40
 334 310 334 310 309 316 c 0,41,42
 270 326 270 326 227 340.5 c 128,-1,43
 184 355 184 355 148 379 c 128,-1,44
 112 403 112 403 89 438 c 128,-1,45
 66 473 66 473 66 524 c 0,46,47
 66 563 66 563 82 595 c 128,-1,48
 98 627 98 627 127.5 650 c 128,-1,49
 157 673 157 673 199 686 c 128,-1,50
 241 699 241 699 293 699 c 0,0,1
EndSplineSet
Validated: 1
EndChar

StartChar: T
Encoding: 84 84 55
Width: 504
GlyphClass: 2
Flags: W
LayerCount: 2
Fore
SplineSet
302 0 m 1,0,-1
 203 0 l 1,1,-1
 203 592 l 1,2,-1
 4 592 l 1,3,-1
 4 692 l 1,4,-1
 498 692 l 1,5,-1
 498 592 l 1,6,-1
 302 592 l 1,7,-1
 302 0 l 1,0,-1
EndSplineSet
Validated: 1
EndChar

StartChar: U
Encoding: 85 85 56
Width: 567
GlyphClass: 2
Flags: W
LayerCount: 2
Fore
SplineSet
133 250 m 2,0,1
 133 218 133 218 144.5 189 c 128,-1,2
 156 160 156 160 176.5 138 c 128,-1,3
 197 116 197 116 224 103.5 c 128,-1,4
 251 91 251 91 282 91 c 256,5,6
 313 91 313 91 340 103.5 c 128,-1,7
 367 116 367 116 387.5 138 c 128,-1,8
 408 160 408 160 420 189 c 128,-1,9
 432 218 432 218 432 250 c 2,10,-1
 432 692 l 1,11,-1
 531 692 l 1,12,-1
 531 250 l 2,13,14
 531 195 531 195 511 148 c 128,-1,15
 491 101 491 101 457.5 66.5 c 128,-1,16
 424 32 424 32 378.5 12.5 c 128,-1,17
 333 -7 333 -7 282 -7 c 256,18,19
 231 -7 231 -7 186 12.5 c 128,-1,20
 141 32 141 32 107.5 66.5 c 128,-1,21
 74 101 74 101 54 148 c 128,-1,22
 34 195 34 195 34 250 c 2,23,-1
 34 692 l 1,24,-1
 133 692 l 1,25,-1
 133 250 l 2,0,1
EndSplineSet
Validated: 1
EndChar

StartChar: V
Encoding: 86 86 57
Width: 591
GlyphClass: 2
Flags: W
LayerCount: 2
Fore
SplineSet
251 0 m 1,0,-1
 4 692 l 1,1,-1
 116 692 l 1,2,-1
 295 157 l 1,3,-1
 475 692 l 1,4,-1
 585 692 l 1,5,-1
 337 0 l 1,6,-1
 251 0 l 1,0,-1
EndSplineSet
Validated: 1
EndChar

StartChar: W
Encoding: 87 87 58
Width: 843
GlyphClass: 2
Flags: W
LayerCount: 2
Fore
SplineSet
186 0 m 1,0,-1
 4 692 l 1,1,-1
 113 692 l 1,2,-1
 237 185 l 1,3,-1
 373 692 l 1,4,-1
 470 692 l 1,5,-1
 606 185 l 1,6,-1
 730 692 l 1,7,-1
 837 692 l 1,8,-1
 655 0 l 1,9,-1
 559 0 l 1,10,-1
 420 498 l 1,11,-1
 281 0 l 1,12,-1
 186 0 l 1,0,-1
EndSplineSet
Validated: 1
EndChar

StartChar: X
Encoding: 88 88 59
Width: 600
GlyphClass: 2
Flags: W
LayerCount: 2
Fore
SplineSet
26 692 m 1,0,-1
 144 692 l 1,1,-1
 303 432 l 1,2,-1
 456 692 l 1,3,-1
 572 692 l 1,4,-1
 353 343 l 1,5,-1
 572 0 l 1,6,-1
 453 0 l 1,7,-1
 295 259 l 1,8,-1
 143 0 l 1,9,-1
 26 0 l 1,10,-1
 243 350 l 1,11,-1
 26 692 l 1,0,-1
EndSplineSet
Validated: 1
EndChar

StartChar: Y
Encoding: 89 89 60
Width: 573
GlyphClass: 2
Flags: W
LayerCount: 2
Fore
SplineSet
335 0 m 1,0,-1
 236 0 l 1,1,-1
 236 214 l 1,2,-1
 4 692 l 1,3,-1
 117 692 l 1,4,-1
 286 330 l 1,5,-1
 455 692 l 1,6,-1
 567 692 l 1,7,-1
 335 213 l 1,8,-1
 335 0 l 1,0,-1
EndSplineSet
Validated: 1
EndChar

StartChar: Z
Encoding: 90 90 61
Width: 500
GlyphClass: 2
Flags: W
LayerCount: 2
Fore
SplineSet
47 692 m 1,0,-1
 478 692 l 1,1,-1
 478 613 l 1,2,-1
 157 92 l 1,3,-1
 478 92 l 1,4,-1
 478 0 l 1,5,-1
 32 0 l 1,6,-1
 32 77 l 1,7,-1
 353 597 l 1,8,-1
 47 597 l 1,9,-1
 47 692 l 1,0,-1
EndSplineSet
Validated: 1
EndChar

StartChar: bracketleft
Encoding: 91 91 62
Width: 216
GlyphClass: 2
Flags: W
LayerCount: 2
Fore
SplineSet
32 691 m 1,0,-1
 192 691 l 1,1,-1
 192 629 l 1,2,-1
 95 629 l 1,3,-1
 95 -109 l 1,4,-1
 200 -109 l 1,5,-1
 200 -170 l 1,6,-1
 32 -170 l 1,7,-1
 32 691 l 1,0,-1
EndSplineSet
Validated: 1
EndChar

StartChar: backslash
Encoding: 92 92 63
Width: 359
GlyphClass: 2
Flags: W
LayerCount: 2
Fore
SplineSet
4 691 m 1,0,-1
 71 691 l 1,1,-1
 353 -74 l 1,2,-1
 286 -74 l 1,3,-1
 4 691 l 1,0,-1
EndSplineSet
Validated: 1
EndChar

StartChar: bracketright
Encoding: 93 93 64
Width: 218
GlyphClass: 2
Flags: W
LayerCount: 2
Fore
SplineSet
183 -170 m 1,0,-1
 14 -170 l 1,1,-1
 14 -109 l 1,2,-1
 120 -109 l 1,3,-1
 120 629 l 1,4,-1
 23 629 l 1,5,-1
 23 691 l 1,6,-1
 183 691 l 1,7,-1
 183 -170 l 1,0,-1
EndSplineSet
Validated: 1
EndChar

StartChar: asciicircum
Encoding: 94 94 65
Width: 359
GlyphClass: 2
Flags: W
LayerCount: 2
Fore
SplineSet
93 355 m 1,0,-1
 28 355 l 1,1,-1
 149 691 l 1,2,-1
 209 691 l 1,3,-1
 329 355 l 1,4,-1
 261 355 l 1,5,-1
 178 600 l 1,6,-1
 93 355 l 1,0,-1
EndSplineSet
Validated: 1
EndChar

StartChar: underscore
Encoding: 95 95 66
Width: 545
GlyphClass: 2
Flags: W
LayerCount: 2
Fore
SplineSet
-2 -79 m 1,0,-1
 -2 1 l 1,1,-1
 547 1 l 1,2,-1
 547 -79 l 1,3,-1
 -2 -79 l 1,0,-1
EndSplineSet
Validated: 1
EndChar

StartChar: grave
Encoding: 96 96 67
Width: 219
GlyphClass: 2
Flags: W
LayerCount: 2
Fore
SplineSet
52 748 m 1,0,-1
 209 602 l 1,1,-1
 178 560 l 1,2,-1
 7 690 l 1,3,-1
 52 748 l 1,0,-1
EndSplineSet
Validated: 1
EndChar

StartChar: a
Encoding: 97 97 68
Width: 477
GlyphClass: 2
Flags: W
LayerCount: 2
Fore
SplineSet
353 51 m 1,0,1
 329 20 329 20 293 3 c 128,-1,2
 257 -14 257 -14 209 -14 c 0,3,4
 175 -14 175 -14 141.5 -3 c 128,-1,5
 108 8 108 8 81.5 30.5 c 128,-1,6
 55 53 55 53 38.5 87 c 128,-1,7
 22 121 22 121 22 168 c 0,8,9
 22 212 22 212 38 244.5 c 128,-1,10
 54 277 54 277 82 298 c 128,-1,11
 110 319 110 319 147.5 329.5 c 128,-1,12
 185 340 185 340 229 340 c 0,13,14
 272 340 272 340 301.5 327.5 c 128,-1,15
 331 315 331 315 349 299 c 1,16,17
 349 336 349 336 344 364.5 c 128,-1,18
 339 393 339 393 326.5 412 c 128,-1,19
 314 431 314 431 291.5 441 c 128,-1,20
 269 451 269 451 235 451 c 0,21,22
 195 451 195 451 162 438 c 128,-1,23
 129 425 129 425 110 411 c 1,24,-1
 67 492 l 1,25,26
 90 513 90 513 135.5 529 c 128,-1,27
 181 545 181 545 244 545 c 0,28,29
 347 545 347 545 394.5 488 c 128,-1,30
 442 431 442 431 442 307 c 2,31,-1
 442 0 l 1,32,-1
 353 0 l 1,33,-1
 353 51 l 1,0,1
349 216 m 1,34,35
 332 236 332 236 299.5 248.5 c 128,-1,36
 267 261 267 261 228 261 c 0,37,38
 174 261 174 261 144.5 238.5 c 128,-1,39
 115 216 115 216 115 168 c 0,40,41
 115 123 115 123 145 99 c 128,-1,42
 175 75 175 75 226 75 c 0,43,44
 247 75 247 75 266.5 81.5 c 128,-1,45
 286 88 286 88 302.5 97.5 c 128,-1,46
 319 107 319 107 331 119.5 c 128,-1,47
 343 132 343 132 349 144 c 1,48,-1
 349 216 l 1,34,35
EndSplineSet
Validated: 1
EndChar

StartChar: b
Encoding: 98 98 69
Width: 499
GlyphClass: 2
Flags: W
LayerCount: 2
Fore
SplineSet
134 481 m 1,0,1
 154 512 154 512 189.5 528.5 c 128,-1,2
 225 545 225 545 270 545 c 0,3,4
 313 545 313 545 350 527 c 128,-1,5
 387 509 387 509 414.5 474 c 128,-1,6
 442 439 442 439 457.5 386.5 c 128,-1,7
 473 334 473 334 473 265 c 0,8,9
 473 197 473 197 457 145 c 128,-1,10
 441 93 441 93 413 58 c 128,-1,11
 385 23 385 23 346.5 4.5 c 128,-1,12
 308 -14 308 -14 263 -14 c 256,13,14
 218 -14 218 -14 179 4.5 c 128,-1,15
 140 23 140 23 124 55 c 1,16,-1
 124 0 l 1,17,-1
 35 0 l 1,18,-1
 35 695 l 1,19,-1
 134 729 l 1,20,-1
 134 481 l 1,0,1
243 450 m 0,21,22
 170 450 170 450 128 355 c 1,23,-1
 128 182 l 1,24,25
 136 162 136 162 147 144 c 128,-1,26
 158 126 158 126 172.5 112 c 128,-1,27
 187 98 187 98 205.5 89.5 c 128,-1,28
 224 81 224 81 247 81 c 0,29,30
 305 81 305 81 340.5 127.5 c 128,-1,31
 376 174 376 174 376 266 c 0,32,33
 376 359 376 359 340 404.5 c 128,-1,34
 304 450 304 450 243 450 c 0,21,22
EndSplineSet
Validated: 1
EndChar

StartChar: c
Encoding: 99 99 70
Width: 461
GlyphClass: 2
Flags: W
LayerCount: 2
Fore
SplineSet
256 447 m 0,0,1
 196 447 196 447 159 401.5 c 128,-1,2
 122 356 122 356 122 265 c 256,3,4
 122 174 122 174 159 128.5 c 128,-1,5
 196 83 196 83 256 83 c 0,6,7
 285 83 285 83 313 100 c 128,-1,8
 341 117 341 117 362 146 c 1,9,-1
 434 82 l 1,10,11
 421 64 421 64 403 46.5 c 128,-1,12
 385 29 385 29 362 15.5 c 128,-1,13
 339 2 339 2 311 -6 c 128,-1,14
 283 -14 283 -14 250 -14 c 0,15,16
 202 -14 202 -14 161 4 c 128,-1,17
 120 22 120 22 89.5 57 c 128,-1,18
 59 92 59 92 41.5 144 c 128,-1,19
 24 196 24 196 24 265 c 256,20,21
 24 334 24 334 41.5 386.5 c 128,-1,22
 59 439 59 439 90.5 474 c 128,-1,23
 122 509 122 509 165.5 527 c 128,-1,24
 209 545 209 545 261 545 c 0,25,26
 322 545 322 545 369 517.5 c 128,-1,27
 416 490 416 490 440 441 c 1,28,-1
 364 372 l 1,29,30
 346 411 346 411 320 429 c 128,-1,31
 294 447 294 447 256 447 c 0,0,1
EndSplineSet
Validated: 1
EndChar

StartChar: d
Encoding: 100 100 71
Width: 485
GlyphClass: 2
Flags: W
LayerCount: 2
Fore
SplineSet
449 0 m 1,0,-1
 360 0 l 1,1,-1
 360 55 l 1,2,3
 347 25 347 25 308.5 5.5 c 128,-1,4
 270 -14 270 -14 224 -14 c 0,5,6
 180 -14 180 -14 143.5 4 c 128,-1,7
 107 22 107 22 80.5 57.5 c 128,-1,8
 54 93 54 93 39 145 c 128,-1,9
 24 197 24 197 24 265 c 0,10,11
 24 334 24 334 38.5 386.5 c 128,-1,12
 53 439 53 439 79.5 474 c 128,-1,13
 106 509 106 509 142.5 527 c 128,-1,14
 179 545 179 545 223 545 c 0,15,16
 268 545 268 545 300 528 c 128,-1,17
 332 511 332 511 350 481 c 1,18,-1
 350 695 l 1,19,-1
 449 729 l 1,20,-1
 449 0 l 1,0,-1
244 450 m 0,21,22
 183 450 183 450 150.5 404.5 c 128,-1,23
 118 359 118 359 118 266 c 0,24,25
 118 175 118 175 150 128 c 128,-1,26
 182 81 182 81 240 81 c 0,27,28
 285 81 285 81 313.5 109.5 c 128,-1,29
 342 138 342 138 356 182 c 1,30,-1
 356 355 l 1,31,32
 339 406 339 406 309.5 428 c 128,-1,33
 280 450 280 450 244 450 c 0,21,22
EndSplineSet
Validated: 1
EndChar

StartChar: e
Encoding: 101 101 72
Width: 498
GlyphClass: 2
Flags: W
LayerCount: 2
Fore
SplineSet
248 545 m 0,0,1
 297 545 297 545 338 526.5 c 128,-1,2
 379 508 379 508 408.5 472.5 c 128,-1,3
 438 437 438 437 454.5 386 c 128,-1,4
 471 335 471 335 471 270 c 0,5,6
 471 253 471 253 466 235 c 1,7,-1
 121 235 l 1,8,9
 126 160 126 160 163 119.5 c 128,-1,10
 200 79 200 79 259 79 c 0,11,12
 293 79 293 79 321.5 92.5 c 128,-1,13
 350 106 350 106 370 129 c 1,14,-1
 433 73 l 1,15,16
 407 35 407 35 358 10.5 c 128,-1,17
 309 -14 309 -14 253 -14 c 0,18,19
 204 -14 204 -14 162 4 c 128,-1,20
 120 22 120 22 89.5 57 c 128,-1,21
 59 92 59 92 41.5 144 c 128,-1,22
 24 196 24 196 24 265 c 256,23,24
 24 334 24 334 40 386.5 c 128,-1,25
 56 439 56 439 85.5 474 c 128,-1,26
 115 509 115 509 156.5 527 c 128,-1,27
 198 545 198 545 248 545 c 0,0,1
248 453 m 0,28,29
 195 453 195 453 163 417.5 c 128,-1,30
 131 382 131 382 124 313 c 1,31,-1
 371 313 l 1,32,33
 364 382 364 382 332 417.5 c 128,-1,34
 300 453 300 453 248 453 c 0,28,29
EndSplineSet
Validated: 1
EndChar

StartChar: f
Encoding: 102 102 73
Width: 234
GlyphClass: 2
Flags: W
LayerCount: 2
Fore
SplineSet
51 531 m 1,0,-1
 51 596 l 2,1,2
 51 659 51 659 79.5 692 c 128,-1,3
 108 725 108 725 165 725 c 0,4,5
 199 725 199 725 229 714 c 1,6,-1
 229 628 l 1,7,8
 212 637 212 637 188 637 c 0,9,10
 169 637 169 637 160 626.5 c 128,-1,11
 151 616 151 616 151 590 c 2,12,-1
 151 531 l 1,13,-1
 229 531 l 1,14,-1
 229 447 l 1,15,-1
 151 447 l 1,16,-1
 151 0 l 1,17,-1
 51 0 l 1,18,-1
 51 447 l 1,19,-1
 1 447 l 1,20,-1
 1 531 l 1,21,-1
 51 531 l 1,0,-1
EndSplineSet
Validated: 1
EndChar

StartChar: g
Encoding: 103 103 74
Width: 493
GlyphClass: 2
Flags: W
LayerCount: 2
Fore
SplineSet
235 9 m 0,0,1
 187 9 187 9 148.5 25.5 c 128,-1,2
 110 42 110 42 82 75 c 128,-1,3
 54 108 54 108 39 158 c 128,-1,4
 24 208 24 208 24 275 c 256,5,6
 24 342 24 342 40 392.5 c 128,-1,7
 56 443 56 443 83.5 477 c 128,-1,8
 111 511 111 511 148 528 c 128,-1,9
 185 545 185 545 227 545 c 256,10,11
 269 545 269 545 305.5 528.5 c 128,-1,12
 342 512 342 512 363 481 c 1,13,-1
 363 531 l 1,14,-1
 457 531 l 1,15,-1
 457 109 l 2,16,17
 457 55 457 55 445 6 c 128,-1,18
 433 -43 433 -43 405 -82.5 c 128,-1,19
 377 -122 377 -122 331 -150.5 c 128,-1,20
 285 -179 285 -179 216 -192 c 1,21,-1
 198 -106 l 1,22,23
 234 -96 234 -96 265 -79 c 128,-1,24
 296 -62 296 -62 318 -38.5 c 128,-1,25
 340 -15 340 -15 352.5 14 c 128,-1,26
 365 43 365 43 365 76 c 1,27,28
 340 42 340 42 306 25.5 c 128,-1,29
 272 9 272 9 235 9 c 0,0,1
248 103 m 0,30,31
 321 103 321 103 363 192 c 1,32,-1
 363 357 l 1,33,34
 347 396 347 396 318.5 425.5 c 128,-1,35
 290 455 290 455 245 455 c 0,36,37
 187 455 187 455 152.5 411 c 128,-1,38
 118 367 118 367 118 278 c 0,39,40
 118 188 118 188 153 145.5 c 128,-1,41
 188 103 188 103 248 103 c 0,30,31
EndSplineSet
Validated: 1
EndChar

StartChar: h
Encoding: 104 104 75
Width: 462
GlyphClass: 2
Flags: W
LayerCount: 2
Fore
SplineSet
343 322 m 2,0,1
 343 382 343 382 319.5 412.5 c 128,-1,2
 296 443 296 443 252 443 c 0,3,4
 212 443 212 443 182 423 c 128,-1,5
 152 403 152 403 131 354 c 1,6,-1
 131 0 l 1,7,-1
 32 0 l 1,8,-1
 32 695 l 1,9,-1
 131 729 l 1,10,-1
 131 480 l 1,11,12
 157 514 157 514 192.5 529.5 c 128,-1,13
 228 545 228 545 271 545 c 0,14,15
 307 545 307 545 338 532 c 128,-1,16
 369 519 369 519 392.5 493.5 c 128,-1,17
 416 468 416 468 429 430 c 128,-1,18
 442 392 442 392 442 341 c 2,19,-1
 442 0 l 1,20,-1
 343 0 l 1,21,-1
 343 322 l 2,0,1
EndSplineSet
Validated: 1
EndChar

StartChar: i
Encoding: 105 105 76
Width: 173
GlyphClass: 2
Flags: W
LayerCount: 2
Fore
SplineSet
135 531 m 1,0,-1
 135 0 l 1,1,-1
 35 0 l 1,2,-1
 35 531 l 1,3,-1
 135 531 l 1,0,-1
33 662 m 0,4,5
 33 684 33 684 47.5 700 c 128,-1,6
 62 716 62 716 84 716 c 256,7,8
 106 716 106 716 121.5 700 c 128,-1,9
 137 684 137 684 137 662 c 0,10,11
 137 641 137 641 121.5 626 c 128,-1,12
 106 611 106 611 84 611 c 256,13,14
 62 611 62 611 47.5 626 c 128,-1,15
 33 641 33 641 33 662 c 0,4,5
EndSplineSet
Validated: 1
EndChar

StartChar: j
Encoding: 106 106 77
Width: 196
GlyphClass: 2
Flags: W
LayerCount: 2
Fore
SplineSet
158 531 m 1,0,-1
 158 -3 l 2,1,2
 158 -39 158 -39 147.5 -70.5 c 128,-1,3
 137 -102 137 -102 117 -125.5 c 128,-1,4
 97 -149 97 -149 67 -163 c 128,-1,5
 37 -177 37 -177 -3 -177 c 1,6,-1
 -3 -74 l 1,7,8
 26 -74 26 -74 42 -55.5 c 128,-1,9
 58 -37 58 -37 58 -3 c 2,10,-1
 58 531 l 1,11,-1
 158 531 l 1,0,-1
107 716 m 256,12,13
 129 716 129 716 144.5 700 c 128,-1,14
 160 684 160 684 160 662 c 256,15,16
 160 640 160 640 144.5 625.5 c 128,-1,17
 129 611 129 611 107 611 c 256,18,19
 85 611 85 611 70.5 625.5 c 128,-1,20
 56 640 56 640 56 662 c 256,21,22
 56 684 56 684 70.5 700 c 128,-1,23
 85 716 85 716 107 716 c 256,12,13
EndSplineSet
Validated: 1
EndChar

StartChar: k
Encoding: 107 107 78
Width: 452
GlyphClass: 2
Flags: W
LayerCount: 2
Fore
SplineSet
329 0 m 1,0,-1
 205 273 l 1,1,-1
 134 182 l 1,2,-1
 134 0 l 1,3,-1
 35 0 l 1,4,-1
 35 695 l 1,5,-1
 134 729 l 1,6,-1
 134 329 l 1,7,-1
 279 531 l 1,8,-1
 407 531 l 1,9,-1
 267 352 l 1,10,-1
 447 0 l 1,11,-1
 329 0 l 1,0,-1
EndSplineSet
Validated: 1
EndChar

StartChar: l
Encoding: 108 108 79
Width: 170
GlyphClass: 2
Flags: W
LayerCount: 2
Fore
SplineSet
35 695 m 1,0,-1
 134 729 l 1,1,-1
 134 0 l 1,2,-1
 35 0 l 1,3,-1
 35 695 l 1,0,-1
EndSplineSet
Validated: 1
EndChar

StartChar: m
Encoding: 109 109 80
Width: 755
GlyphClass: 2
Flags: W
LayerCount: 2
Fore
SplineSet
129 531 m 1,0,-1
 129 480 l 1,1,2
 157 514 157 514 190.5 529.5 c 128,-1,3
 224 545 224 545 264 545 c 0,4,5
 352 545 352 545 390 462 c 1,6,7
 410 496 410 496 447 520.5 c 128,-1,8
 484 545 484 545 534 545 c 0,9,10
 620 545 620 545 670 495 c 128,-1,11
 720 445 720 445 720 345 c 2,12,-1
 720 0 l 1,13,-1
 621 0 l 1,14,-1
 621 322 l 2,15,16
 621 390 621 390 599 418.5 c 128,-1,17
 577 447 577 447 529 447 c 0,18,19
 487 447 487 447 462.5 416.5 c 128,-1,20
 438 386 438 386 427 338 c 1,21,-1
 427 0 l 1,22,-1
 327 0 l 1,23,-1
 327 322 l 2,24,25
 327 390 327 390 305.5 418.5 c 128,-1,26
 284 447 284 447 236 447 c 0,27,28
 201 447 201 447 177.5 424 c 128,-1,29
 154 401 154 401 134 354 c 1,30,-1
 134 0 l 1,31,-1
 35 0 l 1,32,-1
 35 531 l 1,33,-1
 129 531 l 1,0,-1
EndSplineSet
Validated: 1
EndChar

StartChar: n
Encoding: 110 110 81
Width: 480
GlyphClass: 2
Flags: W
LayerCount: 2
Fore
SplineSet
346 322 m 2,0,1
 346 388 346 388 319.5 417.5 c 128,-1,2
 293 447 293 447 245 447 c 0,3,4
 174 447 174 447 134 354 c 1,5,-1
 134 0 l 1,6,-1
 35 0 l 1,7,-1
 35 531 l 1,8,-1
 129 531 l 1,9,-1
 129 480 l 1,10,11
 158 514 158 514 195.5 529.5 c 128,-1,12
 233 545 233 545 274 545 c 0,13,14
 310 545 310 545 341 532 c 128,-1,15
 372 519 372 519 395.5 493.5 c 128,-1,16
 419 468 419 468 432 430 c 128,-1,17
 445 392 445 392 445 341 c 2,18,-1
 445 0 l 1,19,-1
 346 0 l 1,20,-1
 346 322 l 2,0,1
EndSplineSet
Validated: 1
EndChar

StartChar: o
Encoding: 111 111 82
Width: 504
GlyphClass: 2
Flags: W
LayerCount: 2
Fore
SplineSet
251 545 m 0,0,1
 300 545 300 545 342 527 c 128,-1,2
 384 509 384 509 414 474 c 128,-1,3
 444 439 444 439 461 386.5 c 128,-1,4
 478 334 478 334 478 265 c 256,5,6
 478 196 478 196 461 144 c 128,-1,7
 444 92 444 92 414 57 c 128,-1,8
 384 22 384 22 342 4 c 128,-1,9
 300 -14 300 -14 251 -14 c 0,10,11
 201 -14 201 -14 159.5 4 c 128,-1,12
 118 22 118 22 88 57 c 128,-1,13
 58 92 58 92 41 144 c 128,-1,14
 24 196 24 196 24 265 c 256,15,16
 24 334 24 334 41 386.5 c 128,-1,17
 58 439 58 439 88 474 c 128,-1,18
 118 509 118 509 159.5 527 c 128,-1,19
 201 545 201 545 251 545 c 0,0,1
251 447 m 256,20,21
 191 447 191 447 156.5 401.5 c 128,-1,22
 122 356 122 356 122 265 c 256,23,24
 122 174 122 174 156.5 128.5 c 128,-1,25
 191 83 191 83 251 83 c 256,26,27
 311 83 311 83 346 128.5 c 128,-1,28
 381 174 381 174 381 265 c 256,29,30
 381 356 381 356 346 401.5 c 128,-1,31
 311 447 311 447 251 447 c 256,20,21
EndSplineSet
Validated: 1
EndChar

StartChar: p
Encoding: 112 112 83
Width: 486
GlyphClass: 2
Flags: W
LayerCount: 2
Fore
SplineSet
34 531 m 1,0,-1
 123 531 l 1,1,-1
 123 476 l 1,2,3
 137 506 137 506 175 525.5 c 128,-1,4
 213 545 213 545 259 545 c 0,5,6
 302 545 302 545 339 527 c 128,-1,7
 376 509 376 509 403 473.5 c 128,-1,8
 430 438 430 438 445 386 c 128,-1,9
 460 334 460 334 460 266 c 0,10,11
 460 197 460 197 445.5 144.5 c 128,-1,12
 431 92 431 92 404.5 57 c 128,-1,13
 378 22 378 22 341.5 4 c 128,-1,14
 305 -14 305 -14 261 -14 c 0,15,16
 215 -14 215 -14 183 3 c 128,-1,17
 151 20 151 20 133 50 c 1,18,-1
 133 -159 l 1,19,-1
 34 -192 l 1,20,-1
 34 531 l 1,0,-1
239 81 m 0,21,22
 300 81 300 81 332.5 126.5 c 128,-1,23
 365 172 365 172 365 265 c 0,24,25
 365 356 365 356 333 403 c 128,-1,26
 301 450 301 450 243 450 c 0,27,28
 198 450 198 450 168 420 c 128,-1,29
 138 390 138 390 127 349 c 1,30,-1
 127 176 l 1,31,32
 141 129 141 129 172.5 105 c 128,-1,33
 204 81 204 81 239 81 c 0,21,22
EndSplineSet
Validated: 1
EndChar

StartChar: q
Encoding: 113 113 84
Width: 498
GlyphClass: 2
Flags: W
LayerCount: 2
Fore
SplineSet
363 50 m 1,0,1
 343 19 343 19 307.5 2.5 c 128,-1,2
 272 -14 272 -14 227 -14 c 0,3,4
 184 -14 184 -14 147 4 c 128,-1,5
 110 22 110 22 82.5 57 c 128,-1,6
 55 92 55 92 39.5 144.5 c 128,-1,7
 24 197 24 197 24 266 c 0,8,9
 24 333 24 333 40 385.5 c 128,-1,10
 56 438 56 438 84 473 c 128,-1,11
 112 508 112 508 150.5 526.5 c 128,-1,12
 189 545 189 545 234 545 c 256,13,14
 279 545 279 545 318 526.5 c 128,-1,15
 357 508 357 508 373 476 c 1,16,-1
 373 531 l 1,17,-1
 462 531 l 1,18,-1
 462 -159 l 1,19,-1
 363 -192 l 1,20,-1
 363 50 l 1,0,1
254 81 m 0,21,22
 290 81 290 81 321 104.5 c 128,-1,23
 352 128 352 128 369 176 c 1,24,-1
 369 349 l 1,25,26
 358 393 358 393 327 421.5 c 128,-1,27
 296 450 296 450 250 450 c 0,28,29
 192 450 192 450 157 403.5 c 128,-1,30
 122 357 122 357 122 265 c 0,31,32
 122 172 122 172 157.5 126.5 c 128,-1,33
 193 81 193 81 254 81 c 0,21,22
EndSplineSet
Validated: 1
EndChar

StartChar: r
Encoding: 114 114 85
Width: 317
GlyphClass: 2
Flags: W
LayerCount: 2
Fore
SplineSet
129 531 m 1,0,-1
 129 480 l 1,1,2
 145 511 145 511 177.5 528 c 128,-1,3
 210 545 210 545 247 545 c 0,4,5
 268 545 268 545 288 539 c 128,-1,6
 308 533 308 533 322 519 c 1,7,-1
 286 430 l 1,8,9
 257 450 257 450 229 450 c 0,10,11
 166 450 166 450 134 354 c 1,12,-1
 134 0 l 1,13,-1
 35 0 l 1,14,-1
 35 531 l 1,15,-1
 129 531 l 1,0,-1
EndSplineSet
Validated: 1
EndChar

StartChar: s
Encoding: 115 115 86
Width: 452
GlyphClass: 2
Flags: W
LayerCount: 2
Fore
SplineSet
222 548 m 0,0,1
 278 548 278 548 321 534 c 128,-1,2
 364 520 364 520 397 489 c 1,3,-1
 355 409 l 1,4,5
 344 422 344 422 326.5 431 c 128,-1,6
 309 440 309 440 289.5 446 c 128,-1,7
 270 452 270 452 251 454.5 c 128,-1,8
 232 457 232 457 218 457 c 0,9,10
 181 457 181 457 157.5 443.5 c 128,-1,11
 134 430 134 430 134 404 c 0,12,13
 134 390 134 390 150 377.5 c 128,-1,14
 166 365 166 365 185 355 c 0,15,16
 217 338 217 338 257 325.5 c 128,-1,17
 297 313 297 313 333 295 c 0,18,19
 353 285 353 285 370.5 272 c 128,-1,20
 388 259 388 259 401 242 c 128,-1,21
 414 225 414 225 421.5 202.5 c 128,-1,22
 429 180 429 180 429 151 c 0,23,24
 429 103 429 103 410.5 72 c 128,-1,25
 392 41 392 41 363 22 c 128,-1,26
 334 3 334 3 297.5 -4.5 c 128,-1,27
 261 -12 261 -12 224 -12 c 0,28,29
 155 -12 155 -12 103 5 c 128,-1,30
 51 22 51 22 10 53 c 1,31,-1
 51 134 l 1,32,33
 81 109 81 109 127 94.5 c 128,-1,34
 173 80 173 80 221 80 c 0,35,36
 239 80 239 80 258.5 83 c 128,-1,37
 278 86 278 86 293.5 93 c 128,-1,38
 309 100 309 100 319.5 112 c 128,-1,39
 330 124 330 124 330 142 c 0,40,41
 330 165 330 165 312.5 180 c 128,-1,42
 295 195 295 195 272 209 c 0,43,44
 255 218 255 218 234.5 226 c 128,-1,45
 214 234 214 234 192.5 241.5 c 128,-1,46
 171 249 171 249 148.5 257.5 c 128,-1,47
 126 266 126 266 107 278 c 0,48,49
 76 297 76 297 55.5 325.5 c 128,-1,50
 35 354 35 354 35 401 c 0,51,52
 35 444 35 444 52.5 472 c 128,-1,53
 70 500 70 500 97.5 517 c 128,-1,54
 125 534 125 534 158 541 c 128,-1,55
 191 548 191 548 222 548 c 0,0,1
EndSplineSet
Validated: 1
EndChar

StartChar: t
Encoding: 116 116 87
Width: 297
GlyphClass: 2
Flags: W
LayerCount: 2
Fore
SplineSet
184 -1 m 0,0,1
 163 -1 163 -1 142 7 c 128,-1,2
 121 15 121 15 104.5 30.5 c 128,-1,3
 88 46 88 46 78 69 c 128,-1,4
 68 92 68 92 68 123 c 2,5,-1
 68 447 l 1,6,-1
 3 447 l 1,7,-1
 3 531 l 1,8,-1
 68 531 l 1,9,-1
 68 680 l 1,10,-1
 168 714 l 1,11,-1
 168 531 l 1,12,-1
 275 531 l 1,13,-1
 275 447 l 1,14,-1
 168 447 l 1,15,-1
 168 141 l 2,16,17
 168 120 168 120 183 108 c 128,-1,18
 198 96 198 96 217 96 c 256,19,20
 236 96 236 96 257 105 c 128,-1,21
 278 114 278 114 294 132 c 1,22,-1
 273 25 l 1,23,24
 262 14 262 14 237.5 6.5 c 128,-1,25
 213 -1 213 -1 184 -1 c 0,0,1
EndSplineSet
Validated: 1
EndChar

StartChar: u
Encoding: 117 117 88
Width: 470
GlyphClass: 2
Flags: W
LayerCount: 2
Fore
SplineSet
133 242 m 2,0,1
 133 161 133 161 154.5 122.5 c 128,-1,2
 176 84 176 84 230 84 c 0,3,4
 265 84 265 84 290 107 c 128,-1,5
 315 130 315 130 335 177 c 1,6,-1
 335 531 l 1,7,-1
 434 531 l 1,8,-1
 434 0 l 1,9,-1
 340 0 l 1,10,-1
 340 51 l 1,11,12
 314 17 314 17 279 1.5 c 128,-1,13
 244 -14 244 -14 206 -14 c 0,14,15
 170 -14 170 -14 138.5 -1.5 c 128,-1,16
 107 11 107 11 84 36.5 c 128,-1,17
 61 62 61 62 47.5 100.5 c 128,-1,18
 34 139 34 139 34 190 c 2,19,-1
 34 531 l 1,20,-1
 133 531 l 1,21,-1
 133 242 l 2,0,1
EndSplineSet
Validated: 1
EndChar

StartChar: v
Encoding: 118 118 89
Width: 476
GlyphClass: 2
Flags: W
LayerCount: 2
Fore
SplineSet
196 0 m 1,0,-1
 4 531 l 1,1,-1
 114 531 l 1,2,-1
 239 157 l 1,3,-1
 363 531 l 1,4,-1
 470 531 l 1,5,-1
 280 0 l 1,6,-1
 196 0 l 1,0,-1
EndSplineSet
Validated: 1
EndChar

StartChar: w
Encoding: 119 119 90
Width: 688
GlyphClass: 2
Flags: W
LayerCount: 2
Fore
SplineSet
154 0 m 1,0,-1
 4 531 l 1,1,-1
 112 531 l 1,2,-1
 200 179 l 1,3,-1
 299 531 l 1,4,-1
 390 531 l 1,5,-1
 488 179 l 1,6,-1
 576 531 l 1,7,-1
 682 531 l 1,8,-1
 532 0 l 1,9,-1
 444 0 l 1,10,-1
 342 341 l 1,11,-1
 241 0 l 1,12,-1
 154 0 l 1,0,-1
EndSplineSet
Validated: 1
EndChar

StartChar: x
Encoding: 120 120 91
Width: 513
GlyphClass: 2
Flags: W
LayerCount: 2
Fore
SplineSet
38 531 m 1,0,-1
 159 531 l 1,1,-1
 262 365 l 1,2,-1
 355 531 l 1,3,-1
 476 531 l 1,4,-1
 311 273 l 1,5,-1
 488 0 l 1,6,-1
 365 0 l 1,7,-1
 252 186 l 1,8,-1
 146 0 l 1,9,-1
 25 0 l 1,10,-1
 201 280 l 1,11,-1
 38 531 l 1,0,-1
EndSplineSet
Validated: 1
EndChar

StartChar: y
Encoding: 121 121 92
Width: 477
GlyphClass: 2
Flags: W
LayerCount: 2
Fore
SplineSet
211 -192 m 1,0,-1
 107 -192 l 1,1,-1
 185 28 l 1,2,-1
 4 531 l 1,3,-1
 114 531 l 1,4,-1
 239 157 l 1,5,-1
 363 531 l 1,6,-1
 471 531 l 1,7,-1
 211 -192 l 1,0,-1
EndSplineSet
Validated: 1
EndChar

StartChar: z
Encoding: 122 122 93
Width: 478
GlyphClass: 2
Flags: W
LayerCount: 2
Fore
SplineSet
53 531 m 1,0,-1
 453 531 l 1,1,-1
 453 451 l 1,2,-1
 167 95 l 1,3,-1
 453 95 l 1,4,-1
 453 0 l 1,5,-1
 31 0 l 1,6,-1
 31 79 l 1,7,-1
 317 434 l 1,8,-1
 53 434 l 1,9,-1
 53 531 l 1,0,-1
EndSplineSet
Validated: 1
EndChar

StartChar: braceleft
Encoding: 123 123 94
Width: 304
GlyphClass: 2
Flags: W
LayerCount: 2
Fore
SplineSet
241 692 m 0,0,1
 250 692 250 692 259 692 c 128,-1,2
 268 692 268 692 277 691 c 1,3,-1
 277 632 l 1,4,5
 242 632 242 632 223 621.5 c 128,-1,6
 204 611 204 611 195 591.5 c 128,-1,7
 186 572 186 572 184 543 c 128,-1,8
 182 514 182 514 182 478 c 0,9,10
 182 405 182 405 157.5 350.5 c 128,-1,11
 133 296 133 296 77 261 c 1,12,13
 136 226 136 226 159 172.5 c 128,-1,14
 182 119 182 119 182 44 c 0,15,16
 182 8 182 8 184 -21 c 128,-1,17
 186 -50 186 -50 195 -69.5 c 128,-1,18
 204 -89 204 -89 223 -99.5 c 128,-1,19
 242 -110 242 -110 277 -110 c 1,20,-1
 277 -169 l 1,21,22
 268 -170 268 -170 259 -170.5 c 128,-1,23
 250 -171 250 -171 241 -171 c 0,24,25
 195 -171 195 -171 170.5 -150.5 c 128,-1,26
 146 -130 146 -130 134.5 -98.5 c 128,-1,27
 123 -67 123 -67 121 -29.5 c 128,-1,28
 119 8 119 8 119 43 c 0,29,30
 119 124 119 124 91.5 170 c 128,-1,31
 64 216 64 216 7 236 c 1,32,-1
 7 289 l 1,33,34
 64 309 64 309 91.5 353.5 c 128,-1,35
 119 398 119 398 119 479 c 0,36,37
 119 513 119 513 121 551 c 128,-1,38
 123 589 123 589 134.5 620 c 128,-1,39
 146 651 146 651 170.5 671.5 c 128,-1,40
 195 692 195 692 241 692 c 0,0,1
EndSplineSet
Validated: 1
EndChar

StartChar: bar
Encoding: 124 124 95
Width: 132
GlyphClass: 2
Flags: W
LayerCount: 2
Fore
SplineSet
32 691 m 1,0,-1
 95 691 l 1,1,-1
 95 -170 l 1,2,-1
 32 -170 l 1,3,-1
 32 691 l 1,0,-1
EndSplineSet
Validated: 1
EndChar

StartChar: braceright
Encoding: 125 125 96
Width: 303
GlyphClass: 2
Flags: W
LayerCount: 2
Fore
SplineSet
60 692 m 0,0,1
 106 692 106 692 130.5 671.5 c 128,-1,2
 155 651 155 651 166.5 620 c 128,-1,3
 178 589 178 589 180 551 c 128,-1,4
 182 513 182 513 182 479 c 0,5,6
 182 398 182 398 209.5 353.5 c 128,-1,7
 237 309 237 309 294 289 c 1,8,-1
 294 236 l 1,9,10
 237 216 237 216 209.5 170 c 128,-1,11
 182 124 182 124 182 43 c 0,12,13
 182 8 182 8 180 -29.5 c 128,-1,14
 178 -67 178 -67 166.5 -98.5 c 128,-1,15
 155 -130 155 -130 130.5 -150.5 c 128,-1,16
 106 -171 106 -171 60 -171 c 0,17,18
 51 -171 51 -171 42 -170.5 c 128,-1,19
 33 -170 33 -170 24 -169 c 1,20,-1
 24 -110 l 1,21,22
 59 -110 59 -110 78 -99.5 c 128,-1,23
 97 -89 97 -89 106 -69.5 c 128,-1,24
 115 -50 115 -50 117 -21 c 128,-1,25
 119 8 119 8 119 44 c 0,26,27
 119 119 119 119 142 172.5 c 128,-1,28
 165 226 165 226 224 261 c 1,29,30
 168 296 168 296 143.5 350.5 c 128,-1,31
 119 405 119 405 119 478 c 0,32,33
 119 514 119 514 117 543 c 128,-1,34
 115 572 115 572 106 591.5 c 128,-1,35
 97 611 97 611 78 621.5 c 128,-1,36
 59 632 59 632 24 632 c 1,37,-1
 24 691 l 1,38,39
 33 692 33 692 42 692 c 128,-1,40
 51 692 51 692 60 692 c 0,0,1
EndSplineSet
Validated: 1
EndChar

StartChar: asciitilde
Encoding: 126 126 97
Width: 512
GlyphClass: 2
Flags: W
LayerCount: 2
Fore
SplineSet
157 413 m 0,0,1
 193 413 193 413 218.5 400.5 c 128,-1,2
 244 388 244 388 265.5 373 c 128,-1,3
 287 358 287 358 307 345.5 c 128,-1,4
 327 333 327 333 350 333 c 0,5,6
 379 333 379 333 398.5 349.5 c 128,-1,7
 418 366 418 366 432 390 c 1,8,-1
 482 353 l 1,9,10
 459 314 459 314 423.5 292.5 c 128,-1,11
 388 271 388 271 350 271 c 0,12,13
 318 271 318 271 293 283.5 c 128,-1,14
 268 296 268 296 246 311 c 128,-1,15
 224 326 224 326 202.5 338.5 c 128,-1,16
 181 351 181 351 156 351 c 0,17,18
 130 351 130 351 111 336 c 128,-1,19
 92 321 92 321 78 298 c 1,20,-1
 28 335 l 1,21,22
 51 374 51 374 85 393.5 c 128,-1,23
 119 413 119 413 157 413 c 0,0,1
EndSplineSet
Validated: 1
EndChar

StartChar: exclamdown
Encoding: 161 161 99
Width: 1500
GlyphClass: 2
Flags: W
LayerCount: 2
Fore
SplineSet
721 329 m 25,0,-1
 779 329 l 25,1,-1
 779 272 l 25,2,-1
 721 272 l 25,3,-1
 721 329 l 25,0,-1
721 -12 m 29,4,-1
 779 -12 l 29,5,-1
 779 -70 l 29,6,-1
 721 -70 l 29,7,-1
 721 -12 l 29,4,-1
721 670 m 25,8,-1
 779 670 l 25,9,-1
 779 612 l 25,10,-1
 721 612 l 25,11,-1
 721 670 l 25,8,-1
1065 329 m 25,12,-1
 1123 329 l 25,13,-1
 1123 272 l 25,14,-1
 1065 272 l 25,15,-1
 1065 329 l 25,12,-1
290 74 m 25,16,-1
 523 74 l 25,17,-1
 523 -157 l 25,18,-1
 290 -157 l 25,19,-1
 290 74 l 25,16,-1
377 329 m 25,20,-1
 436 329 l 25,21,-1
 436 272 l 25,22,-1
 377 272 l 25,23,-1
 377 329 l 25,20,-1
290 74 m 25,24,-1
 523 74 l 25,25,-1
 523 -157 l 25,26,-1
 290 -157 l 25,27,-1
 290 74 l 25,24,-1
978 74 m 25,28,-1
 1210 74 l 25,29,-1
 1210 -156 l 25,30,-1
 978 -156 l 25,31,-1
 978 74 l 25,28,-1
978 756 m 25,32,-1
 1210 756 l 25,33,-1
 1210 526 l 25,34,-1
 978 526 l 25,35,-1
 978 756 l 25,32,-1
290 756 m 1,36,-1
 523 756 l 25,37,-1
 523 526 l 25,38,-1
 290 526 l 25,39,-1
 290 756 l 1,36,-1
EndSplineSet
Validated: 5
EndChar

StartChar: cent
Encoding: 162 162 100
Width: 1500
GlyphClass: 2
Flags: W
LayerCount: 2
Fore
SplineSet
634 416 m 25,0,-1
 866 416 l 25,1,-1
 866 185 l 25,2,-1
 634 185 l 25,3,-1
 634 416 l 25,0,-1
634 74 m 25,4,-1
 866 74 l 25,5,-1
 866 -156 l 25,6,-1
 634 -156 l 25,7,-1
 634 74 l 25,4,-1
634 756 m 25,8,-1
 866 756 l 25,9,-1
 866 526 l 25,10,-1
 634 526 l 25,11,-1
 634 756 l 25,8,-1
978 416 m 25,12,-1
 1210 416 l 25,13,-1
 1210 185 l 25,14,-1
 978 185 l 25,15,-1
 978 416 l 25,12,-1
290 74 m 25,16,-1
 523 74 l 25,17,-1
 523 -157 l 25,18,-1
 290 -157 l 25,19,-1
 290 74 l 25,16,-1
290 416 m 25,20,-1
 523 416 l 25,21,-1
 523 185 l 25,22,-1
 290 185 l 25,23,-1
 290 416 l 25,20,-1
290 74 m 25,24,-1
 523 74 l 25,25,-1
 523 -157 l 25,26,-1
 290 -157 l 25,27,-1
 290 74 l 25,24,-1
978 74 m 29,28,-1
 1210 74 l 29,29,-1
 1210 -156 l 29,30,-1
 978 -156 l 29,31,-1
 978 74 l 29,28,-1
978 756 m 25,32,-1
 1210 756 l 25,33,-1
 1210 526 l 25,34,-1
 978 526 l 25,35,-1
 978 756 l 25,32,-1
290 756 m 1,36,-1
 523 756 l 25,37,-1
 523 526 l 25,38,-1
 290 526 l 25,39,-1
 290 756 l 1,36,-1
EndSplineSet
Validated: 5
EndChar

StartChar: sterling
Encoding: 163 163 101
Width: 1500
GlyphClass: 2
Flags: W
LayerCount: 2
Fore
SplineSet
634 416 m 25,0,-1
 866 416 l 25,1,-1
 866 185 l 25,2,-1
 634 185 l 25,3,-1
 634 416 l 25,0,-1
634 74 m 25,4,-1
 866 74 l 25,5,-1
 866 -156 l 25,6,-1
 634 -156 l 25,7,-1
 634 74 l 25,4,-1
634 756 m 25,8,-1
 866 756 l 25,9,-1
 866 526 l 25,10,-1
 634 526 l 25,11,-1
 634 756 l 25,8,-1
EndSplineSet
Validated: 1
EndChar

StartChar: yen
Encoding: 165 165 102
Width: 1250
GlyphClass: 2
Flags: WO
LayerCount: 2
Fore
SplineSet
480 445 m 29,0,-1
 770 445 l 29,1,-1
 770 156 l 29,2,-1
 480 156 l 29,3,-1
 480 445 l 29,0,-1
480 18 m 29,4,-1
 770 18 l 29,5,-1
 770 -270 l 29,6,-1
 480 -270 l 29,7,-1
 480 18 l 29,4,-1
480 870 m 29,8,-1
 770 870 l 29,9,-1
 770 582 l 29,10,-1
 480 582 l 29,11,-1
 480 870 l 29,8,-1
910 445 m 29,12,-1
 1200 445 l 29,13,-1
 1200 156 l 29,14,-1
 910 156 l 29,15,-1
 910 445 l 29,12,-1
159 -91 m 29,16,-1
 232 -91 l 29,17,-1
 232 -162 l 29,18,-1
 159 -162 l 29,19,-1
 159 -91 l 29,16,-1
50 445 m 29,20,-1
 341 445 l 29,21,-1
 341 156 l 29,22,-1
 50 156 l 29,23,-1
 50 445 l 29,20,-1
159 -91 m 29,24,-1
 232 -91 l 29,25,-1
 232 -162 l 29,26,-1
 159 -162 l 29,27,-1
 159 -91 l 29,24,-1
1019 -90 m 29,28,-1
 1091 -90 l 29,29,-1
 1091 -162 l 29,30,-1
 1019 -162 l 29,31,-1
 1019 -90 l 29,28,-1
1019 762 m 29,32,-1
 1091 762 l 29,33,-1
 1091 690 l 29,34,-1
 1019 690 l 29,35,-1
 1019 762 l 29,32,-1
159 762 m 5,36,-1
 232 762 l 29,37,-1
 232 690 l 29,38,-1
 159 690 l 29,39,-1
 159 762 l 5,36,-1
EndSplineSet
EndChar

StartChar: brokenbar
Encoding: 166 166 103
Width: 1500
GlyphClass: 2
Flags: W
LayerCount: 2
Fore
SplineSet
721 329 m 25,0,-1
 779 329 l 25,1,-1
 779 272 l 25,2,-1
 721 272 l 25,3,-1
 721 329 l 25,0,-1
721 -12 m 25,4,-1
 779 -12 l 25,5,-1
 779 -70 l 25,6,-1
 721 -70 l 25,7,-1
 721 -12 l 25,4,-1
634 756 m 25,8,-1
 866 756 l 25,9,-1
 866 526 l 25,10,-1
 634 526 l 25,11,-1
 634 756 l 25,8,-1
1065 329 m 25,12,-1
 1123 329 l 25,13,-1
 1123 272 l 25,14,-1
 1065 272 l 25,15,-1
 1065 329 l 25,12,-1
377 -13 m 25,16,-1
 436 -13 l 25,17,-1
 436 -70 l 25,18,-1
 377 -70 l 25,19,-1
 377 -13 l 25,16,-1
377 329 m 25,20,-1
 436 329 l 25,21,-1
 436 272 l 25,22,-1
 377 272 l 25,23,-1
 377 329 l 25,20,-1
377 -13 m 25,24,-1
 436 -13 l 25,25,-1
 436 -70 l 25,26,-1
 377 -70 l 25,27,-1
 377 -13 l 25,24,-1
1065 -12 m 29,28,-1
 1123 -12 l 29,29,-1
 1123 -70 l 29,30,-1
 1065 -70 l 29,31,-1
 1065 -12 l 29,28,-1
978 756 m 25,32,-1
 1210 756 l 25,33,-1
 1210 526 l 25,34,-1
 978 526 l 25,35,-1
 978 756 l 25,32,-1
290 756 m 1,36,-1
 523 756 l 25,37,-1
 523 526 l 25,38,-1
 290 526 l 25,39,-1
 290 756 l 1,36,-1
EndSplineSet
Validated: 5
EndChar

StartChar: section
Encoding: 167 167 104
Width: 1500
GlyphClass: 2
Flags: W
LayerCount: 2
Fore
SplineSet
634 416 m 25,0,-1
 866 416 l 25,1,-1
 866 185 l 25,2,-1
 634 185 l 25,3,-1
 634 416 l 25,0,-1
721 -12 m 25,4,-1
 779 -12 l 25,5,-1
 779 -70 l 25,6,-1
 721 -70 l 25,7,-1
 721 -12 l 25,4,-1
721 670 m 25,8,-1
 779 670 l 25,9,-1
 779 612 l 25,10,-1
 721 612 l 25,11,-1
 721 670 l 25,8,-1
978 416 m 25,12,-1
 1210 416 l 25,13,-1
 1210 185 l 25,14,-1
 978 185 l 25,15,-1
 978 416 l 25,12,-1
377 -13 m 25,16,-1
 436 -13 l 25,17,-1
 436 -70 l 25,18,-1
 377 -70 l 25,19,-1
 377 -13 l 25,16,-1
290 416 m 25,20,-1
 523 416 l 25,21,-1
 523 185 l 25,22,-1
 290 185 l 25,23,-1
 290 416 l 25,20,-1
377 -13 m 25,24,-1
 436 -13 l 25,25,-1
 436 -70 l 25,26,-1
 377 -70 l 25,27,-1
 377 -13 l 25,24,-1
1065 -12 m 29,28,-1
 1123 -12 l 29,29,-1
 1123 -70 l 29,30,-1
 1065 -70 l 29,31,-1
 1065 -12 l 29,28,-1
1065 670 m 25,32,-1
 1123 670 l 25,33,-1
 1123 612 l 25,34,-1
 1065 612 l 25,35,-1
 1065 670 l 25,32,-1
377 670 m 1,36,-1
 436 670 l 25,37,-1
 436 612 l 25,38,-1
 377 612 l 25,39,-1
 377 670 l 1,36,-1
EndSplineSet
Validated: 5
EndChar

StartChar: dieresis
Encoding: 168 168 105
Width: 338
GlyphClass: 2
Flags: W
LayerCount: 2
Fore
SplineSet
79 609 m 0,0,1
 58 609 58 609 44.5 621.5 c 128,-1,2
 31 634 31 634 31 654 c 0,3,4
 31 675 31 675 44.5 688 c 128,-1,5
 58 701 58 701 79 701 c 0,6,7
 99 701 99 701 113 688 c 128,-1,8
 127 675 127 675 127 654 c 0,9,10
 127 634 127 634 113 621.5 c 128,-1,11
 99 609 99 609 79 609 c 0,0,1
258 609 m 0,12,13
 238 609 238 609 225.5 621.5 c 128,-1,14
 213 634 213 634 213 654 c 0,15,16
 213 675 213 675 225.5 688 c 128,-1,17
 238 701 238 701 258 701 c 0,18,19
 280 701 280 701 292.5 688 c 128,-1,20
 305 675 305 675 305 654 c 0,21,22
 305 634 305 634 292.5 621.5 c 128,-1,23
 280 609 280 609 258 609 c 0,12,13
EndSplineSet
Validated: 1
EndChar

StartChar: copyright
Encoding: 169 169 106
Width: 1500
GlyphClass: 2
Flags: W
LayerCount: 2
Fore
SplineSet
721 329 m 25,0,-1
 779 329 l 25,1,-1
 779 272 l 25,2,-1
 721 272 l 25,3,-1
 721 329 l 25,0,-1
634 74 m 25,4,-1
 866 74 l 25,5,-1
 866 -156 l 25,6,-1
 634 -156 l 25,7,-1
 634 74 l 25,4,-1
721 670 m 25,8,-1
 779 670 l 25,9,-1
 779 612 l 25,10,-1
 721 612 l 25,11,-1
 721 670 l 25,8,-1
1065 329 m 29,12,-1
 1123 329 l 29,13,-1
 1123 272 l 29,14,-1
 1065 272 l 29,15,-1
 1065 329 l 29,12,-1
290 74 m 25,16,-1
 523 74 l 25,17,-1
 523 -157 l 25,18,-1
 290 -157 l 25,19,-1
 290 74 l 25,16,-1
377 329 m 25,20,-1
 436 329 l 25,21,-1
 436 272 l 25,22,-1
 377 272 l 25,23,-1
 377 329 l 25,20,-1
290 74 m 25,24,-1
 523 74 l 25,25,-1
 523 -157 l 25,26,-1
 290 -157 l 25,27,-1
 290 74 l 25,24,-1
978 74 m 25,28,-1
 1210 74 l 25,29,-1
 1210 -156 l 25,30,-1
 978 -156 l 25,31,-1
 978 74 l 25,28,-1
1065 670 m 25,32,-1
 1123 670 l 25,33,-1
 1123 612 l 25,34,-1
 1065 612 l 25,35,-1
 1065 670 l 25,32,-1
377 670 m 1,36,-1
 436 670 l 25,37,-1
 436 612 l 25,38,-1
 377 612 l 25,39,-1
 377 670 l 1,36,-1
EndSplineSet
Validated: 5
EndChar

StartChar: ordfeminine
Encoding: 170 170 107
Width: 1250
GlyphClass: 2
Flags: W
LayerCount: 2
Fore
SplineSet
480 445 m 29,0,-1
 770 445 l 29,1,-1
 770 156 l 29,2,-1
 480 156 l 29,3,-1
 480 445 l 29,0,-1
910 445 m 29,4,-1
 1200 445 l 29,5,-1
 1200 156 l 29,6,-1
 910 156 l 29,7,-1
 910 445 l 29,4,-1
50 445 m 29,8,-1
 341 445 l 29,9,-1
 341 156 l 29,10,-1
 50 156 l 29,11,-1
 50 445 l 29,8,-1
EndSplineSet
Validated: 1
EndChar

StartChar: guillemotleft
Encoding: 171 171 108
Width: 352
GlyphClass: 2
Flags: W
LayerCount: 2
Fore
SplineSet
173 289 m 1,0,-1
 321 414 l 1,1,-1
 321 339 l 1,2,-1
 224 262 l 1,3,-1
 321 184 l 1,4,-1
 321 110 l 1,5,-1
 173 235 l 1,6,-1
 173 289 l 1,0,-1
12 289 m 1,7,-1
 160 414 l 1,8,-1
 160 339 l 1,9,-1
 62 262 l 1,10,-1
 160 184 l 1,11,-1
 160 110 l 1,12,-1
 12 235 l 1,13,-1
 12 289 l 1,7,-1
EndSplineSet
Validated: 1
EndChar

StartChar: registered
Encoding: 174 174 109
Width: 626
GlyphClass: 2
Flags: W
LayerCount: 2
Fore
SplineSet
23 415 m 256,0,1
 23 475 23 475 46 528 c 128,-1,2
 69 581 69 581 108 620.5 c 128,-1,3
 147 660 147 660 200 683 c 128,-1,4
 253 706 253 706 313 706 c 256,5,6
 373 706 373 706 426 683 c 128,-1,7
 479 660 479 660 518.5 620.5 c 128,-1,8
 558 581 558 581 580.5 528 c 128,-1,9
 603 475 603 475 603 415 c 256,10,11
 603 355 603 355 580.5 302 c 128,-1,12
 558 249 558 249 518.5 210 c 128,-1,13
 479 171 479 171 426 148 c 128,-1,14
 373 125 373 125 313 125 c 256,15,16
 253 125 253 125 200 148 c 128,-1,17
 147 171 147 171 108 210 c 128,-1,18
 69 249 69 249 46 302 c 128,-1,19
 23 355 23 355 23 415 c 256,0,1
86 415 m 0,20,21
 86 368 86 368 103.5 327 c 128,-1,22
 121 286 121 286 152 255 c 128,-1,23
 183 224 183 224 224.5 206.5 c 128,-1,24
 266 189 266 189 313 189 c 256,25,26
 360 189 360 189 401.5 206.5 c 128,-1,27
 443 224 443 224 474 255 c 128,-1,28
 505 286 505 286 523 327 c 128,-1,29
 541 368 541 368 541 415 c 0,30,31
 541 463 541 463 523 504.5 c 128,-1,32
 505 546 505 546 474 576.5 c 128,-1,33
 443 607 443 607 401.5 625 c 128,-1,34
 360 643 360 643 313 643 c 256,35,36
 266 643 266 643 224.5 625 c 128,-1,37
 183 607 183 607 152 576.5 c 128,-1,38
 121 546 121 546 103.5 504.5 c 128,-1,39
 86 463 86 463 86 415 c 0,20,21
323 570 m 2,40,41
 362 570 362 570 388 545.5 c 128,-1,42
 414 521 414 521 414 476 c 0,43,44
 414 447 414 447 399.5 425 c 128,-1,45
 385 403 385 403 360 396 c 1,46,-1
 415 272 l 1,47,-1
 353 272 l 1,48,-1
 310 383 l 1,49,-1
 276 383 l 1,50,-1
 276 272 l 1,51,-1
 222 272 l 1,52,-1
 222 570 l 1,53,-1
 323 570 l 2,40,41
276 440 m 1,54,-1
 325 440 l 2,55,56
 340 440 340 440 349.5 449.5 c 128,-1,57
 359 459 359 459 359 476 c 0,58,59
 359 495 359 495 349.5 504.5 c 128,-1,60
 340 514 340 514 325 514 c 2,61,-1
 276 514 l 1,62,-1
 276 440 l 1,54,-1
EndSplineSet
Validated: 1
EndChar

StartChar: macron
Encoding: 175 175 110
Width: 321
GlyphClass: 2
Flags: W
LayerCount: 2
Fore
SplineSet
33 691 m 1,0,-1
 287 691 l 1,1,-1
 287 632 l 1,2,-1
 33 632 l 1,3,-1
 33 691 l 1,0,-1
EndSplineSet
Validated: 1
EndChar

StartChar: degree
Encoding: 176 176 111
Width: 343
GlyphClass: 2
Flags: W
LayerCount: 2
Fore
SplineSet
171 698 m 256,0,1
 202 698 202 698 229 686 c 128,-1,2
 256 674 256 674 276 654 c 128,-1,3
 296 634 296 634 308 607 c 128,-1,4
 320 580 320 580 320 549 c 256,5,6
 320 518 320 518 308 491 c 128,-1,7
 296 464 296 464 276 443.5 c 128,-1,8
 256 423 256 423 229 411.5 c 128,-1,9
 202 400 202 400 171 400 c 256,10,11
 140 400 140 400 113 411.5 c 128,-1,12
 86 423 86 423 66 443.5 c 128,-1,13
 46 464 46 464 34.5 491 c 128,-1,14
 23 518 23 518 23 549 c 256,15,16
 23 580 23 580 34.5 607 c 128,-1,17
 46 634 46 634 66 654 c 128,-1,18
 86 674 86 674 113 686 c 128,-1,19
 140 698 140 698 171 698 c 256,0,1
171 634 m 256,20,21
 153 634 153 634 137.5 627 c 128,-1,22
 122 620 122 620 110.5 608.5 c 128,-1,23
 99 597 99 597 92.5 581.5 c 128,-1,24
 86 566 86 566 86 548 c 0,25,26
 86 512 86 512 111 487.5 c 128,-1,27
 136 463 136 463 171 463 c 256,28,29
 206 463 206 463 231.5 487.5 c 128,-1,30
 257 512 257 512 257 548 c 0,31,32
 257 566 257 566 250 581.5 c 128,-1,33
 243 597 243 597 231.5 608.5 c 128,-1,34
 220 620 220 620 204.5 627 c 128,-1,35
 189 634 189 634 171 634 c 256,20,21
EndSplineSet
Validated: 1
EndChar

StartChar: plusminus
Encoding: 177 177 112
Width: 393
GlyphClass: 2
Flags: W
LayerCount: 2
Fore
SplineSet
233 171 m 1,0,-1
 172 171 l 1,1,-1
 172 309 l 1,2,-1
 18 309 l 1,3,-1
 18 370 l 1,4,-1
 172 370 l 1,5,-1
 172 516 l 1,6,-1
 233 516 l 1,7,-1
 233 370 l 1,8,-1
 374 370 l 1,9,-1
 374 309 l 1,10,-1
 233 309 l 1,11,-1
 233 171 l 1,0,-1
374 141 m 1,12,-1
 374 80 l 1,13,-1
 18 80 l 1,14,-1
 18 141 l 1,15,-1
 374 141 l 1,12,-1
EndSplineSet
Validated: 1
EndChar

StartChar: twosuperior
Encoding: 178 178 113
Width: 342
GlyphClass: 2
Flags: W
LayerCount: 2
Fore
SplineSet
172 700 m 0,0,1
 199 700 199 700 224 693.5 c 128,-1,2
 249 687 249 687 268.5 673 c 128,-1,3
 288 659 288 659 299.5 637.5 c 128,-1,4
 311 616 311 616 311 587 c 0,5,6
 311 561 311 561 301.5 541.5 c 128,-1,7
 292 522 292 522 276.5 506.5 c 128,-1,8
 261 491 261 491 242 479 c 128,-1,9
 223 467 223 467 204 457 c 0,10,11
 161 434 161 434 134.5 408.5 c 128,-1,12
 108 383 108 383 97 341 c 1,13,-1
 313 341 l 1,14,-1
 313 279 l 1,15,-1
 24 279 l 1,16,17
 28 336 28 336 43 379 c 128,-1,18
 58 422 58 422 90 455 c 0,19,20
 105 471 105 471 131.5 485.5 c 128,-1,21
 158 500 158 500 183.5 515.5 c 128,-1,22
 209 531 209 531 228 548.5 c 128,-1,23
 247 566 247 566 247 589 c 0,24,25
 247 614 247 614 224 626 c 128,-1,26
 201 638 201 638 172 638 c 0,27,28
 146 638 146 638 122.5 628 c 128,-1,29
 99 618 99 618 81 596 c 1,30,-1
 36 637 l 1,31,32
 59 669 59 669 97 684.5 c 128,-1,33
 135 700 135 700 172 700 c 0,0,1
EndSplineSet
Validated: 1
EndChar

StartChar: threesuperior
Encoding: 179 179 114
Width: 335
GlyphClass: 2
Flags: W
LayerCount: 2
Fore
SplineSet
159 695 m 0,0,1
 183 695 183 695 206 688.5 c 128,-1,2
 229 682 229 682 246.5 669.5 c 128,-1,3
 264 657 264 657 274.5 637.5 c 128,-1,4
 285 618 285 618 285 592 c 256,5,6
 285 566 285 566 274.5 545 c 128,-1,7
 264 524 264 524 243 510 c 1,8,9
 277 499 277 499 294.5 471.5 c 128,-1,10
 312 444 312 444 312 403 c 0,11,12
 312 375 312 375 299 351.5 c 128,-1,13
 286 328 286 328 264.5 311.5 c 128,-1,14
 243 295 243 295 215 285.5 c 128,-1,15
 187 276 187 276 156 276 c 0,16,17
 123 276 123 276 84 289 c 128,-1,18
 45 302 45 302 18 329 c 1,19,-1
 57 377 l 1,20,21
 77 357 77 357 105.5 347.5 c 128,-1,22
 134 338 134 338 157 338 c 0,23,24
 197 338 197 338 223.5 358 c 128,-1,25
 250 378 250 378 250 405 c 0,26,27
 250 431 250 431 232 453 c 128,-1,28
 214 475 214 475 178 475 c 2,29,-1
 136 475 l 1,30,-1
 136 532 l 1,31,-1
 178 532 l 2,32,33
 197 532 197 532 210 549.5 c 128,-1,34
 223 567 223 567 223 589 c 0,35,36
 223 612 223 612 203.5 623 c 128,-1,37
 184 634 184 634 159 634 c 0,38,39
 141 634 141 634 120.5 623 c 128,-1,40
 100 612 100 612 89 592 c 1,41,-1
 44 636 l 1,42,43
 62 665 62 665 93.5 680 c 128,-1,44
 125 695 125 695 159 695 c 0,0,1
EndSplineSet
Validated: 1
EndChar

StartChar: acute
Encoding: 180 180 115
Width: 219
GlyphClass: 2
Flags: W
LayerCount: 2
Fore
SplineSet
211 690 m 1,0,-1
 40 560 l 1,1,-1
 9 602 l 1,2,-1
 166 748 l 1,3,-1
 211 690 l 1,0,-1
EndSplineSet
Validated: 1
EndChar

StartChar: mu
Encoding: 181 181 116
Width: 528
GlyphClass: 2
Flags: W
LayerCount: 2
Fore
SplineSet
434 140 m 2,0,1
 434 103 434 103 466 103 c 0,2,3
 480 103 480 103 492.5 110 c 128,-1,4
 505 117 505 117 513 128 c 1,5,-1
 513 29 l 1,6,7
 503 15 503 15 483.5 6 c 128,-1,8
 464 -3 464 -3 440 -3 c 0,9,10
 417 -3 417 -3 397.5 6.5 c 128,-1,11
 378 16 378 16 367 41 c 1,12,13
 347 11 347 11 316.5 -2 c 128,-1,14
 286 -15 286 -15 250 -15 c 0,15,16
 215 -15 215 -15 184.5 -1 c 128,-1,17
 154 13 154 13 132 42 c 1,18,-1
 132 -160 l 1,19,-1
 33 -160 l 1,20,-1
 33 531 l 1,21,-1
 132 531 l 1,22,-1
 132 172 l 1,23,24
 150 126 150 126 175.5 102.5 c 128,-1,25
 201 79 201 79 238 79 c 0,26,27
 287 79 287 79 311 108.5 c 128,-1,28
 335 138 335 138 335 204 c 2,29,-1
 335 531 l 1,30,-1
 434 531 l 1,31,-1
 434 140 l 2,0,1
EndSplineSet
Validated: 1
EndChar

StartChar: paragraph
Encoding: 182 182 117
Width: 520
GlyphClass: 2
Flags: W
LayerCount: 2
Fore
SplineSet
285 289 m 1,0,-1
 228 289 l 2,1,2
 179 289 179 289 139 302 c 128,-1,3
 99 315 99 315 70.5 340.5 c 128,-1,4
 42 366 42 366 26.5 403.5 c 128,-1,5
 11 441 11 441 11 491 c 256,6,7
 11 541 11 541 26.5 578.5 c 128,-1,8
 42 616 42 616 70.5 641 c 128,-1,9
 99 666 99 666 139 678.5 c 128,-1,10
 179 691 179 691 228 691 c 2,11,-1
 486 691 l 1,12,-1
 486 0 l 1,13,-1
 424 0 l 1,14,-1
 424 289 l 1,15,-1
 348 289 l 1,16,-1
 348 0 l 1,17,-1
 285 0 l 1,18,-1
 285 289 l 1,0,-1
424 629 m 1,19,-1
 348 629 l 1,20,-1
 348 351 l 1,21,-1
 424 351 l 1,22,-1
 424 629 l 1,19,-1
EndSplineSet
Validated: 1
EndChar

StartChar: periodcentered
Encoding: 183 183 118
Width: 152
GlyphClass: 2
Flags: W
LayerCount: 2
Fore
SplineSet
24 332 m 0,0,1
 24 354 24 354 38 369.5 c 128,-1,2
 52 385 52 385 75 385 c 0,3,4
 96 385 96 385 112 369.5 c 128,-1,5
 128 354 128 354 128 332 c 0,6,7
 128 311 128 311 112 296 c 128,-1,8
 96 281 96 281 75 281 c 0,9,10
 52 281 52 281 38 296 c 128,-1,11
 24 311 24 311 24 332 c 0,0,1
EndSplineSet
Validated: 1
EndChar

StartChar: cedilla
Encoding: 184 184 119
Width: 162
GlyphClass: 2
Flags: W
LayerCount: 2
Fore
SplineSet
15 -183 m 1,0,-1
 76 11 l 1,1,-1
 155 11 l 1,2,-1
 60 -204 l 1,3,-1
 15 -183 l 1,0,-1
EndSplineSet
Validated: 1
EndChar

StartChar: onesuperior
Encoding: 185 185 120
Width: 152
GlyphClass: 2
Flags: W
LayerCount: 2
Fore
SplineSet
55 598 m 1,0,-1
 12 598 l 1,1,-1
 12 653 l 1,2,3
 56 658 56 658 62 691 c 1,4,-1
 117 691 l 1,5,-1
 117 279 l 1,6,-1
 55 279 l 1,7,-1
 55 598 l 1,0,-1
EndSplineSet
Validated: 1
EndChar

StartChar: ordmasculine
Encoding: 186 186 121
Width: 320
GlyphClass: 2
Flags: W
LayerCount: 2
Fore
SplineSet
160 706 m 256,0,1
 220 706 220 706 257.5 664.5 c 128,-1,2
 295 623 295 623 295 539 c 256,3,4
 295 455 295 455 257.5 414 c 128,-1,5
 220 373 220 373 160 373 c 256,6,7
 100 373 100 373 62 414 c 128,-1,8
 24 455 24 455 24 539 c 256,9,10
 24 623 24 623 62 664.5 c 128,-1,11
 100 706 100 706 160 706 c 256,0,1
160 644 m 256,12,13
 125 644 125 644 105.5 618.5 c 128,-1,14
 86 593 86 593 86 539 c 0,15,16
 86 487 86 487 105.5 460.5 c 128,-1,17
 125 434 125 434 160 434 c 256,18,19
 195 434 195 434 214.5 460.5 c 128,-1,20
 234 487 234 487 234 539 c 0,21,22
 234 593 234 593 214.5 618.5 c 128,-1,23
 195 644 195 644 160 644 c 256,12,13
EndSplineSet
Validated: 1
EndChar

StartChar: guillemotright
Encoding: 187 187 122
Width: 355
GlyphClass: 2
Flags: W
LayerCount: 2
Fore
SplineSet
342 235 m 1,0,-1
 194 110 l 1,1,-1
 194 184 l 1,2,-1
 292 262 l 1,3,-1
 194 339 l 1,4,-1
 194 414 l 1,5,-1
 342 289 l 1,6,-1
 342 235 l 1,0,-1
181 235 m 1,7,-1
 33 110 l 1,8,-1
 33 184 l 1,9,-1
 130 262 l 1,10,-1
 33 339 l 1,11,-1
 33 414 l 1,12,-1
 181 289 l 1,13,-1
 181 235 l 1,7,-1
EndSplineSet
Validated: 1
EndChar

StartChar: onequarter
Encoding: 188 188 123
Width: 701
GlyphClass: 2
Flags: W
LayerCount: 2
Fore
SplineSet
636 411 m 1,0,-1
 636 133 l 1,1,-1
 677 133 l 1,2,-1
 677 73 l 1,3,-1
 636 73 l 1,4,-1
 636 0 l 1,5,-1
 575 0 l 1,6,-1
 575 73 l 1,7,-1
 360 73 l 1,8,-1
 360 121 l 1,9,-1
 589 411 l 1,10,-1
 636 411 l 1,0,-1
122 0 m 1,11,-1
 46 0 l 1,12,-1
 515 691 l 1,13,-1
 592 691 l 1,14,-1
 122 0 l 1,11,-1
71 598 m 1,15,-1
 29 598 l 1,16,-1
 29 653 l 1,17,18
 73 658 73 658 79 691 c 1,19,-1
 134 691 l 1,20,-1
 134 279 l 1,21,-1
 71 279 l 1,22,-1
 71 598 l 1,15,-1
448 133 m 1,23,-1
 575 133 l 1,24,-1
 575 292 l 1,25,-1
 448 133 l 1,23,-1
EndSplineSet
Validated: 1
EndChar

StartChar: onehalf
Encoding: 189 189 124
Width: 741
GlyphClass: 2
Flags: W
LayerCount: 2
Fore
SplineSet
70 598 m 1,0,-1
 28 598 l 1,1,-1
 28 653 l 1,2,3
 72 658 72 658 78 691 c 1,4,-1
 133 691 l 1,5,-1
 133 279 l 1,6,-1
 70 279 l 1,7,-1
 70 598 l 1,0,-1
121 0 m 1,8,-1
 45 0 l 1,9,-1
 514 691 l 1,10,-1
 591 691 l 1,11,-1
 121 0 l 1,8,-1
578 420 m 0,12,13
 605 420 605 420 630 413 c 128,-1,14
 655 406 655 406 674 392 c 128,-1,15
 693 378 693 378 704.5 356.5 c 128,-1,16
 716 335 716 335 716 306 c 0,17,18
 716 280 716 280 706.5 260.5 c 128,-1,19
 697 241 697 241 681.5 226 c 128,-1,20
 666 211 666 211 647 199 c 128,-1,21
 628 187 628 187 609 177 c 0,22,23
 567 154 567 154 540.5 128.5 c 128,-1,24
 514 103 514 103 503 61 c 1,25,-1
 719 61 l 1,26,-1
 719 -1 l 1,27,-1
 429 -1 l 1,28,29
 435 71 435 71 460 123 c 128,-1,30
 485 175 485 175 542 210 c 0,31,32
 558 220 558 220 577 229.5 c 128,-1,33
 596 239 596 239 612.5 250.5 c 128,-1,34
 629 262 629 262 640.5 276 c 128,-1,35
 652 290 652 290 652 308 c 0,36,37
 652 333 652 333 629.5 345 c 128,-1,38
 607 357 607 357 578 357 c 0,39,40
 552 357 552 357 528.5 347.5 c 128,-1,41
 505 338 505 338 486 315 c 1,42,-1
 442 356 l 1,43,44
 465 388 465 388 503 404 c 128,-1,45
 541 420 541 420 578 420 c 0,12,13
EndSplineSet
Validated: 1
EndChar

StartChar: threequarters
Encoding: 190 190 125
Width: 754
GlyphClass: 2
Flags: W
LayerCount: 2
Fore
SplineSet
686 411 m 1,0,-1
 686 133 l 1,1,-1
 728 133 l 1,2,-1
 728 73 l 1,3,-1
 686 73 l 1,4,-1
 686 0 l 1,5,-1
 625 0 l 1,6,-1
 625 73 l 1,7,-1
 410 73 l 1,8,-1
 410 121 l 1,9,-1
 639 411 l 1,10,-1
 686 411 l 1,0,-1
210 0 m 1,11,-1
 134 0 l 1,12,-1
 603 691 l 1,13,-1
 680 691 l 1,14,-1
 210 0 l 1,11,-1
498 133 m 1,15,-1
 625 133 l 1,16,-1
 625 292 l 1,17,-1
 498 133 l 1,15,-1
161 695 m 0,18,19
 186 695 186 695 208.5 688.5 c 128,-1,20
 231 682 231 682 248.5 669.5 c 128,-1,21
 266 657 266 657 276.5 637.5 c 128,-1,22
 287 618 287 618 287 592 c 256,23,24
 287 566 287 566 276.5 545 c 128,-1,25
 266 524 266 524 246 510 c 1,26,27
 279 499 279 499 296.5 471.5 c 128,-1,28
 314 444 314 444 314 403 c 0,29,30
 314 375 314 375 301.5 351.5 c 128,-1,31
 289 328 289 328 267.5 311.5 c 128,-1,32
 246 295 246 295 217.5 285.5 c 128,-1,33
 189 276 189 276 158 276 c 0,34,35
 126 276 126 276 86.5 289 c 128,-1,36
 47 302 47 302 20 329 c 1,37,-1
 59 377 l 1,38,39
 79 357 79 357 107.5 347.5 c 128,-1,40
 136 338 136 338 159 338 c 0,41,42
 200 338 200 338 226.5 358 c 128,-1,43
 253 378 253 378 253 405 c 0,44,45
 253 431 253 431 235 453 c 128,-1,46
 217 475 217 475 181 475 c 2,47,-1
 138 475 l 1,48,-1
 138 532 l 1,49,-1
 181 532 l 2,50,51
 200 532 200 532 213 549.5 c 128,-1,52
 226 567 226 567 226 589 c 0,53,54
 226 612 226 612 206.5 623 c 128,-1,55
 187 634 187 634 161 634 c 0,56,57
 144 634 144 634 123.5 623 c 128,-1,58
 103 612 103 612 91 592 c 1,59,-1
 46 636 l 1,60,61
 64 665 64 665 95.5 680 c 128,-1,62
 127 695 127 695 161 695 c 0,18,19
EndSplineSet
Validated: 1
EndChar

StartChar: questiondown
Encoding: 191 191 126
Width: 442
GlyphClass: 2
Flags: W
LayerCount: 2
Fore
SplineSet
287 645 m 256,0,1
 287 622 287 622 271.5 605.5 c 128,-1,2
 256 589 256 589 232 589 c 0,3,4
 209 589 209 589 192 605.5 c 128,-1,5
 175 622 175 622 175 645 c 256,6,7
 175 668 175 668 192 683 c 128,-1,8
 209 698 209 698 232 698 c 0,9,10
 256 698 256 698 271.5 683 c 128,-1,11
 287 668 287 668 287 645 c 256,0,1
228 -14 m 0,12,13
 185 -14 185 -14 146.5 -4 c 128,-1,14
 108 6 108 6 79 27.5 c 128,-1,15
 50 49 50 49 33 82 c 128,-1,16
 16 115 16 115 16 161 c 0,17,18
 16 192 16 192 23.5 218 c 128,-1,19
 31 244 31 244 43.5 266 c 128,-1,20
 56 288 56 288 71.5 306 c 128,-1,21
 87 324 87 324 104 341 c 0,22,23
 122 359 122 359 136 375.5 c 128,-1,24
 150 392 150 392 159.5 409 c 128,-1,25
 169 426 169 426 174.5 445 c 128,-1,26
 180 464 180 464 181 488 c 1,27,-1
 274 488 l 1,28,29
 272 449 272 449 262 414 c 128,-1,30
 252 379 252 379 232 348 c 0,31,32
 215 323 215 323 195 302 c 128,-1,33
 175 281 175 281 157 260 c 128,-1,34
 139 239 139 239 127 216.5 c 128,-1,35
 115 194 115 194 115 166 c 0,36,37
 115 143 115 143 124 127.5 c 128,-1,38
 133 112 133 112 148.5 102.5 c 128,-1,39
 164 93 164 93 184 88.5 c 128,-1,40
 204 84 204 84 226 84 c 0,41,42
 263 84 263 84 299 97 c 128,-1,43
 335 110 335 110 369 139 c 1,44,-1
 429 59 l 1,45,46
 384 21 384 21 334.5 3.5 c 128,-1,47
 285 -14 285 -14 228 -14 c 0,12,13
EndSplineSet
Validated: 1
EndChar

StartChar: AE
Encoding: 198 198 133
Width: 835
GlyphClass: 2
Flags: W
LayerCount: 2
Fore
SplineSet
228 179 m 1,0,-1
 135 0 l 1,1,-1
 20 0 l 1,2,-1
 388 692 l 1,3,-1
 794 692 l 1,4,-1
 794 592 l 1,5,-1
 540 592 l 1,6,-1
 540 403 l 1,7,-1
 688 403 l 1,8,-1
 688 304 l 1,9,-1
 540 304 l 1,10,-1
 540 97 l 1,11,-1
 803 97 l 1,12,-1
 803 0 l 1,13,-1
 440 0 l 1,14,-1
 440 179 l 1,15,-1
 228 179 l 1,0,-1
440 588 m 1,16,-1
 273 278 l 1,17,-1
 440 278 l 1,18,-1
 440 588 l 1,16,-1
EndSplineSet
Validated: 1
EndChar

StartChar: Eth
Encoding: 208 208 143
Width: 614
GlyphClass: 2
Flags: W
LayerCount: 2
Fore
SplineSet
13 376 m 1,0,-1
 50 376 l 1,1,-1
 50 692 l 1,2,-1
 236 692 l 2,3,4
 310 692 310 692 374.5 665.5 c 128,-1,5
 439 639 439 639 486.5 592.5 c 128,-1,6
 534 546 534 546 561.5 483 c 128,-1,7
 589 420 589 420 589 347 c 256,8,9
 589 274 589 274 561.5 211 c 128,-1,10
 534 148 534 148 486.5 101 c 128,-1,11
 439 54 439 54 374.5 27 c 128,-1,12
 310 0 310 0 236 0 c 2,13,-1
 50 0 l 1,14,-1
 50 297 l 1,15,-1
 13 297 l 1,16,-1
 13 376 l 1,0,-1
151 376 m 1,17,-1
 293 376 l 1,18,-1
 293 297 l 1,19,-1
 151 297 l 1,20,-1
 151 98 l 1,21,-1
 237 98 l 2,22,23
 289 98 289 98 334.5 116.5 c 128,-1,24
 380 135 380 135 414 168 c 128,-1,25
 448 201 448 201 467.5 246.5 c 128,-1,26
 487 292 487 292 487 346 c 0,27,28
 487 401 487 401 467.5 446.5 c 128,-1,29
 448 492 448 492 414 524.5 c 128,-1,30
 380 557 380 557 334.5 574.5 c 128,-1,31
 289 592 289 592 237 592 c 2,32,-1
 151 592 l 1,33,-1
 151 376 l 1,17,-1
EndSplineSet
Validated: 1
EndChar

StartChar: multiply
Encoding: 215 215 150
Width: 353
GlyphClass: 2
Flags: W
LayerCount: 2
Fore
SplineSet
326 234 m 1,0,-1
 283 190 l 1,1,-1
 176 297 l 1,2,-1
 69 190 l 1,3,-1
 26 234 l 1,4,-1
 133 340 l 1,5,-1
 24 448 l 1,6,-1
 68 493 l 1,7,-1
 176 384 l 1,8,-1
 284 493 l 1,9,-1
 328 448 l 1,10,-1
 219 340 l 1,11,-1
 326 234 l 1,0,-1
EndSplineSet
Validated: 1
EndChar

StartChar: Oslash
Encoding: 216 216 151
Width: 635
GlyphClass: 2
Flags: W
LayerCount: 2
Fore
SplineSet
431 737 m 1,0,-1
 498 737 l 1,1,-1
 470 664 l 1,2,3
 535 622 535 622 572.5 542.5 c 128,-1,4
 610 463 610 463 610 345 c 0,5,6
 610 256 610 256 588.5 189 c 128,-1,7
 567 122 567 122 528 77 c 128,-1,8
 489 32 489 32 435 9 c 128,-1,9
 381 -14 381 -14 317 -14 c 0,10,11
 291 -14 291 -14 268 -10.5 c 128,-1,12
 245 -7 245 -7 222 0 c 1,13,-1
 204 -52 l 1,14,-1
 137 -52 l 1,15,-1
 166 26 l 1,16,17
 100 67 100 67 62.5 146.5 c 128,-1,18
 25 226 25 226 25 345 c 0,19,20
 25 433 25 433 46.5 500.5 c 128,-1,21
 68 568 68 568 107 614 c 128,-1,22
 146 660 146 660 199.5 683 c 128,-1,23
 253 706 253 706 317 706 c 0,24,25
 367 706 367 706 413 690 c 1,26,-1
 431 737 l 1,0,-1
317 611 m 0,27,28
 226 611 226 611 173 545 c 128,-1,29
 120 479 120 479 120 345 c 0,30,31
 120 263 120 263 141 207 c 128,-1,32
 162 151 162 151 201 120 c 1,33,-1
 380 601 l 1,34,35
 365 606 365 606 349.5 608.5 c 128,-1,36
 334 611 334 611 317 611 c 0,27,28
317 79 m 0,37,38
 408 79 408 79 461.5 145.5 c 128,-1,39
 515 212 515 212 515 345 c 0,40,41
 515 426 515 426 494 482 c 128,-1,42
 473 538 473 538 435 569 c 1,43,-1
 255 89 l 1,44,45
 282 79 282 79 317 79 c 0,37,38
EndSplineSet
Validated: 1
EndChar

StartChar: Thorn
Encoding: 222 222 157
Width: 518
GlyphClass: 2
Flags: W
LayerCount: 2
Fore
SplineSet
284 553 m 2,0,1
 335 553 335 553 376.5 539.5 c 128,-1,2
 418 526 418 526 447.5 500 c 128,-1,3
 477 474 477 474 493 435 c 128,-1,4
 509 396 509 396 509 344 c 256,5,6
 509 292 509 292 493 252.5 c 128,-1,7
 477 213 477 213 447.5 187 c 128,-1,8
 418 161 418 161 376.5 147.5 c 128,-1,9
 335 134 335 134 284 134 c 2,10,-1
 132 134 l 1,11,-1
 132 0 l 1,12,-1
 33 0 l 1,13,-1
 33 692 l 1,14,-1
 132 692 l 1,15,-1
 132 553 l 1,16,-1
 284 553 l 2,0,1
132 232 m 1,17,-1
 284 232 l 2,18,19
 338 232 338 232 373.5 259 c 128,-1,20
 409 286 409 286 409 344 c 0,21,22
 409 401 409 401 373.5 427 c 128,-1,23
 338 453 338 453 284 453 c 2,24,-1
 132 453 l 1,25,-1
 132 232 l 1,17,-1
EndSplineSet
Validated: 1
EndChar

StartChar: germandbls
Encoding: 223 223 158
Width: 483
GlyphClass: 2
Flags: W
LayerCount: 2
Fore
SplineSet
224 729 m 0,0,1
 258 729 258 729 291 718 c 128,-1,2
 324 707 324 707 350 684.5 c 128,-1,3
 376 662 376 662 392 629 c 128,-1,4
 408 596 408 596 408 551 c 256,5,6
 408 506 408 506 388.5 472 c 128,-1,7
 369 438 369 438 337 414 c 1,8,9
 394 394 394 394 427.5 343 c 128,-1,10
 461 292 461 292 461 229 c 0,11,12
 461 173 461 173 444 131 c 128,-1,13
 427 89 427 89 396.5 60 c 128,-1,14
 366 31 366 31 323.5 15 c 128,-1,15
 281 -1 281 -1 229 -4 c 1,16,-1
 229 96 l 1,17,18
 289 99 289 99 329 131.5 c 128,-1,19
 369 164 369 164 369 227 c 0,20,21
 369 287 369 287 332.5 321.5 c 128,-1,22
 296 356 296 356 233 363 c 1,23,-1
 233 441 l 1,24,25
 283 453 283 453 300.5 482 c 128,-1,26
 318 511 318 511 318 549 c 0,27,28
 318 588 318 588 291 610 c 128,-1,29
 264 632 264 632 226 632 c 0,30,31
 184 632 184 632 159 600.5 c 128,-1,32
 134 569 134 569 134 507 c 2,33,-1
 134 0 l 1,34,-1
 35 0 l 1,35,-1
 35 519 l 2,36,37
 35 571 35 571 49 610.5 c 128,-1,38
 63 650 63 650 88.5 676.5 c 128,-1,39
 114 703 114 703 148.5 716 c 128,-1,40
 183 729 183 729 224 729 c 0,0,1
EndSplineSet
Validated: 1
EndChar

StartChar: ae
Encoding: 230 230 165
Width: 818
GlyphClass: 2
Flags: W
LayerCount: 2
Fore
SplineSet
569 544 m 0,0,1
 618 544 618 544 659.5 525.5 c 128,-1,2
 701 507 701 507 730.5 471.5 c 128,-1,3
 760 436 760 436 776.5 385 c 128,-1,4
 793 334 793 334 793 269 c 0,5,6
 793 260 793 260 791.5 251.5 c 128,-1,7
 790 243 790 243 788 234 c 1,8,-1
 443 234 l 1,9,10
 448 159 448 159 484.5 118.5 c 128,-1,11
 521 78 521 78 581 78 c 0,12,13
 615 78 615 78 643 91.5 c 128,-1,14
 671 105 671 105 691 128 c 1,15,-1
 754 72 l 1,16,17
 728 34 728 34 679.5 9.5 c 128,-1,18
 631 -15 631 -15 575 -15 c 0,19,20
 518 -15 518 -15 469 8 c 128,-1,21
 420 31 420 31 386 91 c 1,22,23
 353 31 353 31 309.5 8.5 c 128,-1,24
 266 -14 266 -14 212 -14 c 0,25,26
 178 -14 178 -14 144.5 -3 c 128,-1,27
 111 8 111 8 84.5 30.5 c 128,-1,28
 58 53 58 53 41.5 87 c 128,-1,29
 25 121 25 121 25 168 c 0,30,31
 25 212 25 212 41 244.5 c 128,-1,32
 57 277 57 277 85 298 c 128,-1,33
 113 319 113 319 150.5 329.5 c 128,-1,34
 188 340 188 340 232 340 c 0,35,36
 274 340 274 340 302 328.5 c 128,-1,37
 330 317 330 317 349 303 c 1,38,-1
 349 356 l 2,39,40
 349 401 349 401 322 427 c 128,-1,41
 295 453 295 453 247 453 c 0,42,43
 202 453 202 453 167.5 439.5 c 128,-1,44
 133 426 133 426 113 411 c 1,45,-1
 70 492 l 1,46,47
 93 513 93 513 139 529 c 128,-1,48
 185 545 185 545 248 545 c 0,49,50
 303 545 303 545 343.5 526 c 128,-1,51
 384 507 384 507 407 465 c 1,52,53
 435 504 435 504 476.5 524 c 128,-1,54
 518 544 518 544 569 544 c 0,0,1
352 216 m 1,55,56
 335 236 335 236 303 248.5 c 128,-1,57
 271 261 271 261 231 261 c 0,58,59
 177 261 177 261 148 238.5 c 128,-1,60
 119 216 119 216 119 168 c 0,61,62
 119 123 119 123 148.5 99 c 128,-1,63
 178 75 178 75 229 75 c 0,64,65
 250 75 250 75 270 82 c 128,-1,66
 290 89 290 89 306 100.5 c 128,-1,67
 322 112 322 112 334 126 c 128,-1,68
 346 140 346 140 352 154 c 1,69,-1
 352 216 l 1,55,56
569 452 m 256,70,71
 460 452 460 452 446 312 c 1,72,-1
 692 312 l 1,73,74
 678 452 678 452 569 452 c 256,70,71
EndSplineSet
Validated: 1
EndChar

StartChar: eth
Encoding: 240 240 175
Width: 564
GlyphClass: 2
Flags: W
LayerCount: 2
Fore
SplineSet
25 261 m 0,0,1
 25 324 25 324 45 372 c 128,-1,2
 65 420 65 420 99 452.5 c 128,-1,3
 133 485 133 485 179 502 c 128,-1,4
 225 519 225 519 276 519 c 0,5,6
 310 519 310 519 342.5 510 c 128,-1,7
 375 501 375 501 398 487 c 1,8,9
 383 515 383 515 354 540 c 128,-1,10
 325 565 325 565 289.5 584 c 128,-1,11
 254 603 254 603 217 615 c 128,-1,12
 180 627 180 627 149 631 c 1,13,-1
 166 720 l 1,14,15
 254 708 254 708 323.5 672 c 128,-1,16
 393 636 393 636 441 580 c 128,-1,17
 489 524 489 524 514 451.5 c 128,-1,18
 539 379 539 379 539 295 c 0,19,20
 539 238 539 238 524.5 182.5 c 128,-1,21
 510 127 510 127 479 83.5 c 128,-1,22
 448 40 448 40 399.5 13 c 128,-1,23
 351 -14 351 -14 282 -14 c 0,24,25
 220 -14 220 -14 172 8.5 c 128,-1,26
 124 31 124 31 91.5 69 c 128,-1,27
 59 107 59 107 42 156.5 c 128,-1,28
 25 206 25 206 25 261 c 0,0,1
440 286 m 0,29,30
 440 310 440 310 437.5 331.5 c 128,-1,31
 435 353 435 353 429 373 c 1,32,33
 403 398 403 398 369 414 c 128,-1,34
 335 430 335 430 282 430 c 0,35,36
 253 430 253 430 224 420 c 128,-1,37
 195 410 195 410 172 390 c 128,-1,38
 149 370 149 370 135 340 c 128,-1,39
 121 310 121 310 121 270 c 0,40,41
 121 237 121 237 132 204 c 128,-1,42
 143 171 143 171 164 145 c 128,-1,43
 185 119 185 119 215 102.5 c 128,-1,44
 245 86 245 86 282 86 c 0,45,46
 325 86 325 86 355 103.5 c 128,-1,47
 385 121 385 121 404 149.5 c 128,-1,48
 423 178 423 178 431.5 214 c 128,-1,49
 440 250 440 250 440 286 c 0,29,30
EndSplineSet
Validated: 1
EndChar

StartChar: divide
Encoding: 247 247 182
Width: 313
GlyphClass: 2
Flags: W
LayerCount: 2
Fore
SplineSet
8 292 m 1,0,-1
 303 292 l 1,1,-1
 303 230 l 1,2,-1
 8 230 l 1,3,-1
 8 292 l 1,0,-1
118 387 m 0,4,5
 118 405 118 405 129.5 418 c 128,-1,6
 141 431 141 431 159 431 c 0,7,8
 176 431 176 431 189 418 c 128,-1,9
 202 405 202 405 202 387 c 0,10,11
 202 370 202 370 189 358 c 128,-1,12
 176 346 176 346 159 346 c 0,13,14
 141 346 141 346 129.5 358 c 128,-1,15
 118 370 118 370 118 387 c 0,4,5
118 134 m 256,16,17
 118 151 118 151 129.5 164 c 128,-1,18
 141 177 141 177 159 177 c 0,19,20
 176 177 176 177 189 164 c 128,-1,21
 202 151 202 151 202 134 c 256,22,23
 202 117 202 117 189 104.5 c 128,-1,24
 176 92 176 92 159 92 c 0,25,26
 141 92 141 92 129.5 104.5 c 128,-1,27
 118 117 118 117 118 134 c 256,16,17
EndSplineSet
Validated: 1
EndChar

StartChar: oslash
Encoding: 248 248 183
Width: 504
GlyphClass: 2
Flags: W
LayerCount: 2
Fore
SplineSet
403 588 m 1,0,-1
 375 510 l 1,1,2
 423 478 423 478 451 417 c 128,-1,3
 479 356 479 356 479 265 c 0,4,5
 479 196 479 196 462 144 c 128,-1,6
 445 92 445 92 415 57 c 128,-1,7
 385 22 385 22 343 4 c 128,-1,8
 301 -14 301 -14 252 -14 c 0,9,10
 218 -14 218 -14 188 -5 c 1,11,-1
 169 -57 l 1,12,-1
 103 -57 l 1,13,-1
 131 19 l 1,14,15
 80 51 80 51 52.5 112.5 c 128,-1,16
 25 174 25 174 25 265 c 0,17,18
 25 334 25 334 42 386.5 c 128,-1,19
 59 439 59 439 89 474 c 128,-1,20
 119 509 119 509 160.5 527 c 128,-1,21
 202 545 202 545 252 545 c 0,22,23
 286 545 286 545 318 536 c 1,24,-1
 337 588 l 1,25,-1
 403 588 l 1,0,-1
252 451 m 0,26,27
 192 451 192 451 156.5 405.5 c 128,-1,28
 121 360 121 360 121 269 c 0,29,30
 121 166 121 166 167 120 c 1,31,-1
 285 446 l 1,32,33
 267 451 267 451 252 451 c 0,26,27
252 79 m 0,34,35
 309 79 309 79 346 120.5 c 128,-1,36
 383 162 383 162 383 244 c 0,37,38
 383 304 383 304 373 344 c 128,-1,39
 363 384 363 384 339 410 c 1,40,-1
 219 83 l 1,41,42
 235 79 235 79 252 79 c 0,34,35
EndSplineSet
Validated: 1
EndChar

StartChar: thorn
Encoding: 254 254 189
Width: 485
GlyphClass: 2
Flags: W
LayerCount: 2
Fore
SplineSet
35 695 m 1,0,-1
 134 729 l 1,1,-1
 134 476 l 1,2,3
 148 506 148 506 186 525.5 c 128,-1,4
 224 545 224 545 270 545 c 0,5,6
 358 545 358 545 409 474 c 128,-1,7
 460 403 460 403 460 266 c 0,8,9
 460 197 460 197 445.5 144.5 c 128,-1,10
 431 92 431 92 404.5 57 c 128,-1,11
 378 22 378 22 341.5 4 c 128,-1,12
 305 -14 305 -14 261 -14 c 0,13,14
 216 -14 216 -14 184 2.5 c 128,-1,15
 152 19 152 19 134 49 c 1,16,-1
 134 -159 l 1,17,-1
 35 -192 l 1,18,-1
 35 695 l 1,0,-1
240 81 m 0,19,20
 301 81 301 81 333.5 126.5 c 128,-1,21
 366 172 366 172 366 265 c 0,22,23
 366 356 366 356 334 403 c 128,-1,24
 302 450 302 450 244 450 c 0,25,26
 221 450 221 450 203.5 441.5 c 128,-1,27
 186 433 186 433 171.5 419 c 128,-1,28
 157 405 157 405 146.5 387 c 128,-1,29
 136 369 136 369 128 349 c 1,30,-1
 128 176 l 1,31,32
 170 81 170 81 240 81 c 0,19,20
EndSplineSet
Validated: 1
EndChar

StartChar: dotlessi
Encoding: 305 305 219
Width: 169
GlyphClass: 2
Flags: W
LayerCount: 2
Fore
SplineSet
35 531 m 1,0,-1
 134 531 l 1,1,-1
 134 0 l 1,2,-1
 35 0 l 1,3,-1
 35 531 l 1,0,-1
EndSplineSet
Validated: 1
EndChar

StartChar: Lslash
Encoding: 321 321 228
Width: 525
GlyphClass: 2
Flags: W
LayerCount: 2
Fore
SplineSet
18 325 m 1,0,-1
 89 354 l 1,1,-1
 89 692 l 1,2,-1
 188 692 l 1,3,-1
 188 397 l 1,4,-1
 320 453 l 1,5,-1
 350 380 l 1,6,-1
 188 309 l 1,7,-1
 188 97 l 1,8,-1
 513 97 l 1,9,-1
 513 0 l 1,10,-1
 89 0 l 1,11,-1
 89 267 l 1,12,-1
 48 249 l 1,13,-1
 18 325 l 1,0,-1
EndSplineSet
Validated: 1
EndChar

StartChar: lslash
Encoding: 322 322 229
Width: 287
GlyphClass: 2
Flags: W
LayerCount: 2
Fore
SplineSet
41 264 m 1,0,-1
 10 337 l 1,1,-1
 90 374 l 1,2,-1
 90 695 l 1,3,-1
 190 729 l 1,4,-1
 190 417 l 1,5,-1
 245 443 l 1,6,-1
 276 371 l 1,7,-1
 190 330 l 1,8,-1
 190 0 l 1,9,-1
 90 0 l 1,10,-1
 90 287 l 1,11,-1
 41 264 l 1,0,-1
EndSplineSet
Validated: 1
EndChar

StartChar: OE
Encoding: 338 338 238
Width: 922
GlyphClass: 2
Flags: W
LayerCount: 2
Fore
SplineSet
517 87 m 1,0,1
 482 36 482 36 429.5 11 c 128,-1,2
 377 -14 377 -14 304 -14 c 0,3,4
 245 -14 245 -14 194.5 9 c 128,-1,5
 144 32 144 32 106.5 77 c 128,-1,6
 69 122 69 122 47.5 189 c 128,-1,7
 26 256 26 256 26 345 c 0,8,9
 26 433 26 433 47.5 500.5 c 128,-1,10
 69 568 69 568 106.5 614 c 128,-1,11
 144 660 144 660 194.5 683 c 128,-1,12
 245 706 245 706 304 706 c 0,13,14
 446 706 446 706 517 603 c 1,15,-1
 517 692 l 1,16,-1
 884 692 l 1,17,-1
 884 592 l 1,18,-1
 612 592 l 1,19,-1
 612 403 l 1,20,-1
 786 403 l 1,21,-1
 786 304 l 1,22,-1
 612 304 l 1,23,-1
 612 97 l 1,24,-1
 893 97 l 1,25,-1
 893 0 l 1,26,-1
 517 0 l 1,27,-1
 517 87 l 1,0,1
318 606 m 0,28,29
 229 606 229 606 177 541 c 128,-1,30
 125 476 125 476 125 345 c 256,31,32
 125 214 125 214 177 149 c 128,-1,33
 229 84 229 84 318 84 c 256,34,35
 407 84 407 84 459.5 149.5 c 128,-1,36
 512 215 512 215 512 345 c 0,37,38
 512 476 512 476 460 541 c 128,-1,39
 408 606 408 606 318 606 c 0,28,29
EndSplineSet
Validated: 1
EndChar

StartChar: oe
Encoding: 339 339 239
Width: 854
GlyphClass: 2
Flags: W
LayerCount: 2
Fore
SplineSet
606 545 m 0,0,1
 655 545 655 545 696 526.5 c 128,-1,2
 737 508 737 508 766.5 472.5 c 128,-1,3
 796 437 796 437 812.5 386 c 128,-1,4
 829 335 829 335 829 270 c 0,5,6
 829 253 829 253 824 235 c 1,7,-1
 479 235 l 1,8,9
 484 160 484 160 521 119.5 c 128,-1,10
 558 79 558 79 617 79 c 0,11,12
 651 79 651 79 679.5 92.5 c 128,-1,13
 708 106 708 106 728 129 c 1,14,-1
 791 73 l 1,15,16
 765 35 765 35 716 10.5 c 128,-1,17
 667 -14 667 -14 611 -14 c 0,18,19
 553 -14 553 -14 506 11 c 128,-1,20
 459 36 459 36 430 87 c 1,21,22
 402 36 402 36 356 11 c 128,-1,23
 310 -14 310 -14 252 -14 c 0,24,25
 202 -14 202 -14 160.5 4 c 128,-1,26
 119 22 119 22 89 57 c 128,-1,27
 59 92 59 92 42 144 c 128,-1,28
 25 196 25 196 25 265 c 256,29,30
 25 334 25 334 42 386.5 c 128,-1,31
 59 439 59 439 89 474 c 128,-1,32
 119 509 119 509 160.5 527 c 128,-1,33
 202 545 202 545 252 545 c 0,34,35
 309 545 309 545 355 520 c 128,-1,36
 401 495 401 495 430 445 c 1,37,38
 457 495 457 495 502 520 c 128,-1,39
 547 545 547 545 606 545 c 0,0,1
252 447 m 256,40,41
 192 447 192 447 157.5 401.5 c 128,-1,42
 123 356 123 356 123 265 c 256,43,44
 123 174 123 174 157.5 128.5 c 128,-1,45
 192 83 192 83 252 83 c 256,46,47
 312 83 312 83 347 128.5 c 128,-1,48
 382 174 382 174 382 265 c 256,49,50
 382 356 382 356 347 401.5 c 128,-1,51
 312 447 312 447 252 447 c 256,40,41
606 453 m 0,52,53
 553 453 553 453 521 417.5 c 128,-1,54
 489 382 489 382 482 313 c 1,55,-1
 729 313 l 1,56,57
 722 382 722 382 690 417.5 c 128,-1,58
 658 453 658 453 606 453 c 0,52,53
EndSplineSet
Validated: 1
EndChar

StartChar: florin
Encoding: 402 402 273
Width: 2098
GlyphClass: 2
Flags: W
LayerCount: 2
Fore
SplineSet
45 223 m 1,0,-1
 166 223 l 1,1,-1
 166 273 l 1,2,-1
 134 273 l 1,3,-1
 134 429 l 1,4,-1
 166 429 l 1,5,-1
 166 484 l 1,6,-1
 134 484 l 1,7,-1
 134 550 l 1,8,-1
 914 550 l 1,9,-1
 914 468 l 1,10,11
 900 491 900 491 871 491 c 0,12,13
 789 491 789 491 789 355 c 0,14,15
 789 220 789 220 874 220 c 0,16,17
 900 220 900 220 929 253 c 1,18,-1
 929 223 l 1,19,-1
 972 223 l 1,20,-1
 972 550 l 1,21,-1
 1636 550 l 1,22,-1
 1636 504 l 1,23,-1
 1697 504 l 1,24,-1
 1697 550 l 1,25,-1
 2053 550 l 1,26,-1
 2053 99 l 1,27,-1
 45 99 l 1,28,-1
 45 223 l 1,0,-1
1601 223 m 1,29,-1
 1601 390 l 2,30,31
 1601 486 1601 486 1517 486 c 0,32,33
 1475 486 1475 486 1462 443 c 1,34,35
 1446 486 1446 486 1413 486 c 0,36,37
 1381 486 1381 486 1365 443 c 1,38,-1
 1365 484 l 1,39,-1
 1308 484 l 1,40,-1
 1308 273 l 1,41,-1
 1274 273 l 1,42,-1
 1274 223 l 1,43,-1
 1398 223 l 1,44,-1
 1398 273 l 1,45,-1
 1365 273 l 1,46,-1
 1365 381 l 2,47,48
 1365 422 1365 422 1398 422 c 0,49,50
 1425 422 1425 422 1425 381 c 2,51,-1
 1425 223 l 1,52,-1
 1516 223 l 1,53,-1
 1516 273 l 1,54,-1
 1482 273 l 1,55,-1
 1482 381 l 2,56,57
 1482 420 1482 420 1516 420 c 0,58,59
 1542 420 1542 420 1542 381 c 2,60,-1
 1542 223 l 1,61,-1
 1601 223 l 1,29,-1
390 140 m 1,62,-1
 448 140 l 1,63,-1
 448 239 l 1,64,65
 461 218 461 218 491 218 c 0,66,67
 573 218 573 218 573 353 c 256,68,69
 573 488 573 488 487 488 c 0,70,71
 462 488 462 488 432 452 c 1,72,-1
 432 484 l 1,73,-1
 390 484 l 1,74,-1
 390 140 l 1,62,-1
779 351 m 0,75,76
 779 490 779 490 681 490 c 0,77,78
 585 490 585 490 585 351 c 0,79,80
 585 216 585 216 681 216 c 0,81,82
 779 216 779 216 779 351 c 0,75,76
235 140 m 1,83,-1
 272 140 l 1,84,85
 370 151 370 151 370 266 c 2,86,-1
 370 484 l 1,87,-1
 311 484 l 1,88,-1
 311 323 l 2,89,90
 311 276 311 276 276 276 c 0,91,92
 242 276 242 276 242 323 c 2,93,-1
 242 484 l 1,94,-1
 185 484 l 1,95,-1
 185 333 l 2,96,97
 185 220 185 220 267 220 c 0,98,99
 291 220 291 220 311 234 c 1,100,101
 311 193 311 193 262 193 c 2,102,-1
 235 193 l 1,103,-1
 235 140 l 1,83,-1
1151 484 m 1,104,-1
 1125 484 l 1,105,-1
 1125 443 l 1,106,107
 1105 490 1105 490 1066 490 c 0,108,109
 990 490 990 490 990 413 c 0,110,111
 990 365 990 365 1029 349 c 1,112,113
 988 332 988 332 988 291 c 0,114,115
 988 253 988 253 1009 234.5 c 128,-1,116
 1030 216 1030 216 1068 216 c 0,117,118
 1107 216 1107 216 1129 239 c 128,-1,119
 1151 262 1151 262 1151 310 c 1,120,-1
 1125 310 l 1,121,122
 1121 276 1121 276 1080 276 c 0,123,124
 1045 276 1045 276 1045 301 c 0,125,126
 1045 333 1045 333 1080 333 c 2,127,-1
 1098 333 l 1,128,-1
 1098 365 l 1,129,-1
 1080 365 l 2,130,131
 1045 365 1045 365 1045 395 c 0,132,133
 1045 424 1045 424 1080 424 c 0,134,135
 1111 424 1111 424 1125 388 c 1,136,-1
 1151 388 l 1,137,-1
 1151 484 l 1,104,-1
1881 481 m 1,138,-1
 1853 481 l 1,139,-1
 1853 443 l 1,140,141
 1832 490 1832 490 1800 490 c 0,142,143
 1711 490 1711 490 1711 351 c 0,144,145
 1711 218 1711 218 1802 218 c 0,146,147
 1865 218 1865 218 1881 321 c 1,148,-1
 1853 321 l 1,149,150
 1848 280 1848 280 1809 280 c 0,151,152
 1768 280 1768 280 1768 351 c 0,153,154
 1768 424 1768 424 1809 424 c 0,155,156
 1848 424 1848 424 1853 376 c 1,157,-1
 1881 376 l 1,158,-1
 1881 481 l 1,138,-1
1249 273 m 1,159,-1
 1224 273 l 1,160,-1
 1224 388 l 2,161,162
 1224 424 1224 424 1249 424 c 0,163,164
 1259 424 1259 424 1270 413 c 1,165,-1
 1290 472 l 1,166,167
 1278 484 1278 484 1260 486 c 0,168,169
 1223 486 1223 486 1205 443 c 1,170,-1
 1205 484 l 1,171,-1
 1171 484 l 1,172,-1
 1171 223 l 1,173,-1
 1249 223 l 1,174,-1
 1249 273 l 1,159,-1
1610 484 m 1,175,-1
 1610 429 l 1,176,-1
 1636 429 l 1,177,-1
 1636 223 l 1,178,-1
 1697 223 l 1,179,-1
 1697 484 l 1,180,-1
 1610 484 l 1,175,-1
443 395 m 1,181,182
 453 422 453 422 480 422 c 0,183,184
 517 422 517 422 517 355 c 0,185,186
 517 278 517 278 478 278 c 0,187,188
 454 278 454 278 443 307 c 1,189,-1
 443 395 l 1,181,182
720 351 m 0,190,191
 720 280 720 280 681 280 c 0,192,193
 644 280 644 280 644 351 c 0,194,195
 644 424 644 424 681 424 c 0,196,197
 720 424 720 424 720 351 c 0,190,191
917 310 m 1,198,199
 907 285 907 285 882 285 c 0,200,201
 844 285 844 285 844 353 c 0,202,203
 844 429 844 429 883 429 c 0,204,205
 907 429 907 429 917 401 c 1,206,-1
 917 310 l 1,198,199
45 273 m 1,207,-1
 45 429 l 1,208,-1
 81 429 l 1,209,-1
 81 273 l 1,210,-1
 45 273 l 1,207,-1
45 484 m 1,211,-1
 45 550 l 1,212,-1
 81 550 l 1,213,-1
 81 484 l 1,214,-1
 45 484 l 1,211,-1
EndSplineSet
Validated: 1
EndChar

StartChar: circumflex
Encoding: 710 710 276
Width: 308
GlyphClass: 2
Flags: W
LayerCount: 2
Fore
SplineSet
154 650 m 1,0,-1
 45 559 l 1,1,-1
 14 595 l 1,2,-1
 154 738 l 1,3,-1
 294 595 l 1,4,-1
 263 559 l 1,5,-1
 154 650 l 1,0,-1
EndSplineSet
Validated: 1
EndChar

StartChar: caron
Encoding: 711 711 277
Width: 307
GlyphClass: 2
Flags: W
LayerCount: 2
Fore
SplineSet
153 647 m 1,0,-1
 261 738 l 1,1,-1
 293 702 l 1,2,-1
 153 559 l 1,3,-1
 13 702 l 1,4,-1
 44 738 l 1,5,-1
 153 647 l 1,0,-1
EndSplineSet
Validated: 1
EndChar

StartChar: breve
Encoding: 728 728 278
Width: 297
GlyphClass: 2
Flags: W
LayerCount: 2
Fore
SplineSet
148 560 m 256,0,1
 117 560 117 560 94 574 c 128,-1,2
 71 588 71 588 55 609.5 c 128,-1,3
 39 631 39 631 31 658.5 c 128,-1,4
 23 686 23 686 22 713 c 1,5,-1
 76 713 l 1,6,7
 78 696 78 696 84 680 c 128,-1,8
 90 664 90 664 99 651.5 c 128,-1,9
 108 639 108 639 120.5 631 c 128,-1,10
 133 623 133 623 148 623 c 256,11,12
 163 623 163 623 175.5 631 c 128,-1,13
 188 639 188 639 197 651.5 c 128,-1,14
 206 664 206 664 212 680 c 128,-1,15
 218 696 218 696 221 713 c 1,16,-1
 274 713 l 1,17,18
 273 686 273 686 265 658.5 c 128,-1,19
 257 631 257 631 241 609.5 c 128,-1,20
 225 588 225 588 202 574 c 128,-1,21
 179 560 179 560 148 560 c 256,0,1
EndSplineSet
Validated: 1
EndChar

StartChar: dotaccent
Encoding: 729 729 279
Width: 145
GlyphClass: 2
Flags: W
LayerCount: 2
Fore
SplineSet
72 614 m 0,0,1
 51 614 51 614 37.5 626.5 c 128,-1,2
 24 639 24 639 24 659 c 0,3,4
 24 680 24 680 37.5 693 c 128,-1,5
 51 706 51 706 72 706 c 0,6,7
 92 706 92 706 106 693 c 128,-1,8
 120 680 120 680 120 659 c 0,9,10
 120 639 120 639 106 626.5 c 128,-1,11
 92 614 92 614 72 614 c 0,0,1
EndSplineSet
Validated: 1
EndChar

StartChar: ring
Encoding: 730 730 280
Width: 221
GlyphClass: 2
Flags: W
LayerCount: 2
Fore
SplineSet
109 725 m 256,0,1
 127 725 127 725 143 718 c 128,-1,2
 159 711 159 711 171 699.5 c 128,-1,3
 183 688 183 688 190 672 c 128,-1,4
 197 656 197 656 197 638 c 256,5,6
 197 620 197 620 190 604.5 c 128,-1,7
 183 589 183 589 171 577 c 128,-1,8
 159 565 159 565 143 558 c 128,-1,9
 127 551 127 551 109 551 c 256,10,11
 91 551 91 551 75.5 558 c 128,-1,12
 60 565 60 565 48.5 577 c 128,-1,13
 37 589 37 589 30 604.5 c 128,-1,14
 23 620 23 620 23 638 c 256,15,16
 23 656 23 656 30 672 c 128,-1,17
 37 688 37 688 48.5 699.5 c 128,-1,18
 60 711 60 711 75.5 718 c 128,-1,19
 91 725 91 725 109 725 c 256,0,1
109 678 m 256,20,21
 92 678 92 678 80.5 666 c 128,-1,22
 69 654 69 654 69 638 c 0,23,24
 69 620 69 620 80.5 608.5 c 128,-1,25
 92 597 92 597 109 597 c 256,26,27
 126 597 126 597 138 608.5 c 128,-1,28
 150 620 150 620 150 638 c 0,29,30
 150 654 150 654 138 666 c 128,-1,31
 126 678 126 678 109 678 c 256,20,21
EndSplineSet
Validated: 1
EndChar

StartChar: ogonek
Encoding: 731 731 281
Width: 179
GlyphClass: 2
Flags: W
LayerCount: 2
Fore
SplineSet
165 -167 m 1,0,1
 157 -177 157 -177 138.5 -180.5 c 128,-1,2
 120 -184 120 -184 108 -184 c 0,3,4
 65 -184 65 -184 45.5 -149.5 c 128,-1,5
 26 -115 26 -115 26 -46 c 2,6,-1
 26 10 l 1,7,-1
 77 10 l 1,8,-1
 77 -39 l 2,9,10
 77 -73 77 -73 84.5 -96.5 c 128,-1,11
 92 -120 92 -120 121 -120 c 0,12,13
 125 -120 125 -120 136.5 -118.5 c 128,-1,14
 148 -117 148 -117 165 -108 c 1,15,-1
 165 -167 l 1,0,1
EndSplineSet
Validated: 1
EndChar

StartChar: tilde
Encoding: 732 732 282
Width: 445
GlyphClass: 2
Flags: W
LayerCount: 2
Fore
SplineSet
298 587 m 0,0,1
 271 587 271 587 250 600 c 128,-1,2
 229 613 229 613 211 628.5 c 128,-1,3
 193 644 193 644 176 657 c 128,-1,4
 159 670 159 670 140 670 c 0,5,6
 115 670 115 670 97.5 647 c 128,-1,7
 80 624 80 624 67 595 c 1,8,-1
 22 635 l 1,9,10
 36 679 36 679 69 706.5 c 128,-1,11
 102 734 102 734 135 734 c 0,12,13
 167 734 167 734 190 720.5 c 128,-1,14
 213 707 213 707 231.5 691.5 c 128,-1,15
 250 676 250 676 266 662.5 c 128,-1,16
 282 649 282 649 301 649 c 0,17,18
 326 649 326 649 344.5 673.5 c 128,-1,19
 363 698 363 698 376 729 c 1,20,-1
 421 689 l 1,21,22
 414 665 414 665 400.5 646 c 128,-1,23
 387 627 387 627 370 614 c 128,-1,24
 353 601 353 601 334.5 594 c 128,-1,25
 316 587 316 587 298 587 c 0,0,1
EndSplineSet
Validated: 1
EndChar

StartChar: hungarumlaut
Encoding: 733 733 283
Width: 353
GlyphClass: 2
Flags: W
LayerCount: 2
Fore
SplineSet
138 612 m 1,0,-1
 266 736 l 1,1,-1
 340 736 l 1,2,-1
 195 612 l 1,3,-1
 138 612 l 1,0,-1
18 612 m 1,4,-1
 129 736 l 1,5,-1
 199 736 l 1,6,-1
 75 612 l 1,7,-1
 18 612 l 1,4,-1
EndSplineSet
Validated: 1
EndChar

StartChar: afii10051
Encoding: 1026 1026 286
Width: 638
GlyphClass: 2
Flags: W
LayerCount: 2
Fore
SplineSet
483 223 m 2,0,1
 483 318 483 318 412 318 c 0,2,3
 358 318 358 318 327 248 c 1,4,-1
 327 0 l 1,5,-1
 191 0 l 1,6,-1
 191 556 l 1,7,-1
 4 556 l 1,8,-1
 4 692 l 1,9,-1
 511 692 l 1,10,-1
 511 556 l 1,11,-1
 327 556 l 1,12,-1
 327 404 l 1,13,14
 353 430 353 430 382.5 442 c 128,-1,15
 412 454 412 454 454 454 c 0,16,17
 488 454 488 454 518 441 c 128,-1,18
 548 428 548 428 570 402.5 c 128,-1,19
 592 377 592 377 605 340 c 128,-1,20
 618 303 618 303 618 255 c 2,21,-1
 618 213 l 2,22,23
 618 167 618 167 606 128 c 128,-1,24
 594 89 594 89 570 60.5 c 128,-1,25
 546 32 546 32 510 16 c 128,-1,26
 474 0 474 0 426 0 c 1,27,-1
 426 139 l 1,28,29
 454 139 454 139 468.5 158.5 c 128,-1,30
 483 178 483 178 483 213 c 2,31,-1
 483 223 l 2,0,1
EndSplineSet
Validated: 1
EndChar

StartChar: afii10053
Encoding: 1028 1028 288
Width: 593
GlyphClass: 2
Flags: W
LayerCount: 2
Fore
SplineSet
323 569 m 0,0,1
 259 569 259 569 218 529.5 c 128,-1,2
 177 490 177 490 165 409 c 1,3,-1
 444 409 l 1,4,-1
 444 303 l 1,5,-1
 163 303 l 1,6,7
 171 212 171 212 212.5 167 c 128,-1,8
 254 122 254 122 323 122 c 0,9,10
 359 122 359 122 397 140 c 128,-1,11
 435 158 435 158 468 201 c 1,12,-1
 567 123 l 1,13,14
 521 57 521 57 462 22 c 128,-1,15
 403 -13 403 -13 328 -13 c 0,16,17
 262 -13 262 -13 206.5 10 c 128,-1,18
 151 33 151 33 110.5 78 c 128,-1,19
 70 123 70 123 47 190 c 128,-1,20
 24 257 24 257 24 345 c 256,21,22
 24 433 24 433 47 500.5 c 128,-1,23
 70 568 70 568 110.5 613.5 c 128,-1,24
 151 659 151 659 206.5 682 c 128,-1,25
 262 705 262 705 328 705 c 0,26,27
 417 705 417 705 475 666 c 128,-1,28
 533 627 533 627 571 561 c 1,29,-1
 472 482 l 1,30,31
 437 527 437 527 399 548 c 128,-1,32
 361 569 361 569 323 569 c 0,0,1
EndSplineSet
Validated: 1
EndChar

StartChar: afii10058
Encoding: 1033 1033 293
Width: 919
GlyphClass: 2
Flags: W
LayerCount: 2
Fore
SplineSet
383 556 m 1,0,-1
 312 556 l 1,1,2
 281 0 281 0 13 0 c 1,3,-1
 13 134 l 1,4,5
 173 150 173 150 202 692 c 1,6,-1
 520 692 l 1,7,-1
 520 436 l 1,8,-1
 666 436 l 2,9,10
 718 436 718 436 761 422 c 128,-1,11
 804 408 804 408 835 380.5 c 128,-1,12
 866 353 866 353 882.5 312 c 128,-1,13
 899 271 899 271 899 217 c 256,14,15
 899 163 899 163 882.5 122.5 c 128,-1,16
 866 82 866 82 835 55 c 128,-1,17
 804 28 804 28 761 14 c 128,-1,18
 718 0 718 0 666 0 c 2,19,-1
 383 0 l 1,20,-1
 383 556 l 1,0,-1
520 133 m 1,21,-1
 670 133 l 2,22,23
 715 133 715 133 743 153 c 128,-1,24
 771 173 771 173 771 219 c 0,25,26
 771 267 771 267 743 287.5 c 128,-1,27
 715 308 715 308 670 308 c 2,28,-1
 520 308 l 1,29,-1
 520 133 l 1,21,-1
EndSplineSet
Validated: 1
EndChar

StartChar: afii10059
Encoding: 1034 1034 294
Width: 933
GlyphClass: 2
Flags: W
LayerCount: 2
Fore
SplineSet
405 308 m 1,0,-1
 171 308 l 1,1,-1
 171 0 l 1,2,-1
 35 0 l 1,3,-1
 35 692 l 1,4,-1
 171 692 l 1,5,-1
 171 436 l 1,6,-1
 405 436 l 1,7,-1
 405 692 l 1,8,-1
 542 692 l 1,9,-1
 542 436 l 1,10,-1
 688 436 l 2,11,12
 740 436 740 436 783 422 c 128,-1,13
 826 408 826 408 857 380.5 c 128,-1,14
 888 353 888 353 904.5 312 c 128,-1,15
 921 271 921 271 921 217 c 256,16,17
 921 163 921 163 904.5 122.5 c 128,-1,18
 888 82 888 82 857 55 c 128,-1,19
 826 28 826 28 783 14 c 128,-1,20
 740 0 740 0 688 0 c 2,21,-1
 405 0 l 1,22,-1
 405 308 l 1,0,-1
542 133 m 1,23,-1
 692 133 l 2,24,25
 737 133 737 133 765 153 c 128,-1,26
 793 173 793 173 793 219 c 0,27,28
 793 267 793 267 765 287.5 c 128,-1,29
 737 308 737 308 692 308 c 2,30,-1
 542 308 l 1,31,-1
 542 133 l 1,23,-1
EndSplineSet
Validated: 1
EndChar

StartChar: afii10060
Encoding: 1035 1035 295
Width: 638
GlyphClass: 2
Flags: W
LayerCount: 2
Fore
SplineSet
483 223 m 2,0,1
 483 318 483 318 412 318 c 0,2,3
 358 318 358 318 327 248 c 1,4,-1
 327 0 l 1,5,-1
 191 0 l 1,6,-1
 191 556 l 1,7,-1
 4 556 l 1,8,-1
 4 692 l 1,9,-1
 511 692 l 1,10,-1
 511 556 l 1,11,-1
 327 556 l 1,12,-1
 327 404 l 1,13,14
 353 430 353 430 382.5 442 c 128,-1,15
 412 454 412 454 454 454 c 0,16,17
 488 454 488 454 518 441 c 128,-1,18
 548 428 548 428 570 402.5 c 128,-1,19
 592 377 592 377 605 340 c 128,-1,20
 618 303 618 303 618 255 c 2,21,-1
 618 0 l 1,22,-1
 483 0 l 1,23,-1
 483 223 l 2,0,1
EndSplineSet
Validated: 1
EndChar

StartChar: afii10145
Encoding: 1039 1039 299
Width: 578
GlyphClass: 2
Flags: W
LayerCount: 2
Fore
SplineSet
221 0 m 1,0,-1
 35 0 l 1,1,-1
 35 692 l 1,2,-1
 172 692 l 1,3,-1
 172 136 l 1,4,-1
 406 136 l 1,5,-1
 406 692 l 1,6,-1
 542 692 l 1,7,-1
 542 0 l 1,8,-1
 357 0 l 1,9,-1
 357 -192 l 1,10,-1
 221 -192 l 1,11,-1
 221 0 l 1,0,-1
EndSplineSet
Validated: 1
EndChar

StartChar: afii10018
Encoding: 1041 1041 301
Width: 560
GlyphClass: 2
Flags: W
LayerCount: 2
Fore
SplineSet
35 0 m 1,0,-1
 35 692 l 1,1,-1
 476 692 l 1,2,-1
 476 558 l 1,3,-1
 171 558 l 1,4,-1
 171 436 l 1,5,-1
 317 436 l 2,6,7
 369 436 369 436 412 422 c 128,-1,8
 455 408 455 408 486 380.5 c 128,-1,9
 517 353 517 353 533.5 312 c 128,-1,10
 550 271 550 271 550 217 c 256,11,12
 550 163 550 163 533.5 122.5 c 128,-1,13
 517 82 517 82 486 55 c 128,-1,14
 455 28 455 28 412 14 c 128,-1,15
 369 0 369 0 317 0 c 2,16,-1
 35 0 l 1,0,-1
171 133 m 1,17,-1
 321 133 l 2,18,19
 366 133 366 133 394 153 c 128,-1,20
 422 173 422 173 422 219 c 0,21,22
 422 267 422 267 394 287.5 c 128,-1,23
 366 308 366 308 321 308 c 2,24,-1
 171 308 l 1,25,-1
 171 133 l 1,17,-1
EndSplineSet
Validated: 1
EndChar

StartChar: afii10020
Encoding: 1043 1043 303
Width: 486
GlyphClass: 2
Flags: W
LayerCount: 2
Fore
SplineSet
35 692 m 1,0,-1
 476 692 l 1,1,-1
 476 558 l 1,2,-1
 171 558 l 1,3,-1
 171 0 l 1,4,-1
 35 0 l 1,5,-1
 35 692 l 1,0,-1
EndSplineSet
Validated: 1
EndChar

StartChar: afii10021
Encoding: 1044 1044 304
Width: 666
GlyphClass: 2
Flags: W
LayerCount: 2
Fore
SplineSet
136 0 m 1,0,-1
 136 -192 l 1,1,-1
 0 -192 l 1,2,-1
 0 136 l 1,3,-1
 71 136 l 1,4,5
 220 171 220 171 248 692 c 1,6,-1
 566 692 l 1,7,-1
 566 136 l 1,8,-1
 656 136 l 1,9,-1
 656 -192 l 1,10,-1
 520 -192 l 1,11,-1
 520 0 l 1,12,-1
 136 0 l 1,0,-1
358 556 m 1,13,14
 342 274 342 274 266 136 c 1,15,-1
 429 136 l 1,16,-1
 429 556 l 1,17,-1
 358 556 l 1,13,14
EndSplineSet
Validated: 1
EndChar

StartChar: afii10024
Encoding: 1046 1046 306
Width: 956
GlyphClass: 2
Flags: W
LayerCount: 2
Fore
SplineSet
628 297 m 1,0,-1
 544 189 l 1,1,-1
 544 0 l 1,2,-1
 408 0 l 1,3,-1
 408 189 l 1,4,-1
 324 297 l 1,5,-1
 175 0 l 1,6,-1
 16 0 l 1,7,-1
 241 404 l 1,8,-1
 17 692 l 1,9,-1
 190 692 l 1,10,-1
 408 391 l 1,11,-1
 408 692 l 1,12,-1
 544 692 l 1,13,-1
 544 391 l 1,14,-1
 762 692 l 1,15,-1
 935 692 l 1,16,-1
 711 404 l 1,17,-1
 936 0 l 1,18,-1
 777 0 l 1,19,-1
 628 297 l 1,0,-1
EndSplineSet
Validated: 1
EndChar

StartChar: afii10025
Encoding: 1047 1047 307
Width: 554
GlyphClass: 2
Flags: W
LayerCount: 2
Fore
SplineSet
268 698 m 0,0,1
 311 698 311 698 350.5 687 c 128,-1,2
 390 676 390 676 420.5 654 c 128,-1,3
 451 632 451 632 469 599 c 128,-1,4
 487 566 487 566 487 521 c 0,5,6
 487 468 487 468 472 437.5 c 128,-1,7
 457 407 457 407 427 387 c 1,8,9
 472 373 472 373 501 329 c 128,-1,10
 530 285 530 285 530 225 c 0,11,12
 530 172 530 172 510.5 129.5 c 128,-1,13
 491 87 491 87 455.5 57 c 128,-1,14
 420 27 420 27 371 10.5 c 128,-1,15
 322 -6 322 -6 262 -6 c 0,16,17
 184 -6 184 -6 122.5 21 c 128,-1,18
 61 48 61 48 18 96 c 1,19,-1
 105 201 l 1,20,21
 123 183 123 183 144 169.5 c 128,-1,22
 165 156 165 156 186 147 c 128,-1,23
 207 138 207 138 227 134 c 128,-1,24
 247 130 247 130 263 130 c 0,25,26
 326 130 326 130 362 154.5 c 128,-1,27
 398 179 398 179 398 224 c 0,28,29
 398 266 398 266 373.5 289 c 128,-1,30
 349 312 349 312 298 312 c 2,31,-1
 213 312 l 1,32,-1
 213 436 l 1,33,-1
 286 436 l 2,34,35
 321 436 321 436 340.5 452.5 c 128,-1,36
 360 469 360 469 360 499 c 0,37,38
 360 517 360 517 351.5 529 c 128,-1,39
 343 541 343 541 329.5 548.5 c 128,-1,40
 316 556 316 556 300 559.5 c 128,-1,41
 284 563 284 563 268 563 c 0,42,43
 234 563 234 563 199 548.5 c 128,-1,44
 164 534 164 534 144 510 c 1,45,-1
 59 611 l 1,46,47
 92 656 92 656 148.5 677 c 128,-1,48
 205 698 205 698 268 698 c 0,0,1
EndSplineSet
Validated: 1
EndChar

StartChar: afii10026
Encoding: 1048 1048 308
Width: 592
GlyphClass: 2
Flags: W
LayerCount: 2
Fore
SplineSet
424 692 m 1,0,-1
 556 692 l 1,1,-1
 556 0 l 1,2,-1
 420 0 l 1,3,-1
 420 423 l 1,4,-1
 167 0 l 1,5,-1
 35 0 l 1,6,-1
 35 692 l 1,7,-1
 171 692 l 1,8,-1
 171 268 l 1,9,-1
 424 692 l 1,0,-1
EndSplineSet
Validated: 1
EndChar

StartChar: afii10029
Encoding: 1051 1051 311
Width: 556
GlyphClass: 2
Flags: W
LayerCount: 2
Fore
SplineSet
383 556 m 1,0,-1
 312 556 l 1,1,2
 281 0 281 0 13 0 c 1,3,-1
 13 134 l 1,4,5
 173 150 173 150 202 692 c 1,6,-1
 520 692 l 1,7,-1
 520 0 l 1,8,-1
 383 0 l 1,9,-1
 383 556 l 1,0,-1
EndSplineSet
Validated: 1
EndChar

StartChar: afii10033
Encoding: 1055 1055 315
Width: 578
GlyphClass: 2
Flags: W
LayerCount: 2
Fore
SplineSet
405 556 m 1,0,-1
 171 556 l 1,1,-1
 171 0 l 1,2,-1
 35 0 l 1,3,-1
 35 692 l 1,4,-1
 542 692 l 1,5,-1
 542 0 l 1,6,-1
 405 0 l 1,7,-1
 405 556 l 1,0,-1
EndSplineSet
Validated: 1
EndChar

StartChar: afii10037
Encoding: 1059 1059 319
Width: 644
GlyphClass: 2
Flags: W
LayerCount: 2
Fore
SplineSet
26 692 m 1,0,-1
 188 692 l 1,1,-1
 327 464 l 1,2,-1
 456 692 l 1,3,-1
 616 692 l 1,4,-1
 187 0 l 1,5,-1
 26 0 l 1,6,-1
 245 352 l 1,7,-1
 26 692 l 1,0,-1
EndSplineSet
Validated: 1
EndChar

StartChar: afii10038
Encoding: 1060 1060 320
Width: 641
GlyphClass: 2
Flags: W
LayerCount: 2
Fore
SplineSet
252 166 m 1,0,1
 201 172 201 172 159 187.5 c 128,-1,2
 117 203 117 203 87 227 c 128,-1,3
 57 251 57 251 40.5 284 c 128,-1,4
 24 317 24 317 24 358 c 0,5,6
 24 400 24 400 40.5 433 c 128,-1,7
 57 466 57 466 87 490 c 128,-1,8
 117 514 117 514 159 529 c 128,-1,9
 201 544 201 544 252 550 c 1,10,-1
 252 692 l 1,11,-1
 388 692 l 1,12,-1
 388 550 l 1,13,14
 439 544 439 544 481 529 c 128,-1,15
 523 514 523 514 553 490 c 128,-1,16
 583 466 583 466 599.5 433 c 128,-1,17
 616 400 616 400 616 358 c 0,18,19
 616 317 616 317 599.5 284 c 128,-1,20
 583 251 583 251 553 227 c 128,-1,21
 523 203 523 203 481 187.5 c 128,-1,22
 439 172 439 172 388 166 c 1,23,-1
 388 0 l 1,24,-1
 252 0 l 1,25,-1
 252 166 l 1,0,1
483 358 m 256,26,27
 483 382 483 382 475 399 c 128,-1,28
 467 416 467 416 453.5 427.5 c 128,-1,29
 440 439 440 439 423 444.5 c 128,-1,30
 406 450 406 450 388 450 c 1,31,-1
 388 266 l 1,32,33
 406 266 406 266 423 271.5 c 128,-1,34
 440 277 440 277 453.5 288.5 c 128,-1,35
 467 300 467 300 475 317 c 128,-1,36
 483 334 483 334 483 358 c 256,26,27
159 358 m 256,37,38
 159 334 159 334 167 317 c 128,-1,39
 175 300 175 300 188 288.5 c 128,-1,40
 201 277 201 277 218 272 c 128,-1,41
 235 267 235 267 252 267 c 1,42,-1
 252 450 l 1,43,44
 235 450 235 450 218 444.5 c 128,-1,45
 201 439 201 439 188 428 c 128,-1,46
 175 417 175 417 167 399.5 c 128,-1,47
 159 382 159 382 159 358 c 256,37,38
EndSplineSet
Validated: 1
EndChar

StartChar: afii10040
Encoding: 1062 1062 322
Width: 698
GlyphClass: 2
Flags: W
LayerCount: 2
Fore
SplineSet
542 0 m 1,0,-1
 35 0 l 1,1,-1
 35 692 l 1,2,-1
 172 692 l 1,3,-1
 172 136 l 1,4,-1
 406 136 l 1,5,-1
 406 692 l 1,6,-1
 542 692 l 1,7,-1
 542 136 l 1,8,-1
 678 136 l 1,9,-1
 678 -192 l 1,10,-1
 542 -192 l 1,11,-1
 542 0 l 1,0,-1
EndSplineSet
Validated: 1
EndChar

StartChar: afii10041
Encoding: 1063 1063 323
Width: 580
GlyphClass: 2
Flags: W
LayerCount: 2
Fore
SplineSet
408 241 m 1,0,1
 354 211 354 211 288 211 c 0,2,3
 236 211 236 211 190 231 c 128,-1,4
 144 251 144 251 109.5 286 c 128,-1,5
 75 321 75 321 54.5 369 c 128,-1,6
 34 417 34 417 34 473 c 2,7,-1
 34 692 l 1,8,-1
 170 692 l 1,9,-1
 170 473 l 2,10,11
 170 447 170 447 179 424 c 128,-1,12
 188 401 188 401 204 383.5 c 128,-1,13
 220 366 220 366 241.5 356 c 128,-1,14
 263 346 263 346 288 346 c 0,15,16
 312 346 312 346 333.5 355.5 c 128,-1,17
 355 365 355 365 371.5 381.5 c 128,-1,18
 388 398 388 398 398 420 c 128,-1,19
 408 442 408 442 408 468 c 2,20,-1
 408 692 l 1,21,-1
 544 692 l 1,22,-1
 544 0 l 1,23,-1
 408 0 l 1,24,-1
 408 241 l 1,0,1
EndSplineSet
Validated: 1
EndChar

StartChar: afii10042
Encoding: 1064 1064 324
Width: 774
GlyphClass: 2
Flags: W
LayerCount: 2
Fore
SplineSet
35 0 m 1,0,-1
 35 692 l 1,1,-1
 172 692 l 1,2,-1
 172 136 l 1,3,-1
 318 136 l 1,4,-1
 318 692 l 1,5,-1
 455 692 l 1,6,-1
 455 136 l 1,7,-1
 602 136 l 1,8,-1
 602 692 l 1,9,-1
 738 692 l 1,10,-1
 738 0 l 1,11,-1
 35 0 l 1,0,-1
EndSplineSet
Validated: 1
EndChar

StartChar: afii10043
Encoding: 1065 1065 325
Width: 893
GlyphClass: 2
Flags: W
LayerCount: 2
Fore
SplineSet
34 0 m 1,0,-1
 34 692 l 1,1,-1
 171 692 l 1,2,-1
 171 136 l 1,3,-1
 317 136 l 1,4,-1
 317 692 l 1,5,-1
 454 692 l 1,6,-1
 454 136 l 1,7,-1
 601 136 l 1,8,-1
 601 692 l 1,9,-1
 737 692 l 1,10,-1
 737 136 l 1,11,-1
 873 136 l 1,12,-1
 873 -192 l 1,13,-1
 737 -192 l 1,14,-1
 737 0 l 1,15,-1
 34 0 l 1,0,-1
EndSplineSet
Validated: 1
EndChar

StartChar: afii10044
Encoding: 1066 1066 326
Width: 650
GlyphClass: 2
Flags: W
LayerCount: 2
Fore
SplineSet
261 436 m 1,0,-1
 407 436 l 2,1,2
 459 436 459 436 502 422 c 128,-1,3
 545 408 545 408 576 380.5 c 128,-1,4
 607 353 607 353 623.5 312 c 128,-1,5
 640 271 640 271 640 217 c 256,6,7
 640 163 640 163 623.5 122.5 c 128,-1,8
 607 82 607 82 576 55 c 128,-1,9
 545 28 545 28 502 14 c 128,-1,10
 459 0 459 0 407 0 c 2,11,-1
 125 0 l 1,12,-1
 125 556 l 1,13,-1
 0 556 l 1,14,-1
 0 692 l 1,15,-1
 261 692 l 1,16,-1
 261 436 l 1,0,-1
261 133 m 1,17,-1
 411 133 l 2,18,19
 456 133 456 133 484 153 c 128,-1,20
 512 173 512 173 512 219 c 0,21,22
 512 267 512 267 484 287.5 c 128,-1,23
 456 308 456 308 411 308 c 2,24,-1
 261 308 l 1,25,-1
 261 133 l 1,17,-1
EndSplineSet
Validated: 1
EndChar

StartChar: afii10046
Encoding: 1068 1068 328
Width: 560
GlyphClass: 2
Flags: W
LayerCount: 2
Fore
SplineSet
35 0 m 1,0,-1
 35 692 l 1,1,-1
 171 692 l 1,2,-1
 171 436 l 1,3,-1
 317 436 l 2,4,5
 369 436 369 436 412 422 c 128,-1,6
 455 408 455 408 486 380.5 c 128,-1,7
 517 353 517 353 533.5 312 c 128,-1,8
 550 271 550 271 550 217 c 256,9,10
 550 163 550 163 533.5 122.5 c 128,-1,11
 517 82 517 82 486 55 c 128,-1,12
 455 28 455 28 412 14 c 128,-1,13
 369 0 369 0 317 0 c 2,14,-1
 35 0 l 1,0,-1
171 133 m 1,15,-1
 321 133 l 2,16,17
 366 133 366 133 394 153 c 128,-1,18
 422 173 422 173 422 219 c 0,19,20
 422 267 422 267 394 287.5 c 128,-1,21
 366 308 366 308 321 308 c 2,22,-1
 171 308 l 1,23,-1
 171 133 l 1,15,-1
EndSplineSet
Validated: 1
EndChar

StartChar: afii10047
Encoding: 1069 1069 329
Width: 593
GlyphClass: 2
Flags: W
LayerCount: 2
Fore
SplineSet
270 569 m 0,0,1
 232 569 232 569 194 548 c 128,-1,2
 156 527 156 527 121 482 c 1,3,-1
 22 561 l 1,4,5
 60 627 60 627 118 666 c 128,-1,6
 176 705 176 705 265 705 c 0,7,8
 331 705 331 705 386.5 682 c 128,-1,9
 442 659 442 659 482.5 613.5 c 128,-1,10
 523 568 523 568 546 500.5 c 128,-1,11
 569 433 569 433 569 345 c 256,12,13
 569 257 569 257 546 190 c 128,-1,14
 523 123 523 123 482.5 78 c 128,-1,15
 442 33 442 33 386.5 10 c 128,-1,16
 331 -13 331 -13 265 -13 c 0,17,18
 190 -13 190 -13 131 22 c 128,-1,19
 72 57 72 57 26 123 c 1,20,-1
 125 201 l 1,21,22
 158 158 158 158 196 140 c 128,-1,23
 234 122 234 122 270 122 c 0,24,25
 339 122 339 122 380.5 167 c 128,-1,26
 422 212 422 212 430 303 c 1,27,-1
 149 303 l 1,28,-1
 149 409 l 1,29,-1
 428 409 l 1,30,31
 416 490 416 490 375 529.5 c 128,-1,32
 334 569 334 569 270 569 c 0,0,1
EndSplineSet
Validated: 1
EndChar

StartChar: afii10048
Encoding: 1070 1070 330
Width: 848
GlyphClass: 2
Flags: W
LayerCount: 2
Fore
SplineSet
526 705 m 0,0,1
 591 705 591 705 645.5 682 c 128,-1,2
 700 659 700 659 739 613.5 c 128,-1,3
 778 568 778 568 800 500.5 c 128,-1,4
 822 433 822 433 822 345 c 256,5,6
 822 257 822 257 800 190 c 128,-1,7
 778 123 778 123 739 78 c 128,-1,8
 700 33 700 33 645.5 10 c 128,-1,9
 591 -13 591 -13 526 -13 c 0,10,11
 466 -13 466 -13 415 6.5 c 128,-1,12
 364 26 364 26 325.5 65 c 128,-1,13
 287 104 287 104 263 161.5 c 128,-1,14
 239 219 239 219 233 295 c 1,15,-1
 171 295 l 1,16,-1
 171 0 l 1,17,-1
 35 0 l 1,18,-1
 35 692 l 1,19,-1
 171 692 l 1,20,-1
 171 399 l 1,21,-1
 233 399 l 1,22,23
 240 474 240 474 264 531 c 128,-1,24
 288 588 288 588 326.5 627 c 128,-1,25
 365 666 365 666 415.5 685.5 c 128,-1,26
 466 705 466 705 526 705 c 0,0,1
526 569 m 256,27,28
 451 569 451 569 409 513 c 128,-1,29
 367 457 367 457 367 345 c 256,30,31
 367 233 367 233 409 177.5 c 128,-1,32
 451 122 451 122 526 122 c 256,33,34
 601 122 601 122 644 177.5 c 128,-1,35
 687 233 687 233 687 345 c 256,36,37
 687 457 687 457 644 513 c 128,-1,38
 601 569 601 569 526 569 c 256,27,28
EndSplineSet
Validated: 1
EndChar

StartChar: afii10049
Encoding: 1071 1071 331
Width: 601
GlyphClass: 2
Flags: W
LayerCount: 2
Fore
SplineSet
186 0 m 1,0,-1
 26 0 l 1,1,-1
 183 279 l 1,2,3
 157 288 157 288 133 304 c 128,-1,4
 109 320 109 320 91 345 c 128,-1,5
 73 370 73 370 62.5 404 c 128,-1,6
 52 438 52 438 52 482 c 0,7,8
 52 533 52 533 68.5 572 c 128,-1,9
 85 611 85 611 115.5 638 c 128,-1,10
 146 665 146 665 188.5 678.5 c 128,-1,11
 231 692 231 692 284 692 c 2,12,-1
 567 692 l 1,13,-1
 567 0 l 1,14,-1
 431 0 l 1,15,-1
 431 256 l 1,16,-1
 318 256 l 1,17,-1
 186 0 l 1,0,-1
431 559 m 1,18,-1
 280 559 l 2,19,20
 235 559 235 559 207.5 539 c 128,-1,21
 180 519 180 519 180 473 c 0,22,23
 180 425 180 425 207.5 404.5 c 128,-1,24
 235 384 235 384 280 384 c 2,25,-1
 431 384 l 1,26,-1
 431 559 l 1,18,-1
EndSplineSet
Validated: 1
EndChar

StartChar: afii10067
Encoding: 1074 1074 334
Width: 515
GlyphClass: 2
Flags: W
LayerCount: 2
Fore
SplineSet
264 541 m 2,0,1
 352 541 352 541 401 500.5 c 128,-1,2
 450 460 450 460 450 394 c 0,3,4
 450 354 450 354 432.5 329.5 c 128,-1,5
 415 305 415 305 390 289 c 1,6,7
 410 283 410 283 430 271.5 c 128,-1,8
 450 260 450 260 465.5 243 c 128,-1,9
 481 226 481 226 490.5 203.5 c 128,-1,10
 500 181 500 181 500 152 c 0,11,12
 500 77 500 77 442.5 38.5 c 128,-1,13
 385 0 385 0 276 0 c 2,14,-1
 35 0 l 1,15,-1
 35 541 l 1,16,-1
 264 541 l 2,0,1
267 323 m 2,17,18
 293 323 293 323 307.5 341.5 c 128,-1,19
 322 360 322 360 322 382 c 0,20,21
 322 407 322 407 309 422 c 128,-1,22
 296 437 296 437 267 437 c 2,23,-1
 169 437 l 1,24,-1
 169 323 l 1,25,-1
 267 323 l 2,17,18
169 103 m 1,26,-1
 287 103 l 2,27,28
 371 103 371 103 371 164 c 0,29,30
 371 194 371 194 343 211.5 c 128,-1,31
 315 229 315 229 277 229 c 2,32,-1
 169 229 l 1,33,-1
 169 103 l 1,26,-1
EndSplineSet
Validated: 1
EndChar

StartChar: afii10068
Encoding: 1075 1075 335
Width: 394
GlyphClass: 2
Flags: W
LayerCount: 2
Fore
SplineSet
384 541 m 1,0,-1
 384 408 l 1,1,-1
 170 408 l 1,2,-1
 170 0 l 1,3,-1
 34 0 l 1,4,-1
 34 541 l 1,5,-1
 384 541 l 1,0,-1
EndSplineSet
Validated: 1
EndChar

StartChar: afii10069
Encoding: 1076 1076 336
Width: 666
GlyphClass: 2
Flags: W
LayerCount: 2
Fore
SplineSet
136 0 m 1,0,-1
 136 -150 l 1,1,-1
 0 -150 l 1,2,-1
 0 106 l 1,3,-1
 71 106 l 1,4,5
 219 133 219 133 248 541 c 1,6,-1
 566 541 l 1,7,-1
 566 106 l 1,8,-1
 656 106 l 1,9,-1
 656 -150 l 1,10,-1
 520 -150 l 1,11,-1
 520 0 l 1,12,-1
 136 0 l 1,0,-1
358 435 m 1,13,14
 342 213 342 213 266 106 c 1,15,-1
 429 106 l 1,16,-1
 429 435 l 1,17,-1
 358 435 l 1,13,14
EndSplineSet
Validated: 1
EndChar

StartChar: afii10072
Encoding: 1078 1078 338
Width: 765
GlyphClass: 2
Flags: W
LayerCount: 2
Fore
SplineSet
601 0 m 1,0,-1
 502 252 l 1,1,-1
 452 189 l 1,2,-1
 452 0 l 1,3,-1
 316 0 l 1,4,-1
 316 189 l 1,5,-1
 266 252 l 1,6,-1
 167 0 l 1,7,-1
 8 0 l 1,8,-1
 183 357 l 1,9,-1
 37 541 l 1,10,-1
 212 541 l 1,11,-1
 316 389 l 1,12,-1
 316 541 l 1,13,-1
 452 541 l 1,14,-1
 452 389 l 1,15,-1
 556 541 l 1,16,-1
 731 541 l 1,17,-1
 585 357 l 1,18,-1
 760 0 l 1,19,-1
 601 0 l 1,0,-1
EndSplineSet
Validated: 1
EndChar

StartChar: afii10073
Encoding: 1079 1079 339
Width: 554
GlyphClass: 2
Flags: W
LayerCount: 2
Fore
SplineSet
268 546 m 0,0,1
 311 546 311 546 350.5 537.5 c 128,-1,2
 390 529 390 529 420.5 511.5 c 128,-1,3
 451 494 451 494 469 468 c 128,-1,4
 487 442 487 442 487 407 c 0,5,6
 487 365 487 365 472 342 c 128,-1,7
 457 319 457 319 427 303 c 1,8,9
 472 292 472 292 501 258 c 128,-1,10
 530 224 530 224 530 176 c 0,11,12
 530 135 530 135 510.5 101.5 c 128,-1,13
 491 68 491 68 455.5 44.5 c 128,-1,14
 420 21 420 21 371 8 c 128,-1,15
 322 -5 322 -5 262 -5 c 0,16,17
 184 -5 184 -5 122.5 16 c 128,-1,18
 61 37 61 37 18 75 c 1,19,-1
 105 157 l 1,20,21
 123 143 123 143 144 132.5 c 128,-1,22
 165 122 165 122 186 115 c 128,-1,23
 207 108 207 108 227 105 c 128,-1,24
 247 102 247 102 263 102 c 0,25,26
 326 102 326 102 362 121 c 128,-1,27
 398 140 398 140 398 175 c 0,28,29
 398 208 398 208 373.5 226 c 128,-1,30
 349 244 349 244 298 244 c 2,31,-1
 213 244 l 1,32,-1
 213 341 l 1,33,-1
 286 341 l 2,34,35
 321 341 321 341 340.5 354 c 128,-1,36
 360 367 360 367 360 390 c 0,37,38
 360 404 360 404 351.5 413.5 c 128,-1,39
 343 423 343 423 329.5 429 c 128,-1,40
 316 435 316 435 300 437.5 c 128,-1,41
 284 440 284 440 268 440 c 0,42,43
 234 440 234 440 199 429 c 128,-1,44
 164 418 164 418 144 399 c 1,45,-1
 59 478 l 1,46,47
 92 513 92 513 148.5 529.5 c 128,-1,48
 205 546 205 546 268 546 c 0,0,1
EndSplineSet
Validated: 1
EndChar

StartChar: afii10074
Encoding: 1080 1080 340
Width: 592
GlyphClass: 2
Flags: W
LayerCount: 2
Fore
SplineSet
424 541 m 1,0,-1
 556 541 l 1,1,-1
 556 0 l 1,2,-1
 420 0 l 1,3,-1
 420 331 l 1,4,-1
 167 0 l 1,5,-1
 35 0 l 1,6,-1
 35 541 l 1,7,-1
 171 541 l 1,8,-1
 171 210 l 1,9,-1
 424 541 l 1,0,-1
EndSplineSet
Validated: 1
EndChar

StartChar: afii10076
Encoding: 1082 1082 342
Width: 484
GlyphClass: 2
Flags: W
LayerCount: 2
Fore
SplineSet
320 0 m 1,0,-1
 221 252 l 1,1,-1
 171 189 l 1,2,-1
 171 0 l 1,3,-1
 35 0 l 1,4,-1
 35 541 l 1,5,-1
 171 541 l 1,6,-1
 171 389 l 1,7,-1
 275 541 l 1,8,-1
 450 541 l 1,9,-1
 304 357 l 1,10,-1
 479 0 l 1,11,-1
 320 0 l 1,0,-1
EndSplineSet
Validated: 1
EndChar

StartChar: afii10077
Encoding: 1083 1083 343
Width: 556
GlyphClass: 2
Flags: W
LayerCount: 2
Fore
SplineSet
383 435 m 1,0,-1
 312 435 l 1,1,2
 280 0 280 0 13 0 c 1,3,-1
 13 105 l 1,4,5
 174 117 174 117 202 541 c 1,6,-1
 520 541 l 1,7,-1
 520 0 l 1,8,-1
 383 0 l 1,9,-1
 383 435 l 1,0,-1
EndSplineSet
Validated: 1
EndChar

StartChar: afii10078
Encoding: 1084 1084 344
Width: 723
GlyphClass: 2
Flags: W
LayerCount: 2
Fore
SplineSet
687 541 m 1,0,-1
 687 0 l 1,1,-1
 551 0 l 1,2,-1
 551 282 l 1,3,-1
 398 0 l 1,4,-1
 324 0 l 1,5,-1
 171 282 l 1,6,-1
 171 0 l 1,7,-1
 35 0 l 1,8,-1
 35 541 l 1,9,-1
 175 541 l 1,10,-1
 361 200 l 1,11,-1
 547 541 l 1,12,-1
 687 541 l 1,0,-1
EndSplineSet
Validated: 1
EndChar

StartChar: afii10079
Encoding: 1085 1085 345
Width: 555
GlyphClass: 2
Flags: W
LayerCount: 2
Fore
SplineSet
384 214 m 1,0,-1
 170 214 l 1,1,-1
 170 0 l 1,2,-1
 34 0 l 1,3,-1
 34 538 l 1,4,-1
 170 538 l 1,5,-1
 170 350 l 1,6,-1
 384 350 l 1,7,-1
 384 538 l 1,8,-1
 521 538 l 1,9,-1
 521 0 l 1,10,-1
 384 0 l 1,11,-1
 384 214 l 1,0,-1
EndSplineSet
Validated: 1
EndChar

StartChar: afii10081
Encoding: 1087 1087 347
Width: 555
GlyphClass: 2
Flags: W
LayerCount: 2
Fore
SplineSet
384 408 m 1,0,-1
 170 408 l 1,1,-1
 170 0 l 1,2,-1
 34 0 l 1,3,-1
 34 541 l 1,4,-1
 521 541 l 1,5,-1
 521 0 l 1,6,-1
 384 0 l 1,7,-1
 384 408 l 1,0,-1
EndSplineSet
Validated: 1
EndChar

StartChar: afii10084
Encoding: 1090 1090 350
Width: 464
GlyphClass: 2
Flags: W
LayerCount: 2
Fore
SplineSet
454 541 m 1,0,-1
 454 408 l 1,1,-1
 300 408 l 1,2,-1
 300 0 l 1,3,-1
 164 0 l 1,4,-1
 164 408 l 1,5,-1
 12 408 l 1,6,-1
 12 541 l 1,7,-1
 454 541 l 1,0,-1
EndSplineSet
Validated: 1
EndChar

StartChar: afii10086
Encoding: 1092 1092 352
Width: 809
GlyphClass: 2
Flags: W
LayerCount: 2
Fore
SplineSet
336 23 m 1,0,1
 317 7 317 7 288 -3 c 128,-1,2
 259 -13 259 -13 227 -13 c 0,3,4
 186 -13 186 -13 150 5.5 c 128,-1,5
 114 24 114 24 87.5 60 c 128,-1,6
 61 96 61 96 46 149 c 128,-1,7
 31 202 31 202 31 270 c 0,8,9
 31 340 31 340 45.5 393 c 128,-1,10
 60 446 60 446 86.5 482 c 128,-1,11
 113 518 113 518 148.5 536 c 128,-1,12
 184 554 184 554 226 554 c 0,13,14
 271 554 271 554 297 540.5 c 128,-1,15
 323 527 323 527 336 507 c 1,16,-1
 336 683 l 1,17,-1
 472 729 l 1,18,-1
 472 496 l 1,19,20
 484 520 484 520 519.5 537 c 128,-1,21
 555 554 555 554 600 554 c 0,22,23
 685 554 685 554 731.5 482 c 128,-1,24
 778 410 778 410 778 271 c 0,25,26
 778 201 778 201 763.5 148 c 128,-1,27
 749 95 749 95 722.5 59 c 128,-1,28
 696 23 696 23 660.5 5 c 128,-1,29
 625 -13 625 -13 583 -13 c 0,30,31
 538 -13 538 -13 511 0 c 128,-1,32
 484 13 484 13 472 34 c 1,33,-1
 472 -146 l 1,34,-1
 336 -192 l 1,35,-1
 336 23 l 1,0,1
550 116 m 0,36,37
 649 116 649 116 649 270 c 0,38,39
 649 345 649 345 624.5 384 c 128,-1,40
 600 423 600 423 554 423 c 0,41,42
 525 423 525 423 505.5 405 c 128,-1,43
 486 387 486 387 472 362 c 1,44,-1
 472 172 l 1,45,46
 504 116 504 116 550 116 c 0,36,37
259 425 m 0,47,48
 160 425 160 425 160 271 c 0,49,50
 160 196 160 196 184.5 157 c 128,-1,51
 209 118 209 118 255 118 c 0,52,53
 283 118 283 118 302.5 134 c 128,-1,54
 322 150 322 150 336 175 c 1,55,-1
 336 372 l 1,56,57
 304 425 304 425 259 425 c 0,47,48
EndSplineSet
Validated: 1
EndChar

StartChar: afii10088
Encoding: 1094 1094 354
Width: 662
GlyphClass: 2
Flags: W
LayerCount: 2
Fore
SplineSet
508 0 m 1,0,-1
 35 0 l 1,1,-1
 35 541 l 1,2,-1
 172 541 l 1,3,-1
 172 106 l 1,4,-1
 372 106 l 1,5,-1
 372 541 l 1,6,-1
 508 541 l 1,7,-1
 508 106 l 1,8,-1
 644 106 l 1,9,-1
 644 -150 l 1,10,-1
 508 -150 l 1,11,-1
 508 0 l 1,0,-1
EndSplineSet
Validated: 1
EndChar

StartChar: afii10089
Encoding: 1095 1095 355
Width: 580
GlyphClass: 2
Flags: W
LayerCount: 2
Fore
SplineSet
408 188 m 1,0,1
 351 165 351 165 288 165 c 0,2,3
 236 165 236 165 190 180.5 c 128,-1,4
 144 196 144 196 109.5 223.5 c 128,-1,5
 75 251 75 251 54.5 288.5 c 128,-1,6
 34 326 34 326 34 370 c 2,7,-1
 34 541 l 1,8,-1
 170 541 l 1,9,-1
 170 370 l 2,10,11
 170 350 170 350 179 332 c 128,-1,12
 188 314 188 314 204 300.5 c 128,-1,13
 220 287 220 287 241.5 279 c 128,-1,14
 263 271 263 271 288 271 c 0,15,16
 312 271 312 271 333.5 278.5 c 128,-1,17
 355 286 355 286 371.5 299 c 128,-1,18
 388 312 388 312 398 329 c 128,-1,19
 408 346 408 346 408 366 c 2,20,-1
 408 541 l 1,21,-1
 544 541 l 1,22,-1
 544 0 l 1,23,-1
 408 0 l 1,24,-1
 408 188 l 1,0,1
EndSplineSet
Validated: 1
EndChar

StartChar: afii10090
Encoding: 1096 1096 356
Width: 774
GlyphClass: 2
Flags: W
LayerCount: 2
Fore
SplineSet
35 0 m 1,0,-1
 35 541 l 1,1,-1
 172 541 l 1,2,-1
 172 106 l 1,3,-1
 318 106 l 1,4,-1
 318 541 l 1,5,-1
 455 541 l 1,6,-1
 455 106 l 1,7,-1
 602 106 l 1,8,-1
 602 541 l 1,9,-1
 738 541 l 1,10,-1
 738 0 l 1,11,-1
 35 0 l 1,0,-1
EndSplineSet
Validated: 1
EndChar

StartChar: afii10091
Encoding: 1097 1097 357
Width: 893
GlyphClass: 2
Flags: W
LayerCount: 2
Fore
SplineSet
34 0 m 1,0,-1
 34 541 l 1,1,-1
 171 541 l 1,2,-1
 171 106 l 1,3,-1
 317 106 l 1,4,-1
 317 541 l 1,5,-1
 454 541 l 1,6,-1
 454 106 l 1,7,-1
 601 106 l 1,8,-1
 601 541 l 1,9,-1
 737 541 l 1,10,-1
 737 106 l 1,11,-1
 873 106 l 1,12,-1
 873 -150 l 1,13,-1
 737 -150 l 1,14,-1
 737 0 l 1,15,-1
 34 0 l 1,0,-1
EndSplineSet
Validated: 1
EndChar

StartChar: afii10092
Encoding: 1098 1098 358
Width: 573
GlyphClass: 2
Flags: W
LayerCount: 2
Fore
SplineSet
261 341 m 1,0,-1
 350 341 l 2,1,2
 563 341 563 341 563 170 c 0,3,4
 563 0 563 0 350 0 c 2,5,-1
 125 0 l 1,6,-1
 125 435 l 1,7,-1
 0 435 l 1,8,-1
 0 541 l 1,9,-1
 261 541 l 1,10,-1
 261 341 l 1,0,-1
261 104 m 1,11,-1
 354 104 l 2,12,13
 399 104 399 104 417 120 c 128,-1,14
 435 136 435 136 435 171 c 0,15,16
 435 209 435 209 417 225 c 128,-1,17
 399 241 399 241 354 241 c 2,18,-1
 261 241 l 1,19,-1
 261 104 l 1,11,-1
EndSplineSet
Validated: 1
EndChar

StartChar: afii10094
Encoding: 1100 1100 360
Width: 493
GlyphClass: 2
Flags: W
LayerCount: 2
Fore
SplineSet
35 0 m 1,0,-1
 35 541 l 1,1,-1
 171 541 l 1,2,-1
 171 341 l 1,3,-1
 270 341 l 2,4,5
 483 341 483 341 483 170 c 0,6,7
 483 0 483 0 270 0 c 2,8,-1
 35 0 l 1,0,-1
171 104 m 1,9,-1
 274 104 l 2,10,11
 319 104 319 104 337 120 c 128,-1,12
 355 136 355 136 355 171 c 0,13,14
 355 209 355 209 337 225 c 128,-1,15
 319 241 319 241 274 241 c 2,16,-1
 171 241 l 1,17,-1
 171 104 l 1,9,-1
EndSplineSet
Validated: 1
EndChar

StartChar: afii10095
Encoding: 1101 1101 361
Width: 477
GlyphClass: 2
Flags: W
LayerCount: 2
Fore
SplineSet
215 420 m 0,0,1
 183 420 183 420 162.5 404 c 128,-1,2
 142 388 142 388 125 349 c 1,3,-1
 21 445 l 1,4,5
 47 496 47 496 93.5 525 c 128,-1,6
 140 554 140 554 206 554 c 0,7,8
 260 554 260 554 305.5 536 c 128,-1,9
 351 518 351 518 384 482 c 128,-1,10
 417 446 417 446 435 393 c 128,-1,11
 453 340 453 340 453 270 c 0,12,13
 453 201 453 201 435 148 c 128,-1,14
 417 95 417 95 386 59 c 128,-1,15
 355 23 355 23 313.5 5 c 128,-1,16
 272 -13 272 -13 225 -13 c 0,17,18
 186 -13 186 -13 154.5 -3 c 128,-1,19
 123 7 123 7 99 22 c 128,-1,20
 75 37 75 37 57 55.5 c 128,-1,21
 39 74 39 74 27 91 c 1,22,-1
 125 178 l 1,23,24
 146 150 146 150 170.5 135.5 c 128,-1,25
 195 121 195 121 215 121 c 0,26,27
 252 121 252 121 278.5 145.5 c 128,-1,28
 305 170 305 170 314 221 c 1,29,-1
 150 221 l 1,30,-1
 150 327 l 1,31,-1
 313 327 l 1,32,33
 302 375 302 375 276.5 397.5 c 128,-1,34
 251 420 251 420 215 420 c 0,0,1
EndSplineSet
Validated: 1
EndChar

StartChar: afii10096
Encoding: 1102 1102 362
Width: 794
GlyphClass: 2
Flags: W
LayerCount: 2
Fore
SplineSet
534 554 m 0,0,1
 585 554 585 554 628 536 c 128,-1,2
 671 518 671 518 702 482 c 128,-1,3
 733 446 733 446 750.5 393 c 128,-1,4
 768 340 768 340 768 270 c 0,5,6
 768 201 768 201 750.5 148 c 128,-1,7
 733 95 733 95 702 59 c 128,-1,8
 671 23 671 23 628 5 c 128,-1,9
 585 -13 585 -13 534 -13 c 0,10,11
 442 -13 442 -13 379.5 44.5 c 128,-1,12
 317 102 317 102 303 214 c 1,13,-1
 206 214 l 1,14,-1
 206 0 l 1,15,-1
 70 0 l 1,16,-1
 70 541 l 1,17,-1
 206 541 l 1,18,-1
 206 320 l 1,19,-1
 302 320 l 1,20,21
 308 378 308 378 327.5 421.5 c 128,-1,22
 347 465 347 465 377.5 494.5 c 128,-1,23
 408 524 408 524 447.5 539 c 128,-1,24
 487 554 487 554 534 554 c 0,0,1
534 420 m 256,25,26
 488 420 488 420 461.5 382.5 c 128,-1,27
 435 345 435 345 435 270 c 256,28,29
 435 195 435 195 461.5 158 c 128,-1,30
 488 121 488 121 534 121 c 256,31,32
 580 121 580 121 607.5 158 c 128,-1,33
 635 195 635 195 635 270 c 256,34,35
 635 345 635 345 607.5 382.5 c 128,-1,36
 580 420 580 420 534 420 c 256,25,26
EndSplineSet
Validated: 1
EndChar

StartChar: afii10097
Encoding: 1103 1103 363
Width: 535
GlyphClass: 2
Flags: W
LayerCount: 2
Fore
SplineSet
177 0 m 1,0,-1
 17 0 l 1,1,-1
 174 218 l 1,2,3
 148 225 148 225 124 238 c 128,-1,4
 100 251 100 251 82 270.5 c 128,-1,5
 64 290 64 290 53.5 316 c 128,-1,6
 43 342 43 342 43 377 c 0,7,8
 43 458 43 458 96 499.5 c 128,-1,9
 149 541 149 541 255 541 c 2,10,-1
 501 541 l 1,11,-1
 501 0 l 1,12,-1
 365 0 l 1,13,-1
 365 200 l 1,14,-1
 309 200 l 1,15,-1
 177 0 l 1,0,-1
365 437 m 1,16,-1
 251 437 l 2,17,18
 206 437 206 437 188.5 421.5 c 128,-1,19
 171 406 171 406 171 370 c 0,20,21
 171 333 171 333 188.5 316.5 c 128,-1,22
 206 300 206 300 251 300 c 2,23,-1
 365 300 l 1,24,-1
 365 437 l 1,16,-1
EndSplineSet
Validated: 1
EndChar

StartChar: afii10099
Encoding: 1106 1106 366
Width: 479
GlyphClass: 2
Flags: W
LayerCount: 2
Fore
SplineSet
253 418 m 0,0,1
 199 418 199 418 168 348 c 1,2,-1
 168 0 l 1,3,-1
 32 0 l 1,4,-1
 32 589 l 1,5,-1
 0 589 l 1,6,-1
 0 660 l 1,7,-1
 32 660 l 1,8,-1
 32 682 l 1,9,-1
 168 729 l 1,10,-1
 168 660 l 1,11,-1
 375 660 l 1,12,-1
 375 589 l 1,13,-1
 168 589 l 1,14,-1
 168 504 l 1,15,16
 194 530 194 530 223.5 542 c 128,-1,17
 253 554 253 554 295 554 c 0,18,19
 329 554 329 554 359 541 c 128,-1,20
 389 528 389 528 411 502.5 c 128,-1,21
 433 477 433 477 446 440 c 128,-1,22
 459 403 459 403 459 355 c 2,23,-1
 459 0 l 2,24,25
 459 -40 459 -40 444.5 -72.5 c 128,-1,26
 430 -105 430 -105 404.5 -128.5 c 128,-1,27
 379 -152 379 -152 343.5 -165 c 128,-1,28
 308 -178 308 -178 265 -178 c 1,29,-1
 265 -39 l 1,30,31
 293 -39 293 -39 308.5 -19.5 c 128,-1,32
 324 0 324 0 324 35 c 2,33,-1
 324 323 l 2,34,35
 324 418 324 418 253 418 c 0,0,1
EndSplineSet
Validated: 1
EndChar

StartChar: afii10101
Encoding: 1108 1108 368
Width: 477
GlyphClass: 2
Flags: W
LayerCount: 2
Fore
SplineSet
262 420 m 0,0,1
 226 420 226 420 200.5 397.5 c 128,-1,2
 175 375 175 375 164 327 c 1,3,-1
 327 327 l 1,4,-1
 327 221 l 1,5,-1
 163 221 l 1,6,7
 172 170 172 170 198.5 145.5 c 128,-1,8
 225 121 225 121 262 121 c 0,9,10
 282 121 282 121 306.5 135.5 c 128,-1,11
 331 150 331 150 352 178 c 1,12,-1
 450 91 l 1,13,14
 438 74 438 74 420 55.5 c 128,-1,15
 402 37 402 37 378 22 c 128,-1,16
 354 7 354 7 322.5 -3 c 128,-1,17
 291 -13 291 -13 252 -13 c 0,18,19
 205 -13 205 -13 163.5 5 c 128,-1,20
 122 23 122 23 91 59 c 128,-1,21
 60 95 60 95 42 148 c 128,-1,22
 24 201 24 201 24 270 c 0,23,24
 24 340 24 340 42 393 c 128,-1,25
 60 446 60 446 93 482 c 128,-1,26
 126 518 126 518 171.5 536 c 128,-1,27
 217 554 217 554 271 554 c 0,28,29
 337 554 337 554 383.5 525 c 128,-1,30
 430 496 430 496 456 445 c 1,31,-1
 352 349 l 1,32,33
 335 388 335 388 314.5 404 c 128,-1,34
 294 420 294 420 262 420 c 0,0,1
EndSplineSet
Validated: 1
EndChar

StartChar: afii10106
Encoding: 1113 1113 373
Width: 852
GlyphClass: 2
Flags: W
LayerCount: 2
Fore
SplineSet
383 435 m 1,0,-1
 312 435 l 1,1,2
 280 0 280 0 13 0 c 1,3,-1
 13 105 l 1,4,5
 174 117 174 117 202 541 c 1,6,-1
 520 541 l 1,7,-1
 520 341 l 1,8,-1
 627 341 l 2,9,10
 840 341 840 341 840 170 c 0,11,12
 840 0 840 0 627 0 c 2,13,-1
 383 0 l 1,14,-1
 383 435 l 1,0,-1
520 104 m 1,15,-1
 631 104 l 2,16,17
 676 104 676 104 694 120 c 128,-1,18
 712 136 712 136 712 171 c 0,19,20
 712 209 712 209 694 225 c 128,-1,21
 676 241 676 241 631 241 c 2,22,-1
 520 241 l 1,23,-1
 520 104 l 1,15,-1
EndSplineSet
Validated: 1
EndChar

StartChar: afii10107
Encoding: 1114 1114 374
Width: 880
GlyphClass: 2
Flags: W
LayerCount: 2
Fore
SplineSet
405 241 m 1,0,-1
 171 241 l 1,1,-1
 171 0 l 1,2,-1
 35 0 l 1,3,-1
 35 541 l 1,4,-1
 171 541 l 1,5,-1
 171 341 l 1,6,-1
 405 341 l 1,7,-1
 405 541 l 1,8,-1
 542 541 l 1,9,-1
 542 341 l 1,10,-1
 644 341 l 2,11,12
 857 341 857 341 857 170 c 0,13,14
 857 0 857 0 644 0 c 2,15,-1
 405 0 l 1,16,-1
 405 241 l 1,0,-1
542 104 m 1,17,-1
 648 104 l 2,18,19
 693 104 693 104 711 120 c 128,-1,20
 729 136 729 136 729 171 c 0,21,22
 729 209 729 209 711 225 c 128,-1,23
 693 241 693 241 648 241 c 2,24,-1
 542 241 l 1,25,-1
 542 104 l 1,17,-1
EndSplineSet
Validated: 1
EndChar

StartChar: afii10108
Encoding: 1115 1115 375
Width: 479
GlyphClass: 2
Flags: W
LayerCount: 2
Fore
SplineSet
0 660 m 1,0,-1
 32 660 l 1,1,-1
 32 682 l 1,2,-1
 168 729 l 1,3,-1
 168 660 l 1,4,-1
 375 660 l 1,5,-1
 375 589 l 1,6,-1
 168 589 l 1,7,-1
 168 504 l 1,8,9
 194 530 194 530 223.5 542 c 128,-1,10
 253 554 253 554 295 554 c 0,11,12
 329 554 329 554 359 541 c 128,-1,13
 389 528 389 528 411 502.5 c 128,-1,14
 433 477 433 477 446 440 c 128,-1,15
 459 403 459 403 459 355 c 2,16,-1
 459 0 l 1,17,-1
 324 0 l 1,18,-1
 324 323 l 2,19,20
 324 418 324 418 253 418 c 0,21,22
 199 418 199 418 168 348 c 1,23,-1
 168 0 l 1,24,-1
 32 0 l 1,25,-1
 32 589 l 1,26,-1
 0 589 l 1,27,-1
 0 660 l 1,0,-1
EndSplineSet
Validated: 1
EndChar

StartChar: afii10193
Encoding: 1119 1119 379
Width: 578
GlyphClass: 2
Flags: W
LayerCount: 2
Fore
SplineSet
221 0 m 1,0,-1
 35 0 l 1,1,-1
 35 541 l 1,2,-1
 172 541 l 1,3,-1
 172 106 l 1,4,-1
 406 106 l 1,5,-1
 406 541 l 1,6,-1
 542 541 l 1,7,-1
 542 0 l 1,8,-1
 357 0 l 1,9,-1
 357 -150 l 1,10,-1
 221 -150 l 1,11,-1
 221 0 l 1,0,-1
EndSplineSet
Validated: 1
EndChar

StartChar: endash
Encoding: 8211 8211 382
Width: 518
GlyphClass: 2
Flags: W
LayerCount: 2
Fore
SplineSet
33 304 m 1,0,-1
 484 304 l 1,1,-1
 484 223 l 1,2,-1
 33 223 l 1,3,-1
 33 304 l 1,0,-1
EndSplineSet
Validated: 1
EndChar

StartChar: emdash
Encoding: 8212 8212 383
Width: 760
GlyphClass: 2
Flags: W
LayerCount: 2
Fore
SplineSet
33 304 m 1,0,-1
 727 304 l 1,1,-1
 727 223 l 1,2,-1
 33 223 l 1,3,-1
 33 304 l 1,0,-1
EndSplineSet
Validated: 1
EndChar

StartChar: quoteleft
Encoding: 8216 8216 384
Width: 177
GlyphClass: 2
Flags: W
LayerCount: 2
Fore
SplineSet
101 483 m 1,0,-1
 9 680 l 1,1,-1
 94 714 l 1,2,-1
 162 511 l 1,3,-1
 101 483 l 1,0,-1
EndSplineSet
Validated: 1
EndChar

StartChar: quoteright
Encoding: 8217 8217 385
Width: 177
GlyphClass: 2
Flags: W
LayerCount: 2
Fore
SplineSet
14 511 m 1,0,-1
 82 714 l 1,1,-1
 167 680 l 1,2,-1
 75 483 l 1,3,-1
 14 511 l 1,0,-1
EndSplineSet
Validated: 1
EndChar

StartChar: quotesinglbase
Encoding: 8218 8218 386
Width: 177
GlyphClass: 2
Flags: W
LayerCount: 2
Fore
SplineSet
14 -128 m 1,0,-1
 82 75 l 1,1,-1
 167 41 l 1,2,-1
 75 -156 l 1,3,-1
 14 -128 l 1,0,-1
EndSplineSet
Validated: 1
EndChar

StartChar: quotedblleft
Encoding: 8220 8220 387
Width: 337
GlyphClass: 2
Flags: W
LayerCount: 2
Fore
SplineSet
253 482 m 1,0,-1
 161 679 l 1,1,-1
 246 713 l 1,2,-1
 314 510 l 1,3,-1
 253 482 l 1,0,-1
110 482 m 1,4,-1
 18 679 l 1,5,-1
 103 713 l 1,6,-1
 171 510 l 1,7,-1
 110 482 l 1,4,-1
EndSplineSet
Validated: 1
EndChar

StartChar: quotedblright
Encoding: 8221 8221 388
Width: 338
GlyphClass: 2
Flags: W
LayerCount: 2
Fore
SplineSet
166 511 m 1,0,-1
 233 714 l 1,1,-1
 319 680 l 1,2,-1
 226 483 l 1,3,-1
 166 511 l 1,0,-1
22 511 m 1,4,-1
 90 714 l 1,5,-1
 176 680 l 1,6,-1
 83 483 l 1,7,-1
 22 511 l 1,4,-1
EndSplineSet
Validated: 1
EndChar

StartChar: quotedblbase
Encoding: 8222 8222 389
Width: 337
GlyphClass: 2
Flags: W
LayerCount: 2
Fore
SplineSet
165 -127 m 1,0,-1
 233 75 l 1,1,-1
 318 42 l 1,2,-1
 226 -156 l 1,3,-1
 165 -127 l 1,0,-1
22 -127 m 1,4,-1
 90 75 l 1,5,-1
 175 42 l 1,6,-1
 83 -156 l 1,7,-1
 22 -127 l 1,4,-1
EndSplineSet
Validated: 1
EndChar

StartChar: dagger
Encoding: 8224 8224 390
Width: 306
GlyphClass: 2
Flags: W
LayerCount: 2
Fore
SplineSet
5 557 m 1,0,-1
 122 557 l 1,1,-1
 122 691 l 1,2,-1
 185 691 l 1,3,-1
 185 557 l 1,4,-1
 300 557 l 1,5,-1
 300 495 l 1,6,-1
 185 495 l 1,7,-1
 185 0 l 1,8,-1
 122 0 l 1,9,-1
 122 495 l 1,10,-1
 5 495 l 1,11,-1
 5 557 l 1,0,-1
EndSplineSet
Validated: 1
EndChar

StartChar: daggerdbl
Encoding: 8225 8225 391
Width: 311
GlyphClass: 2
Flags: W
LayerCount: 2
Fore
SplineSet
8 557 m 1,0,-1
 125 557 l 1,1,-1
 125 691 l 1,2,-1
 188 691 l 1,3,-1
 188 557 l 1,4,-1
 303 557 l 1,5,-1
 303 495 l 1,6,-1
 188 495 l 1,7,-1
 188 189 l 1,8,-1
 303 189 l 1,9,-1
 303 127 l 1,10,-1
 188 127 l 1,11,-1
 188 0 l 1,12,-1
 125 0 l 1,13,-1
 125 127 l 1,14,-1
 8 127 l 1,15,-1
 8 189 l 1,16,-1
 125 189 l 1,17,-1
 125 495 l 1,18,-1
 8 495 l 1,19,-1
 8 557 l 1,0,-1
EndSplineSet
Validated: 1
EndChar

StartChar: bullet
Encoding: 8226 8226 392
Width: 340
GlyphClass: 2
Flags: W
LayerCount: 2
Fore
SplineSet
170 494 m 256,0,1
 200 494 200 494 227 483 c 128,-1,2
 254 472 254 472 274 453 c 128,-1,3
 294 434 294 434 305.5 408 c 128,-1,4
 317 382 317 382 317 353 c 256,5,6
 317 324 317 324 305.5 298 c 128,-1,7
 294 272 294 272 274 253 c 128,-1,8
 254 234 254 234 227 223 c 128,-1,9
 200 212 200 212 170 212 c 256,10,11
 140 212 140 212 113 223 c 128,-1,12
 86 234 86 234 66 253 c 128,-1,13
 46 272 46 272 34.5 298 c 128,-1,14
 23 324 23 324 23 353 c 256,15,16
 23 382 23 382 34.5 408 c 128,-1,17
 46 434 46 434 66 453 c 128,-1,18
 86 472 86 472 113 483 c 128,-1,19
 140 494 140 494 170 494 c 256,0,1
EndSplineSet
Validated: 1
EndChar

StartChar: ellipsis
Encoding: 8230 8230 393
Width: 960
GlyphClass: 2
Flags: W
LayerCount: 2
Fore
SplineSet
31 37 m 256,0,1
 31 58 31 58 45 74 c 128,-1,2
 59 90 59 90 82 90 c 0,3,4
 103 90 103 90 119 74 c 128,-1,5
 135 58 135 58 135 37 c 256,6,7
 135 16 135 16 119 1 c 128,-1,8
 103 -14 103 -14 82 -14 c 0,9,10
 59 -14 59 -14 45 1 c 128,-1,11
 31 16 31 16 31 37 c 256,0,1
825 37 m 256,12,13
 825 58 825 58 839 74 c 128,-1,14
 853 90 853 90 876 90 c 0,15,16
 897 90 897 90 913 74 c 128,-1,17
 929 58 929 58 929 37 c 256,18,19
 929 16 929 16 913 1 c 128,-1,20
 897 -14 897 -14 876 -14 c 0,21,22
 853 -14 853 -14 839 1 c 128,-1,23
 825 16 825 16 825 37 c 256,12,13
428 37 m 256,24,25
 428 58 428 58 442.5 74 c 128,-1,26
 457 90 457 90 479 90 c 256,27,28
 501 90 501 90 516.5 74 c 128,-1,29
 532 58 532 58 532 37 c 256,30,31
 532 16 532 16 516.5 1 c 128,-1,32
 501 -14 501 -14 479 -14 c 256,33,34
 457 -14 457 -14 442.5 1 c 128,-1,35
 428 16 428 16 428 37 c 256,24,25
EndSplineSet
Validated: 1
EndChar

StartChar: guilsinglleft
Encoding: 8249 8249 394
Width: 188
GlyphClass: 2
Flags: W
LayerCount: 2
Fore
SplineSet
19 289 m 1,0,-1
 167 414 l 1,1,-1
 167 339 l 1,2,-1
 69 262 l 1,3,-1
 167 184 l 1,4,-1
 167 110 l 1,5,-1
 19 235 l 1,6,-1
 19 289 l 1,0,-1
EndSplineSet
Validated: 1
EndChar

StartChar: guilsinglright
Encoding: 8250 8250 395
Width: 198
GlyphClass: 2
Flags: W
LayerCount: 2
Fore
SplineSet
174 235 m 1,0,-1
 26 110 l 1,1,-1
 26 184 l 1,2,-1
 123 262 l 1,3,-1
 26 339 l 1,4,-1
 26 414 l 1,5,-1
 174 289 l 1,6,-1
 174 235 l 1,0,-1
EndSplineSet
Validated: 1
EndChar

StartChar: fraction
Encoding: 8260 8260 396
Width: 551
GlyphClass: 2
Flags: W
LayerCount: 2
Fore
SplineSet
79 0 m 1,0,-1
 3 0 l 1,1,-1
 471 691 l 1,2,-1
 548 691 l 1,3,-1
 79 0 l 1,0,-1
EndSplineSet
Validated: 1
EndChar

StartChar: Euro
Encoding: 8364 8364 397
Width: 639
GlyphClass: 2
Flags: W
LayerCount: 2
Fore
SplineSet
450 393 m 1,0,-1
 189 393 l 1,1,2
 187 382 187 382 187 369.5 c 128,-1,3
 187 357 187 357 187 343 c 0,4,5
 187 328 187 328 187.5 313 c 128,-1,6
 188 298 188 298 190 286 c 1,7,-1
 380 286 l 1,8,-1
 328 205 l 1,9,-1
 209 205 l 1,10,11
 233 136 233 136 280.5 101 c 128,-1,12
 328 66 328 66 397 66 c 0,13,14
 487 66 487 66 547 133 c 1,15,-1
 615 91 l 1,16,17
 570 37 570 37 515 11.5 c 128,-1,18
 460 -14 460 -14 397 -14 c 0,19,20
 298 -14 298 -14 225 41 c 128,-1,21
 152 96 152 96 123 205 c 1,22,-1
 12 205 l 1,23,-1
 69 286 l 1,24,-1
 108 286 l 1,25,26
 107 302 107 302 106.5 318.5 c 128,-1,27
 106 335 106 335 106 352 c 0,28,29
 106 363 106 363 106 373 c 128,-1,30
 106 383 106 383 108 393 c 1,31,-1
 12 393 l 1,32,-1
 69 475 l 1,33,-1
 120 475 l 1,34,35
 148 590 148 590 221 648 c 128,-1,36
 294 706 294 706 397 706 c 0,37,38
 512 706 512 706 601 619 c 1,39,-1
 554 549 l 1,40,41
 485 624 485 624 397 624 c 0,42,43
 251 624 251 624 205 475 c 1,44,-1
 503 475 l 1,45,-1
 450 393 l 1,0,-1
EndSplineSet
Validated: 1
EndChar

StartChar: trademark
Encoding: 8482 8482 398
Width: 832
GlyphClass: 2
Flags: W
LayerCount: 2
Fore
SplineSet
799 691 m 1,0,-1
 799 282 l 1,1,-1
 737 282 l 1,2,-1
 737 580 l 1,3,-1
 615 282 l 1,4,-1
 591 282 l 1,5,-1
 469 580 l 1,6,-1
 469 282 l 1,7,-1
 406 282 l 1,8,-1
 406 691 l 1,9,-1
 489 691 l 1,10,-1
 602 413 l 1,11,-1
 716 691 l 1,12,-1
 799 691 l 1,0,-1
219 283 m 1,13,-1
 157 283 l 1,14,-1
 157 629 l 1,15,-1
 24 629 l 1,16,-1
 24 691 l 1,17,-1
 340 691 l 1,18,-1
 340 629 l 1,19,-1
 219 629 l 1,20,-1
 219 283 l 1,13,-1
EndSplineSet
Validated: 1
EndChar

StartChar: minus
Encoding: 8722 8722 399
Width: 423
GlyphClass: 2
Flags: W
LayerCount: 2
Fore
SplineSet
33 309 m 1,0,-1
 33 370 l 1,1,-1
 389 370 l 1,2,-1
 389 309 l 1,3,-1
 33 309 l 1,0,-1
EndSplineSet
Validated: 1
EndChar

StartChar: commaaccent
Encoding: 63171 63171 400
Width: 162
GlyphClass: 2
Flags: W
LayerCount: 2
Fore
SplineSet
15 -183 m 1,0,-1
 76 11 l 1,1,-1
 155 11 l 1,2,-1
 60 -204 l 1,3,-1
 15 -183 l 1,0,-1
EndSplineSet
Validated: 1
EndChar

StartChar: zerooldstyle
Encoding: 63280 63280 401
Width: 552
GlyphClass: 2
Flags: W
LayerCount: 2
Fore
SplineSet
276 545 m 0,0,1
 330 545 330 545 376 527 c 128,-1,2
 422 509 422 509 455.5 474 c 128,-1,3
 489 439 489 439 508 386.5 c 128,-1,4
 527 334 527 334 527 265 c 256,5,6
 527 196 527 196 508 144 c 128,-1,7
 489 92 489 92 455.5 57 c 128,-1,8
 422 22 422 22 376 4 c 128,-1,9
 330 -14 330 -14 276 -14 c 0,10,11
 221 -14 221 -14 175 4 c 128,-1,12
 129 22 129 22 95.5 57 c 128,-1,13
 62 92 62 92 43.5 144 c 128,-1,14
 25 196 25 196 25 265 c 256,15,16
 25 334 25 334 43.5 386.5 c 128,-1,17
 62 439 62 439 95.5 474 c 128,-1,18
 129 509 129 509 175 527 c 128,-1,19
 221 545 221 545 276 545 c 0,0,1
276 447 m 0,20,21
 205 447 205 447 164 401.5 c 128,-1,22
 123 356 123 356 123 265 c 256,23,24
 123 174 123 174 164 128.5 c 128,-1,25
 205 83 205 83 276 83 c 0,26,27
 346 83 346 83 387.5 128.5 c 128,-1,28
 429 174 429 174 429 265 c 256,29,30
 429 356 429 356 387.5 401.5 c 128,-1,31
 346 447 346 447 276 447 c 0,20,21
EndSplineSet
Validated: 1
EndChar

StartChar: oneoldstyle
Encoding: 63281 63281 402
Width: 224
GlyphClass: 2
Flags: W
LayerCount: 2
Fore
SplineSet
90 378 m 1,0,-1
 17 378 l 1,1,-1
 17 464 l 1,2,3
 91 474 91 474 102 531 c 1,4,-1
 190 531 l 1,5,-1
 190 0 l 1,6,-1
 90 0 l 1,7,-1
 90 378 l 1,0,-1
EndSplineSet
Validated: 1
EndChar

StartChar: twooldstyle
Encoding: 63282 63282 403
Width: 540
GlyphClass: 2
Flags: W
LayerCount: 2
Fore
SplineSet
273 544 m 0,0,1
 317 544 317 544 359 532.5 c 128,-1,2
 401 521 401 521 434 497.5 c 128,-1,3
 467 474 467 474 487 439 c 128,-1,4
 507 404 507 404 507 356 c 0,5,6
 507 306 507 306 486.5 271 c 128,-1,7
 466 236 466 236 435 210 c 128,-1,8
 404 184 404 184 366 163.5 c 128,-1,9
 328 143 328 143 294 124 c 0,10,11
 240 92 240 92 200.5 44 c 128,-1,12
 161 -4 161 -4 146 -65 c 1,13,-1
 511 -65 l 1,14,-1
 511 -164 l 1,15,-1
 26 -164 l 1,16,17
 30 -103 30 -103 41.5 -51 c 128,-1,18
 53 1 53 1 75 44.5 c 128,-1,19
 97 88 97 88 131 125 c 128,-1,20
 165 162 165 162 214 193 c 0,21,22
 239 209 239 209 272.5 224.5 c 128,-1,23
 306 240 306 240 335 258.5 c 128,-1,24
 364 277 364 277 384.5 301 c 128,-1,25
 405 325 405 325 405 359 c 0,26,27
 405 381 405 381 394 397.5 c 128,-1,28
 383 414 383 414 365 424.5 c 128,-1,29
 347 435 347 435 323.5 440.5 c 128,-1,30
 300 446 300 446 276 446 c 0,31,32
 234 446 234 446 190 428 c 128,-1,33
 146 410 146 410 117 375 c 1,34,-1
 46 446 l 1,35,36
 67 470 67 470 94 488.5 c 128,-1,37
 121 507 121 507 151 519 c 128,-1,38
 181 531 181 531 212 537.5 c 128,-1,39
 243 544 243 544 273 544 c 0,0,1
EndSplineSet
Validated: 1
EndChar

StartChar: threeoldstyle
Encoding: 63283 63283 404
Width: 536
GlyphClass: 2
Flags: W
LayerCount: 2
Fore
SplineSet
265 545 m 0,0,1
 304 545 304 545 340.5 534.5 c 128,-1,2
 377 524 377 524 404.5 502.5 c 128,-1,3
 432 481 432 481 448.5 448.5 c 128,-1,4
 465 416 465 416 465 371 c 0,5,6
 465 323 465 323 446 287 c 128,-1,7
 427 251 427 251 389 231 c 1,8,9
 443 216 443 216 477 167 c 128,-1,10
 511 118 511 118 511 52 c 0,11,12
 511 3 511 3 492 -37.5 c 128,-1,13
 473 -78 473 -78 438 -107.5 c 128,-1,14
 403 -137 403 -137 354.5 -153 c 128,-1,15
 306 -169 306 -169 248 -169 c 0,16,17
 216 -169 216 -169 182.5 -163.5 c 128,-1,18
 149 -158 149 -158 118.5 -147 c 128,-1,19
 88 -136 88 -136 62.5 -119.5 c 128,-1,20
 37 -103 37 -103 19 -81 c 1,21,-1
 82 -5 l 1,22,23
 98 -21 98 -21 119.5 -33 c 128,-1,24
 141 -45 141 -45 163.5 -53 c 128,-1,25
 186 -61 186 -61 208.5 -65 c 128,-1,26
 231 -69 231 -69 249 -69 c 0,27,28
 289 -69 289 -69 320 -59.5 c 128,-1,29
 351 -50 351 -50 372 -33.5 c 128,-1,30
 393 -17 393 -17 404 5 c 128,-1,31
 415 27 415 27 415 52 c 256,32,33
 415 77 415 77 406 100 c 128,-1,34
 397 123 397 123 379.5 140 c 128,-1,35
 362 157 362 157 336.5 167.5 c 128,-1,36
 311 178 311 178 278 178 c 2,37,-1
 218 178 l 1,38,-1
 218 267 l 1,39,-1
 278 267 l 2,40,41
 317 267 317 267 343.5 294 c 128,-1,42
 370 321 370 321 370 363 c 0,43,44
 370 384 370 384 361 399.5 c 128,-1,45
 352 415 352 415 336.5 425.5 c 128,-1,46
 321 436 321 436 301.5 441.5 c 128,-1,47
 282 447 282 447 261 447 c 0,48,49
 226 447 226 447 189.5 431.5 c 128,-1,50
 153 416 153 416 130 381 c 1,51,-1
 65 451 l 1,52,53
 92 493 92 493 143 519 c 128,-1,54
 194 545 194 545 265 545 c 0,0,1
EndSplineSet
Validated: 1
EndChar

StartChar: fouroldstyle
Encoding: 63284 63284 405
Width: 544
GlyphClass: 2
Flags: W
LayerCount: 2
Fore
SplineSet
450 531 m 1,0,-1
 450 97 l 1,1,-1
 520 97 l 1,2,-1
 520 0 l 1,3,-1
 450 0 l 1,4,-1
 450 -159 l 1,5,-1
 350 -159 l 1,6,-1
 350 0 l 1,7,-1
 8 0 l 1,8,-1
 8 94 l 1,9,-1
 359 531 l 1,10,-1
 450 531 l 1,0,-1
350 374 m 1,11,-1
 121 97 l 1,12,-1
 350 97 l 1,13,-1
 350 374 l 1,11,-1
EndSplineSet
Validated: 1
EndChar

StartChar: fiveoldstyle
Encoding: 63285 63285 406
Width: 563
GlyphClass: 2
Flags: W
LayerCount: 2
Fore
SplineSet
476 432 m 1,0,-1
 174 432 l 1,1,-1
 158 282 l 1,2,3
 198 305 198 305 233 312.5 c 128,-1,4
 268 320 268 320 303 320 c 0,5,6
 352 320 352 320 395 305 c 128,-1,7
 438 290 438 290 470 260.5 c 128,-1,8
 502 231 502 231 520 187 c 128,-1,9
 538 143 538 143 538 85 c 0,10,11
 538 16 538 16 513.5 -32 c 128,-1,12
 489 -80 489 -80 449 -110.5 c 128,-1,13
 409 -141 409 -141 358 -154.5 c 128,-1,14
 307 -168 307 -168 254 -168 c 0,15,16
 195 -168 195 -168 132.5 -147.5 c 128,-1,17
 70 -127 70 -127 21 -82 c 1,18,-1
 85 -4 l 1,19,20
 130 -42 130 -42 175 -55.5 c 128,-1,21
 220 -69 220 -69 261 -69 c 0,22,23
 345 -69 345 -69 392 -26 c 128,-1,24
 439 17 439 17 439 86 c 0,25,26
 439 122 439 122 427 148.5 c 128,-1,27
 415 175 415 175 394.5 192.5 c 128,-1,28
 374 210 374 210 347.5 218.5 c 128,-1,29
 321 227 321 227 292 227 c 0,30,31
 245 227 245 227 211.5 214 c 128,-1,32
 178 201 178 201 143 175 c 1,33,-1
 60 209 l 1,34,-1
 92 531 l 1,35,-1
 476 531 l 1,36,-1
 476 432 l 1,0,-1
EndSplineSet
Validated: 1
EndChar

StartChar: sixoldstyle
Encoding: 63286 63286 407
Width: 580
GlyphClass: 2
Flags: W
LayerCount: 2
Fore
SplineSet
313 443 m 0,0,1
 366 443 366 443 410.5 427 c 128,-1,2
 455 411 455 411 487 382.5 c 128,-1,3
 519 354 519 354 537 314.5 c 128,-1,4
 555 275 555 275 555 227 c 0,5,6
 555 178 555 178 534.5 135.5 c 128,-1,7
 514 93 514 93 479 61.5 c 128,-1,8
 444 30 444 30 396 12 c 128,-1,9
 348 -6 348 -6 293 -6 c 0,10,11
 221 -6 221 -6 170 18.5 c 128,-1,12
 119 43 119 43 87 83 c 128,-1,13
 55 123 55 123 40 175 c 128,-1,14
 25 227 25 227 25 282 c 0,15,16
 25 367 25 367 52 445 c 128,-1,17
 79 523 79 523 127 579 c 0,18,19
 160 618 160 618 197.5 641 c 128,-1,20
 235 664 235 664 276.5 676.5 c 128,-1,21
 318 689 318 689 363.5 693 c 128,-1,22
 409 697 409 697 459 697 c 1,23,24
 459 673 459 673 459 648.5 c 128,-1,25
 459 624 459 624 458 599 c 1,26,27
 402 599 402 599 350 591.5 c 128,-1,28
 298 584 298 584 255 560 c 128,-1,29
 212 536 212 536 180.5 490.5 c 128,-1,30
 149 445 149 445 133 369 c 1,31,32
 164 413 164 413 209.5 428 c 128,-1,33
 255 443 255 443 313 443 c 0,0,1
296 355 m 0,34,35
 227 355 227 355 180.5 321 c 128,-1,36
 134 287 134 287 127 228 c 1,37,38
 130 201 130 201 141.5 176 c 128,-1,39
 153 151 153 151 173 132 c 128,-1,40
 193 113 193 113 223 102 c 128,-1,41
 253 91 253 91 292 91 c 0,42,43
 332 91 332 91 363 102 c 128,-1,44
 394 113 394 113 415 132 c 128,-1,45
 436 151 436 151 447 175.5 c 128,-1,46
 458 200 458 200 458 227 c 0,47,48
 458 255 458 255 446 278.5 c 128,-1,49
 434 302 434 302 412.5 319 c 128,-1,50
 391 336 391 336 361.5 345.5 c 128,-1,51
 332 355 332 355 296 355 c 0,34,35
EndSplineSet
Validated: 1
EndChar

StartChar: sevenoldstyle
Encoding: 63287 63287 408
Width: 523
GlyphClass: 2
Flags: W
LayerCount: 2
Fore
SplineSet
21 531 m 1,0,-1
 508 531 l 1,1,-1
 508 450 l 1,2,3
 449 382 449 382 408 312.5 c 128,-1,4
 367 243 367 243 339 168.5 c 128,-1,5
 311 94 311 94 293.5 12.5 c 128,-1,6
 276 -69 276 -69 266 -160 c 1,7,-1
 166 -160 l 1,8,9
 176 -79 176 -79 191 1 c 128,-1,10
 206 81 206 81 230 157 c 128,-1,11
 254 233 254 233 287.5 302.5 c 128,-1,12
 321 372 321 372 367 432 c 1,13,-1
 21 432 l 1,14,-1
 21 531 l 1,0,-1
EndSplineSet
Validated: 1
EndChar

StartChar: eightoldstyle
Encoding: 63288 63288 409
Width: 575
GlyphClass: 2
Flags: W
LayerCount: 2
Fore
SplineSet
287 698 m 256,0,1
 328 698 328 698 367 687.5 c 128,-1,2
 406 677 406 677 436.5 656 c 128,-1,3
 467 635 467 635 485.5 603.5 c 128,-1,4
 504 572 504 572 504 529 c 0,5,6
 504 425 504 425 429 385 c 1,7,8
 455 378 455 378 477.5 362 c 128,-1,9
 500 346 500 346 516 323 c 128,-1,10
 532 300 532 300 541 271.5 c 128,-1,11
 550 243 550 243 550 210 c 0,12,13
 550 162 550 162 531 122 c 128,-1,14
 512 82 512 82 477 53.5 c 128,-1,15
 442 25 442 25 393.5 9 c 128,-1,16
 345 -7 345 -7 287 -7 c 256,17,18
 229 -7 229 -7 180.5 9 c 128,-1,19
 132 25 132 25 97.5 53.5 c 128,-1,20
 63 82 63 82 44 122 c 128,-1,21
 25 162 25 162 25 210 c 0,22,23
 25 275 25 275 58.5 323 c 128,-1,24
 92 371 92 371 146 385 c 1,25,26
 71 426 71 426 71 525 c 0,27,28
 71 569 71 569 89.5 601.5 c 128,-1,29
 108 634 108 634 138 655.5 c 128,-1,30
 168 677 168 677 207 687.5 c 128,-1,31
 246 698 246 698 287 698 c 256,0,1
287 601 m 256,32,33
 265 601 265 601 243.5 596 c 128,-1,34
 222 591 222 591 205 580.5 c 128,-1,35
 188 570 188 570 177.5 554.5 c 128,-1,36
 167 539 167 539 167 519 c 0,37,38
 167 467 167 467 194 441.5 c 128,-1,39
 221 416 221 416 287 416 c 0,40,41
 354 416 354 416 381 444.5 c 128,-1,42
 408 473 408 473 408 519 c 0,43,44
 408 539 408 539 397.5 554.5 c 128,-1,45
 387 570 387 570 369.5 580.5 c 128,-1,46
 352 591 352 591 330.5 596 c 128,-1,47
 309 601 309 601 287 601 c 256,32,33
287 91 m 256,48,49
 326 91 326 91 357 100.5 c 128,-1,50
 388 110 388 110 409.5 126.5 c 128,-1,51
 431 143 431 143 442.5 165 c 128,-1,52
 454 187 454 187 454 211 c 0,53,54
 454 277 454 277 413 305.5 c 128,-1,55
 372 334 372 334 287 334 c 0,56,57
 240 334 240 334 208.5 324.5 c 128,-1,58
 177 315 177 315 157.5 298.5 c 128,-1,59
 138 282 138 282 129.5 259.5 c 128,-1,60
 121 237 121 237 121 211 c 0,61,62
 121 187 121 187 132.5 165 c 128,-1,63
 144 143 144 143 165.5 126.5 c 128,-1,64
 187 110 187 110 217.5 100.5 c 128,-1,65
 248 91 248 91 287 91 c 256,48,49
EndSplineSet
Validated: 1
EndChar

StartChar: nineoldstyle
Encoding: 63289 63289 410
Width: 581
GlyphClass: 2
Flags: W
LayerCount: 2
Fore
SplineSet
267 95 m 0,0,1
 214 95 214 95 169.5 111 c 128,-1,2
 125 127 125 127 93 155.5 c 128,-1,3
 61 184 61 184 43 223.5 c 128,-1,4
 25 263 25 263 25 311 c 0,5,6
 25 360 25 360 45.5 402.5 c 128,-1,7
 66 445 66 445 101.5 476.5 c 128,-1,8
 137 508 137 508 184.5 526.5 c 128,-1,9
 232 545 232 545 287 545 c 0,10,11
 359 545 359 545 410 520.5 c 128,-1,12
 461 496 461 496 493.5 455.5 c 128,-1,13
 526 415 526 415 541 363 c 128,-1,14
 556 311 556 311 556 256 c 0,15,16
 556 171 556 171 528.5 91.5 c 128,-1,17
 501 12 501 12 453 -43 c 0,18,19
 420 -82 420 -82 382.5 -105.5 c 128,-1,20
 345 -129 345 -129 303.5 -141.5 c 128,-1,21
 262 -154 262 -154 216 -158 c 128,-1,22
 170 -162 170 -162 121 -162 c 1,23,24
 122 -137 122 -137 122 -112.5 c 128,-1,25
 122 -88 122 -88 122 -64 c 1,26,27
 179 -64 179 -64 231 -56.5 c 128,-1,28
 283 -49 283 -49 326.5 -24.5 c 128,-1,29
 370 0 370 0 401 46 c 128,-1,30
 432 92 432 92 447 169 c 1,31,32
 416 125 416 125 370.5 110 c 128,-1,33
 325 95 325 95 267 95 c 0,0,1
284 183 m 0,34,35
 353 183 353 183 399.5 217 c 128,-1,36
 446 251 446 251 454 310 c 1,37,38
 451 337 451 337 439.5 362 c 128,-1,39
 428 387 428 387 407.5 406 c 128,-1,40
 387 425 387 425 357.5 436 c 128,-1,41
 328 447 328 447 288 447 c 256,42,43
 248 447 248 447 217.5 436 c 128,-1,44
 187 425 187 425 166 406 c 128,-1,45
 145 387 145 387 134 362.5 c 128,-1,46
 123 338 123 338 123 311 c 0,47,48
 123 283 123 283 135 259.5 c 128,-1,49
 147 236 147 236 168 219 c 128,-1,50
 189 202 189 202 218.5 192.5 c 128,-1,51
 248 183 248 183 284 183 c 0,34,35
EndSplineSet
Validated: 1
EndChar

StartChar: currency
Encoding: 164 164 411
Width: 1500
Flags: W
LayerCount: 2
Fore
SplineSet
634 416 m 25,0,-1
 866 416 l 25,1,-1
 866 185 l 25,2,-1
 634 185 l 25,3,-1
 634 416 l 25,0,-1
978 416 m 25,4,-1
 1210 416 l 25,5,-1
 1210 185 l 25,6,-1
 978 185 l 25,7,-1
 978 416 l 25,4,-1
290 416 m 25,8,-1
 523 416 l 25,9,-1
 523 185 l 25,10,-1
 290 185 l 25,11,-1
 290 416 l 25,8,-1
EndSplineSet
Validated: 1
EndChar
